<svg width="87" height="76" viewBox="0 0 87 76" fill="none" xmlns="http://www.w3.org/2000/svg">
<g id="Group 2">
<g id="left-half">
<path d="M31.3687 34.3726L42.8687 53.3726V41.3726L31.3687 21.8726L0.868744 74.3726H31.3687L40.8687 58.3726L31.3687 42.3726L18.8687 63.8726H24.8687L30.8687 53.8726L33.8687 58.3726L27.8687 67.8726H11.8687L31.3687 34.3726Z" fill="#B74B3A"/>
<path d="M42.8687 33.3726V1.87262L33.8687 17.5248L42.8687 33.3726Z" fill="#B74B3A"/>
<path d="M31.3687 34.3726L42.8687 53.3726V41.3726L31.3687 21.8726L0.868744 74.3726H31.3687L40.8687 58.3726L31.3687 42.3726L18.8687 63.8726H24.8687L30.8687 53.8726L33.8687 58.3726L27.8687 67.8726H11.8687L31.3687 34.3726Z" stroke="#B74B3A"/>
<path d="M42.8687 33.3726V1.87262L33.8687 17.5248L42.8687 33.3726Z" stroke="#B74B3A"/>
</g>
<g id="right-half">
<path d="M55.3687 34.3726L43.8687 53.3726V41.3726L55.3687 21.8726L85.8687 74.3726H55.3687L45.8687 58.3726L55.3687 42.3726L67.8687 63.8726H61.8687L55.8687 53.8726L52.8687 58.3726L58.8687 67.8726H74.8687L55.3687 34.3726Z" fill="#B74B3A"/>
<path d="M43.8687 33.3726V1.87262L52.8687 17.5248L43.8687 33.3726Z" fill="#B74B3A"/>
<path d="M55.3687 34.3726L43.8687 53.3726V41.3726L55.3687 21.8726L85.8687 74.3726H55.3687L45.8687 58.3726L55.3687 42.3726L67.8687 63.8726H61.8687L55.8687 53.8726L52.8687 58.3726L58.8687 67.8726H74.8687L55.3687 34.3726Z" stroke="#B74B3A"/>
<path d="M43.8687 33.3726V1.87262L52.8687 17.5248L43.8687 33.3726Z" stroke="#B74B3A"/>
</g>
<path id="bottom-triangle" d="M50.8687 74.8726L43.3687 61.8726L35.8687 74.8726H50.8687Z" fill="#B74B3A" stroke="#B74B3A"/>
</g>
</svg>
