<svg width="91" height="99" viewBox="0 0 91 99" fill="none" xmlns="http://www.w3.org/2000/svg">
<g id="Group 3">
<path id="right-g" d="M81.6484 49.7109L81.1348 49.4248L73.9678 45.4326L72.4814 44.6045V64.8936L64.9258 69.3125V29.6494L90 43.6982V73.6719L49 97.2705V1.70996L79.9141 19.0967L88.4004 34.1504L59.6309 18.2852L58.1484 17.4678V80.7979L59.6592 79.9004L81.1592 67.126L81.6484 66.835V49.7109Z" fill="#B74B3A" stroke="#B74B3A" stroke-width="2"/>
<path id="left-g" d="M9.35156 49.7109L9.86523 49.4248L17.0322 45.4326L18.5186 44.6045V64.8936L26.0742 69.3125V29.6494L1 43.6982V73.6719L42 97.2705V1.70996L11.0859 19.0967L2.59961 34.1504L31.3691 18.2852L32.8516 17.4678V80.7979L31.3408 79.9004L9.84082 67.126L9.35156 66.835V49.7109Z" fill="#B74B3A" stroke="#B74B3A" stroke-width="2"/>
</g>
</svg>
