<svg width="82" height="81" viewBox="0 0 82 81" fill="none" xmlns="http://www.w3.org/2000/svg">
<path d="M54.0785 39.1507C53.049 41.2605 51.9625 43.309 50.854 45.3366C48.7146 49.2501 46.4935 53.0853 44.4432 57.1312L41.9627 62.3484L39.2234 57.1312C39.1304 56.9426 39.0368 56.7541 38.9426 56.5656C37.0476 52.7739 35.0106 49.017 32.9781 45.2538C30.8484 41.3107 28.7237 37.3607 26.7725 33.3567L32.8528 33.4366C32.7804 33.5691 32.7079 33.7015 32.6351 33.8337C28.3924 41.5445 24.0854 49.2693 19.7576 56.9512C15.8139 63.9519 11.8473 70.928 7.85498 77.9045L5.83331 74.535C6.62513 74.5586 7.41707 74.5825 8.20915 74.6065C15.4102 74.8255 22.6239 75.0619 29.8333 75.3094L28.5017 76.0999C29.3218 74.712 30.1422 73.3245 30.9629 71.9376C32.2699 69.7288 33.5786 67.5196 34.8881 65.3107V66.3418C33.3554 63.2756 31.824 60.2083 30.2945 57.1428C29.9585 56.4694 29.6228 55.7966 29.2873 55.1241H30.3793C29.4215 56.7367 28.4643 58.3475 27.5055 59.9612C26.5033 61.6473 25.5012 63.3335 24.499 65.0197C24.3596 65.254 24.1982 65.4634 24.0484 65.6009C23.8984 65.7384 23.7725 65.7933 23.6962 65.7514C23.6199 65.7094 23.5981 65.5729 23.633 65.372C23.6681 65.1712 23.7575 64.922 23.8794 64.6781C24.7644 62.9092 25.6494 61.1403 26.5344 59.3714C27.3664 57.7088 28.1969 56.0486 29.0285 54.3872L29.874 52.9125L30.6382 54.3872C30.8102 54.6777 30.9822 54.9683 31.1543 55.2589C31.006 55.7334 30.9952 56.2796 31.3157 57.1171C31.4793 57.5446 31.7737 58.1373 32.0653 58.5331C32.3271 58.8885 32.5782 59.1268 32.817 59.3529C33.0668 59.5894 33.3038 59.8138 33.5264 60.1476C33.9043 60.7142 34.3461 61.2075 34.8102 61.7255C34.9791 61.914 35.1512 62.106 35.3241 62.3059C35.8901 63.2632 36.456 64.2205 37.0218 65.178L37.3744 65.8652L37.0218 66.4745C36.5804 67.3544 36.1389 68.2342 35.6972 69.1139C35.2763 69.8062 34.893 70.4446 34.6036 71.0058C34.344 71.5092 34.162 72.0006 33.9972 72.4987C33.8515 72.7887 33.7058 73.0787 33.5601 73.3687C32.8383 74.8047 32.1157 76.2408 31.3927 77.6768L30.8421 78.628L29.8333 78.6025C29.3461 78.6185 28.859 78.6345 28.3718 78.6504C26.7378 78.5551 25.0251 78.4625 22.7984 78.4218C21.8388 78.4043 20.8919 78.3528 19.9817 78.3033C18.6372 78.2302 17.3725 78.1615 16.2636 78.2129C15.5225 78.2472 14.7428 78.1967 13.9651 78.1463C12.9221 78.0788 11.881 78.0114 10.9373 78.1489C10.3439 78.2354 9.79883 78.3405 9.29406 78.438C8.49093 78.5932 7.78928 78.7289 7.15379 78.7383C6.69025 78.7451 6.25082 78.7663 5.83331 78.7956L2.50818 78.7202L4.09568 75.8995C4.36451 75.2976 4.59016 74.7343 4.7986 74.2138C5.20845 73.1905 5.55217 72.3322 6.02764 71.671C6.09971 71.5708 6.1849 71.4575 6.281 71.3301C6.7875 70.6586 7.5976 69.5845 8.39374 67.8472C8.67718 67.2287 8.88339 66.6156 9.08516 66.0152C9.37889 65.1411 9.66421 64.2922 10.1673 63.4886C10.2425 63.3685 10.3483 63.2577 10.4448 63.1569C10.5674 63.0287 10.6745 62.9167 10.684 62.8216C10.7119 62.5427 10.8016 62.1242 10.8987 61.6695C10.9701 61.3354 11.0458 60.9813 11.1043 60.6488C12.2053 58.4585 13.3087 56.2691 14.4151 54.0803C14.9219 53.0777 15.4295 52.0749 15.9377 51.0722C16.3499 50.6405 16.7542 50.1898 17.1428 49.6935C17.6509 49.0447 18.1847 48.1369 18.873 46.967C19.3794 46.1063 19.9698 45.1029 20.695 43.9559C22.0374 41.8324 23.2117 39.5423 23.9002 38.0403C24.0458 37.7227 24.191 37.4028 24.3459 37.0605C24.9337 35.7619 25.6667 34.1413 27.1405 31.1065C27.2335 30.9149 27.326 30.7254 27.4177 30.5379L30.0334 25.8655L32.282 30.6019C33.6772 33.1643 34.8161 35.3777 35.686 37.0685C36.1618 37.9933 36.557 38.762 36.8701 39.346C37.3573 40.2549 37.9376 41.3564 38.528 42.4789C38.5866 42.5903 38.6453 42.702 38.704 42.8137C39.7218 44.749 40.7458 46.6965 41.3564 47.7836C41.5737 48.1706 41.8054 48.5749 42.0553 49.0117C42.7478 50.2219 43.5842 51.6839 44.6695 53.7328C44.7669 53.9166 44.8606 54.0946 44.9509 54.2674L38.7157 54.2674C39.6155 52.3837 40.2695 51.1635 40.9796 49.9166C41.2951 49.3625 41.6682 48.921 42.0528 48.4663C42.5987 47.8211 43.1682 47.148 43.6309 46.0836C43.7389 45.8352 43.8389 45.5624 43.9435 45.2771C44.1356 44.7531 44.3432 44.1862 44.6445 43.6501C44.7496 43.4631 44.867 43.3109 44.9822 43.1617C45.1088 42.9975 45.2329 42.8365 45.3359 42.6353C45.3438 42.62 45.3516 42.6047 45.3595 42.5893C45.7354 41.8538 46.0864 41.1316 46.3989 40.4884C46.8104 39.6417 47.1554 38.9317 47.4034 38.5081C47.8454 37.7529 48.2262 36.876 48.6116 35.9877C48.9059 35.3093 49.2031 34.6238 49.5329 33.9811C50.0345 33.0036 50.6039 31.8146 51.202 30.5106L53.9637 25.2505L56.4646 30.5106C57.0658 31.6182 57.7248 32.7967 58.4049 33.9856C58.9552 34.9476 59.2988 35.824 59.7388 36.947C60.0124 37.6455 60.3232 38.4396 60.7448 39.4091C60.9838 39.9587 61.2779 40.3784 61.55 40.767C61.8008 41.125 62.0331 41.4569 62.187 41.8396C62.3228 42.1775 62.3121 42.4395 62.3019 42.6883C62.2905 42.9652 62.2799 43.2258 62.4727 43.5563C62.5752 43.7322 62.7424 43.9248 62.9412 44.1539C63.0198 44.2445 63.1035 44.3414 63.1901 44.4448C63.1641 44.4503 63.1428 44.4591 63.1272 44.4668C63.017 44.5214 63.1333 44.8989 63.2475 45.2692C63.2931 45.417 63.3388 45.5642 63.3691 45.6886C63.4806 46.1466 63.8545 46.9326 64.1562 47.5251C64.2838 47.7758 64.3637 48.0209 64.457 48.3069C64.5397 48.5608 64.633 48.847 64.7795 49.1981C64.8631 49.3983 64.9056 49.563 64.9405 49.6993C64.9657 49.798 64.9872 49.882 65.018 49.9544C65.0447 50.0171 65.1008 50.0505 65.1639 50.0879C65.2093 50.1149 65.2586 50.1442 65.3032 50.1882C65.4098 50.2933 65.5042 50.4497 65.5475 50.571C65.5675 50.627 65.5761 50.6749 65.5846 50.7224C65.5945 50.7778 65.6041 50.8329 65.6322 50.9015C65.761 51.2165 65.9445 51.4936 66.1352 51.7816C66.3448 52.0981 66.5632 52.4283 66.727 52.8355C66.7785 52.9637 66.8212 53.1064 66.8624 53.2445C66.9055 53.3891 66.9475 53.5296 66.9964 53.6424C67.195 54.1005 67.4833 54.4803 67.7484 54.8298C67.9248 55.0622 68.091 55.2816 68.2137 55.501C68.4385 55.9032 68.6435 56.077 68.7947 56.2052C68.873 56.2715 68.9372 56.3256 68.9823 56.3934C69.0128 56.4609 69.0432 56.5297 69.0727 56.5971C69.0959 56.661 69.12 56.7269 69.1515 56.7843C69.1539 56.7886 69.1565 56.7928 69.1589 56.7971C69.3201 57.1768 69.4685 57.5547 69.6158 57.9303C69.9467 58.7739 70.2733 59.6072 70.7355 60.43C70.835 60.6073 70.9666 60.7729 71.1003 60.9414C71.2642 61.1477 71.4318 61.3589 71.5484 61.6011C71.8264 62.1782 72.0512 62.7887 72.2727 63.39C72.6057 64.2943 72.9313 65.1781 73.4183 65.8968C73.579 66.1339 73.7591 66.3537 73.94 66.5739C74.0408 66.6967 74.1422 66.82 74.2402 66.9465C74.1737 66.9426 74.1173 66.951 74.0647 66.9588C73.9563 66.9749 73.8634 66.9885 73.7282 66.8875C73.4087 66.6488 73.0076 66.3977 72.8669 66.5182C72.8287 66.5509 72.7757 66.5664 72.722 66.5812C72.5872 66.6184 72.4495 66.6565 72.5409 66.9809C72.6024 67.1995 72.771 67.756 73.028 68.0352C73.0839 68.096 73.1461 68.119 73.2152 68.1446C73.3394 68.1906 73.4867 68.2456 73.6635 68.5434C73.6933 68.5936 73.725 68.6485 73.7574 68.7054C73.8865 68.9322 74.031 69.1863 74.1448 69.2514C74.276 69.3263 74.3498 69.2594 74.436 69.1814C74.5481 69.0798 74.6813 68.959 74.989 69.1078C75.0499 69.1374 75.1083 69.2225 75.1524 69.2869C75.1835 69.3322 75.2076 69.3667 75.2205 69.3649C75.2354 69.3627 75.2542 69.3339 75.2778 69.2973C75.3613 69.1682 75.5077 68.9435 75.7696 69.4455C75.8405 69.5813 75.909 69.7429 75.9703 69.8879C76.0608 70.1016 76.1359 70.279 76.1813 70.2851C76.1985 70.2873 76.2155 70.2865 76.2324 70.2843C76.3108 70.4512 76.3892 70.6181 76.4675 70.785C76.5329 71.0167 76.6848 71.3118 76.8745 71.6801C76.9206 71.7694 76.969 71.8637 77.0188 71.9619C77.1731 72.2914 77.3275 72.621 77.4816 72.9505C77.5934 73.217 77.7028 73.5054 77.8034 73.8173C78.005 74.4422 78.1113 75.0205 78.215 75.5856C78.2319 75.6773 78.2486 75.7688 78.2657 75.86L79.7775 79.0661L76.3333 78.9867C76.1909 78.946 76.0485 78.9063 75.9049 78.8688C75.996 78.8613 76.0781 78.8524 76.1413 78.8402C76.2119 78.8266 76.2755 78.8108 76.3333 78.7934L79.4692 78.8656L78.0928 75.9465C77.8795 75.721 77.6939 75.6534 77.5208 75.5905C77.3833 75.5405 77.2536 75.4932 77.1246 75.3721C76.8883 75.1503 76.7846 75.2363 76.7079 75.2996C76.668 75.3325 76.6351 75.3588 76.5951 75.3336C76.563 75.3132 76.5211 75.2499 76.4777 75.1846C76.44 75.1277 76.4009 75.069 76.3667 75.036C75.9518 74.6356 75.9252 74.8317 75.8864 75.1168C75.865 75.2741 75.8396 75.4581 75.7437 75.5847C75.6358 75.7061 75.5872 75.7077 75.4061 75.4797C75.4387 75.7116 75.4713 75.9434 75.504 76.1753C75.5473 76.251 75.6184 76.2892 75.7292 76.3376C75.8643 76.3967 76.0411 76.6305 76.2109 76.8874L76.3333 76.6893C76.1919 76.7065 76.0467 76.72 75.9134 76.7325C75.7181 76.7508 75.5482 76.7668 75.4522 76.788C74.942 76.9007 75.0904 77.0576 75.2211 77.1957C75.293 77.2717 75.3593 77.3421 75.3076 77.3961C75.2856 77.4193 75.3171 77.4422 75.3488 77.4657C75.3733 77.4838 75.3984 77.5022 75.3994 77.5211C75.4061 77.6586 75.1043 77.7607 74.8243 77.8555C74.6639 77.9097 74.5109 77.9618 74.4264 78.0167C74.4006 78.0334 74.3802 78.0504 74.361 78.067C74.3329 78.0912 74.3056 78.1142 74.2628 78.134C74.1653 78.1789 73.9646 78.2092 73.7446 78.2423C73.6318 78.2592 73.5141 78.2769 73.4027 78.2977C73.2584 78.3247 73.2064 78.3791 73.1515 78.4359C73.1127 78.4761 73.0721 78.5174 72.9974 78.5515C72.8622 78.6131 72.5891 78.6353 72.3357 78.656C72.2254 78.665 72.1186 78.6739 72.0286 78.6854C71.992 78.6901 71.9744 78.6994 71.9706 78.7123C71.5546 78.7553 71.1573 78.7993 70.7706 78.8424C68.8322 79.0583 67.1542 79.2454 64.6485 79.1098C64.1748 79.0841 63.666 79.0892 63.152 79.1098C61.5075 79.0558 59.8621 79.0001 58.2182 78.943C57.8928 78.8191 57.4948 78.715 57.0235 78.6334C56.1385 78.4801 55.2282 78.4473 54.154 78.4086C54.0487 78.4048 53.9419 78.401 53.8333 78.3969L52.8618 78.3724L52.4544 77.5784C52.1373 76.9421 51.792 76.238 51.4298 75.4179C50.7282 73.8293 49.985 72.2109 49.0808 70.4203C48.3969 69.0659 47.6246 67.5695 46.9598 66.3027L46.7006 65.7976L46.9598 65.3498C47.1828 64.9561 47.3923 64.5839 47.5818 64.2448C48.0118 63.4753 48.5525 62.7156 49.0562 62.0076C49.7648 61.0115 50.4005 60.1177 50.5533 59.4437C50.6021 59.2284 50.6085 58.9981 50.6149 58.7741C50.6195 58.6145 50.6246 58.4575 50.6442 58.3116C50.8338 57.9981 51.0235 57.6842 51.2133 57.3706C51.6353 56.8595 52.2378 56.0363 52.5828 55.111C52.7306 54.8673 52.8784 54.6235 53.0237 54.3846L53.8743 52.9011L54.643 54.3846C54.6829 54.4668 54.7226 54.5485 54.7619 54.6295C55.1112 55.3462 55.4518 56.048 55.7955 56.7561C55.9076 56.9873 56.0209 57.2208 56.1344 57.4549C56.1355 57.4571 56.1365 57.4593 56.1376 57.4616C56.3661 57.9327 56.5963 58.4074 56.8223 58.8745C56.9191 59.0745 57.0159 59.2746 57.1127 59.4746C57.3588 59.983 57.6067 60.495 57.8497 60.9985C57.9782 61.265 58.1082 61.534 58.2383 61.8035C58.4492 62.2408 58.6619 62.6814 58.8731 63.1198C59.2148 63.8288 59.5544 64.5349 59.8944 65.2423C59.9499 65.3581 59.9906 65.4762 60.0061 65.5709C60.0215 65.6656 60.011 65.7295 59.9749 65.749C59.9388 65.7685 59.8791 65.7424 59.8079 65.6778C59.7367 65.6132 59.6599 65.515 59.5929 65.4056C59.1828 64.7357 58.7736 64.0665 58.3632 63.3944C58.1095 62.9789 57.8546 62.5616 57.6017 62.1471C57.4458 61.8915 57.2906 61.6366 57.1364 61.3839C56.8453 60.9066 56.549 60.4199 56.2555 59.9374C56.14 59.7475 56.0245 59.5577 55.9089 59.3679C55.6385 58.9235 55.364 58.4712 55.0916 58.0225C55.0899 58.0198 55.0883 58.0171 55.0866 58.0144C54.9526 57.7936 54.8187 57.5732 54.6863 57.3552C54.2778 56.682 53.873 56.0147 53.4604 55.3322C53.4148 55.2571 53.3688 55.1812 53.3225 55.1049H54.3441C54.1997 55.4007 54.0513 55.7036 53.904 56.0048C53.7997 56.2179 53.6957 56.4307 53.5936 56.6397C53.5377 56.7539 53.4809 56.8695 53.4237 56.9858C52.1163 59.6566 50.8145 62.3067 49.4952 64.9783C49.2678 65.4389 49.0402 65.8996 48.8124 66.3603V65.2922C50.0741 67.3993 51.3337 69.5096 52.5877 71.6162C53.4704 73.0993 54.3508 74.5817 55.2297 76.0645L53.8333 75.2356C55.0768 75.1912 56.3201 75.1475 57.5639 75.1046C63.8129 74.8891 70.0702 74.6864 76.3333 74.4996L74.2523 77.8667C68.2774 66.7577 62.3495 55.5986 56.4995 44.3966C55.2504 42.0052 53.9739 39.5488 52.7305 37.1485C52.0719 35.8767 51.4213 34.6181 50.7711 33.3574L56.8956 33.3574C56.334 34.5166 55.7708 35.6767 55.2003 36.8491C54.8363 37.5974 54.4626 38.3641 54.0785 39.1507ZM43.0954 26.5355C43.7715 27.7347 43.7856 29.2072 44.4015 30.4418C44.4148 30.4686 44.4284 30.4952 44.442 30.5219H39.2246C39.9605 29.007 40.1938 27.2124 41.0493 25.754C41.9155 24.2785 42.8303 22.8181 43.7771 21.3798C44.3685 20.4811 44.9728 19.5899 45.5881 18.7036V20.9488C45.3834 20.3322 45.1825 19.7134 44.9847 19.0926C44.4602 17.4441 43.9572 15.7808 43.4682 14.113C43.1361 12.9802 42.8094 11.8433 42.4858 10.7064C42.3436 10.2074 42.2025 9.7095 42.0611 9.21037C41.9558 8.83792 41.8504 8.46548 41.7451 8.09303C41.7306 8.04119 41.745 7.97738 41.787 7.9146C41.8292 7.85178 41.8951 7.79526 41.973 7.75637C42.051 7.71747 42.136 7.69869 42.2114 7.70288C42.2866 7.70713 42.3458 7.73426 42.3782 7.77716C42.6124 8.08877 42.8466 8.40038 43.0807 8.71199C43.3407 9.05816 43.6005 9.40359 43.86 9.74988C43.5704 9.96964 43.3691 10.1731 43.3392 10.3809C43.3239 10.4869 43.3586 10.613 43.4602 10.6678C43.5515 10.717 43.6752 10.7266 43.793 10.7355C43.9163 10.7449 44.0332 10.7537 44.0997 10.8072C44.2126 10.8979 44.4042 10.9418 44.6055 10.988C44.6787 11.0048 44.7534 11.0219 44.8259 11.0417C45.0726 11.3727 45.3189 11.704 45.5646 12.0356C45.6007 12.193 45.6378 12.3358 45.7056 12.4388C45.7665 12.5312 45.879 12.5874 46.0078 12.635C46.0457 12.6863 46.0836 12.7377 46.1216 12.7891C46.3661 13.1208 46.6096 13.4532 46.8526 13.7859C46.9091 14.112 46.9749 14.4505 47.1317 14.8551C47.1992 15.0294 47.2353 15.2167 47.27 15.3968C47.3212 15.6627 47.3695 15.9129 47.5116 16.0823C47.6066 16.1955 47.6291 16.3534 47.6515 16.5109C47.6816 16.722 47.7116 16.9328 47.9165 17.035C48.0453 17.0993 48.1867 17.1469 48.3177 17.1908C48.5261 17.2608 48.7084 17.3218 48.7719 17.4279C48.8911 17.6271 49.0819 17.756 49.2501 17.8694C49.4525 18.0059 49.6222 18.1204 49.5953 18.3089C49.5912 18.3375 49.5838 18.3715 49.5753 18.41C49.5437 18.5523 49.4988 18.7545 49.5677 18.959L49.965 20.1043L49.5677 20.6934C49.5158 20.7689 49.4758 20.8611 49.4572 20.975C49.435 21.1112 49.4749 21.2695 49.5142 21.4247C49.5714 21.6505 49.6269 21.8698 49.486 22.0045C49.465 22.0247 49.4153 22.0318 49.37 22.0383C49.3123 22.0465 49.262 22.0537 49.2869 22.0853C49.3597 22.178 49.4294 22.3021 49.5054 22.437C49.5612 22.5361 49.6203 22.6411 49.6863 22.7437C49.5267 23.1954 49.3648 23.646 49.2002 24.0955C49.1248 24.3014 49.0488 24.5071 48.9722 24.7125C48.7788 24.7405 48.5984 24.7778 48.4467 24.8366C48.2484 24.9135 48.118 25.0764 47.9496 25.2863C47.8257 25.4408 47.6811 25.6208 47.4742 25.8108C47.0912 26.1627 46.9051 26.6277 46.8509 26.9583C46.8394 27.0282 46.829 27.0991 46.8183 27.175C46.7777 27.4632 46.7273 27.8229 46.5491 28.465C46.3805 29.0723 46.1733 29.5568 46.0176 29.9208C45.9381 30.1067 45.8718 30.2609 45.8312 30.3843C45.7617 30.5953 45.6666 30.8496 45.5711 31.1047C45.4215 31.5041 45.2709 31.9059 45.2164 32.1487C45.1971 32.2352 45.1803 32.3277 45.1619 32.4275C45.1147 32.6841 45.0583 32.9902 44.9286 33.3739L41.0518 39.4847L38.738 33.3739C38.7203 33.348 38.7024 33.3215 38.6844 33.2943C38.4222 32.8978 38.3263 32.6187 38.2661 32.309C38.2417 32.1831 38.3148 32.0247 38.3904 31.8614C38.4978 31.6296 38.6099 31.3878 38.4537 31.2145C38.4173 31.1741 38.3632 31.1385 38.3065 31.1013C38.2025 31.0331 38.0897 30.9594 38.0631 30.8395C38.0538 30.7977 38.0705 30.7484 38.0868 30.7001C38.1048 30.647 38.1224 30.5949 38.1047 30.5547C38.0388 30.4047 37.9592 30.2662 37.8885 30.1433C37.7973 29.9847 37.7209 29.8517 37.7073 29.7523C37.6832 29.575 37.5542 29.4325 37.4233 29.2882C37.3234 29.1781 37.2222 29.0669 37.1663 28.9382C37.0067 28.5704 36.6725 28.1219 36.2722 27.6878C36.1208 27.5236 36.1152 27.3231 36.1082 27.066C36.1038 26.9062 36.0992 26.7243 36.0581 26.5159C36.0349 26.3977 35.9235 26.3435 35.8205 26.2932C35.7256 26.2469 35.6377 26.2039 35.632 26.1176C35.627 26.0414 35.7205 25.9448 35.8093 25.8532C35.9081 25.7512 36.001 25.6552 35.9459 25.6C35.9165 25.5706 35.8384 25.5561 35.7455 25.5388C35.7088 25.5319 35.6698 25.5245 35.6305 25.5157C35.6541 25.5054 35.6748 25.4954 35.6904 25.4876C35.8004 25.4327 35.8245 25.3361 35.8481 25.2414C35.8576 25.2036 35.8667 25.166 35.8814 25.1316C35.9356 25.0049 35.8754 24.8463 35.8133 24.7331C35.7871 24.6852 35.7991 24.6239 35.8131 24.5524C35.8255 24.4889 35.8396 24.4173 35.8298 24.3398C35.8243 24.2957 35.8417 24.2509 35.8564 24.2137C35.867 24.1868 35.8762 24.1639 35.8737 24.1481C35.8715 24.1344 35.8352 24.1407 35.7943 24.1477C35.7649 24.1528 35.733 24.1583 35.7098 24.157C35.6543 24.154 35.6255 24.1289 35.6283 24.0998C35.6296 24.0864 35.6378 24.0721 35.646 24.058C35.6555 24.0415 35.6652 24.0251 35.6638 24.0097C35.6574 23.9394 35.5928 23.9001 35.5257 23.8593C35.4519 23.8145 35.3752 23.7676 35.3691 23.6758C35.3671 23.6469 35.3774 23.6099 35.3874 23.5741C35.3978 23.5367 35.4078 23.5004 35.4032 23.4761C35.3843 23.3774 35.265 23.3354 35.1552 23.2968C35.0822 23.2711 35.0135 23.2468 34.9813 23.2084C34.9224 23.138 34.8066 23.1423 34.7211 23.1456C34.6768 23.1473 34.6404 23.1487 34.6244 23.1392C34.6206 23.125 34.6172 23.1104 34.6143 23.096C34.6153 23.0808 34.6165 23.0651 34.6085 23.0549C34.6079 23.0541 34.6071 23.0535 34.6065 23.0527C34.5936 22.9699 34.591 22.8835 34.5885 22.7976C34.583 22.6046 34.5776 22.414 34.4553 22.2707C34.4289 22.2398 34.372 22.2234 34.3141 22.2067C34.2432 22.1862 34.1707 22.1653 34.1509 22.1169C34.1039 22.0015 34.1121 21.8572 34.1202 21.715C34.1324 21.5012 34.1443 21.2922 33.9675 21.194C33.9091 21.1616 33.8289 21.1416 33.7482 21.1216C33.7032 21.1106 33.6579 21.0994 33.6165 21.0861C33.671 21.0661 33.721 21.0449 33.7677 21.0252C33.8638 20.9845 33.9461 20.9497 34.027 20.942C34.218 20.9238 34.4734 20.8836 34.6303 20.7955C34.6729 20.7716 34.7223 20.749 34.7722 20.7264C34.8973 20.6697 35.025 20.6118 35.053 20.526C35.0718 20.4682 35.1098 20.3249 34.9843 20.3086C34.957 20.305 34.9122 20.3169 34.8625 20.3301C34.8387 20.3364 34.8137 20.343 34.7889 20.3484L34.5497 19.6588L34.7889 19.304C34.7361 19.2583 34.6913 19.2078 34.697 19.1557C34.6983 19.1437 34.7004 19.131 34.7029 19.1181C34.7129 19.0666 34.7243 19.009 34.6687 18.9576C34.6047 18.8983 34.5165 18.86 34.4137 18.8154C34.2798 18.7573 34.1207 18.6882 33.9575 18.5479C33.9253 18.5202 33.9215 18.4961 33.9187 18.4779C33.9166 18.4651 33.9148 18.4552 33.9041 18.4489C33.8917 18.4417 33.8637 18.4314 33.8282 18.4185C33.703 18.3728 33.4843 18.2929 33.5246 18.1903C33.5356 18.1625 33.5606 18.137 33.5831 18.1142C33.6163 18.0806 33.6438 18.0527 33.6122 18.0313C33.6002 18.0232 33.5869 18.015 33.5729 18.0068C33.593 17.9769 33.6131 17.9469 33.6331 17.917C33.694 17.8962 33.7193 17.8368 33.7508 17.7627C33.7584 17.7447 33.7666 17.7259 33.7756 17.7065C33.8155 17.6475 33.8554 17.5886 33.8954 17.5297C33.9376 17.4883 33.9921 17.4489 34.0644 17.4149C34.2094 17.3466 34.4047 17.3218 34.5956 17.2975C34.6761 17.2873 34.7559 17.2773 34.8308 17.2641C34.8296 17.2832 34.8304 17.3014 34.8358 17.3178C34.873 17.4303 35.0049 17.5339 35.1264 17.6293C35.2072 17.6927 35.2833 17.7526 35.3237 17.8088C35.3977 17.9117 35.5176 17.965 35.6063 18.0045C35.6523 18.025 35.69 18.0419 35.7083 18.0599C35.723 18.0743 35.7248 18.0915 35.7266 18.1093C35.7281 18.1248 35.7298 18.1408 35.7401 18.1557C35.8647 18.3359 35.9786 18.3573 36.1443 18.3886C36.2357 18.4059 36.3429 18.4263 36.4764 18.4778C36.6165 18.5348 36.6542 18.558 36.6833 18.6343C36.7692 18.6291 36.855 18.6239 36.9409 18.6187C36.9441 18.6015 36.9082 18.5692 36.8471 18.5185C36.7378 18.4279 36.7395 18.3117 36.7408 18.2209C36.7413 18.1788 36.7418 18.1422 36.7312 18.1161C36.6746 17.9772 36.5214 17.9327 36.3865 17.8936C36.3123 17.8721 36.2436 17.8522 36.1998 17.819C36.181 17.8048 36.1577 17.8 36.134 17.7951C36.1157 17.7912 36.097 17.7873 36.08 17.779C35.9564 17.7187 35.8913 17.6207 35.8308 17.5297C35.7962 17.4776 35.7629 17.4278 35.7212 17.3886C35.7085 17.3767 35.695 17.3655 35.6818 17.3547C35.6626 17.3391 35.6444 17.324 35.6305 17.3078C35.5987 17.2707 35.589 17.2224 35.5785 17.1694C35.5732 17.1423 35.5676 17.1139 35.5586 17.0853C35.547 17.0482 35.5028 17.0149 35.4568 16.9799C35.4242 16.9552 35.3908 16.9297 35.3668 16.9015C35.3234 16.8505 35.3272 16.7932 35.3307 16.74C35.3323 16.7168 35.3335 16.6943 35.3311 16.6735C35.33 16.6651 35.3232 16.6578 35.3121 16.6514C35.3096 16.56 35.3048 16.4714 35.2998 16.3851C35.2749 15.9522 35.253 15.5774 35.5917 15.2033C35.6558 15.1326 35.6953 15.042 35.7215 14.9437C35.9125 14.6825 36.105 14.4219 36.2987 14.1622C36.4378 14.1612 36.5654 14.1386 36.6793 14.0934C36.8932 14.0084 37.0015 13.8651 37.1292 13.6961C37.2237 13.5711 37.329 13.432 37.4954 13.2918C37.775 13.0563 38.0387 12.8029 38.2696 12.4835C38.4994 12.1655 38.7395 11.7899 38.8946 11.5167C38.9791 11.3679 39.1586 11.2568 39.3257 11.1532C39.5608 11.0076 39.7716 10.8768 39.6606 10.6771C39.6251 10.6133 39.5493 10.5309 39.4757 10.4507C39.4233 10.3937 39.3722 10.3377 39.3371 10.2903C39.3834 10.2341 39.4297 10.1778 39.4762 10.1217C39.6451 10.065 39.8533 9.94976 39.8128 9.71749C39.861 9.65969 39.9093 9.60181 39.9565 9.5463C40.0583 9.42448 40.1591 9.30584 40.2606 9.1861C40.2939 9.14709 40.3275 9.10765 40.3611 9.06812C40.3614 9.06775 40.3618 9.06739 40.3621 9.06702C40.4299 8.98746 40.4981 8.90728 40.5657 8.82869C40.5946 8.79501 40.6235 8.76133 40.6524 8.72765C40.7259 8.64204 40.7998 8.55576 40.8731 8.47131C40.912 8.42665 40.951 8.38144 40.9902 8.33624C41.0539 8.26292 41.118 8.18902 41.1821 8.11562C41.2857 7.99692 41.3893 7.87906 41.4934 7.76108C41.5104 7.74182 41.5398 7.7298 41.576 7.72826C41.6123 7.72676 41.6523 7.73571 41.689 7.75408C41.7257 7.77247 41.7569 7.79925 41.7774 7.82915C41.7977 7.859 41.8053 7.88948 41.8 7.91461C41.767 8.06825 41.7337 8.22151 41.6998 8.37519C41.6789 8.47016 41.658 8.56562 41.6369 8.66027C41.6239 8.71863 41.6108 8.77671 41.598 8.83444C41.5737 8.94341 41.5485 9.05422 41.5233 9.16401C41.5135 9.20722 41.5036 9.25044 41.4938 9.29366C41.4708 9.39484 41.4467 9.49743 41.423 9.59929C41.4228 9.5999 41.4227 9.60052 41.4226 9.60113C41.4109 9.65124 41.3992 9.70129 41.3878 9.75082C41.3519 9.90347 41.3163 10.0548 41.2789 10.2089C41.2603 10.2888 41.2398 10.3716 41.2198 10.4539C41.2086 10.4998 41.1976 10.5456 41.1868 10.5906C41.1807 10.6151 41.1745 10.6399 41.1682 10.6648C41.0278 11.2389 40.8847 11.8071 40.7347 12.3778C40.5856 12.9465 40.4316 13.5139 40.2743 14.0777C40.1163 14.6428 39.9545 15.2048 39.7886 15.7653C39.2707 17.5158 38.7258 19.2568 38.146 20.9826V18.6699C39.2119 20.2173 40.2423 21.7849 41.227 23.3757C41.5038 23.8223 41.7825 24.2833 42.0516 24.735C42.3232 25.1918 42.5861 25.6408 42.85 26.1029C42.9304 26.2432 43.0121 26.3873 43.0954 26.5355Z" fill="#B74B3A"/>
</svg>
