<svg width="82" height="81" viewBox="0 0 82 81" fill="none" xmlns="http://www.w3.org/2000/svg">
<path d="M29.7063 39.3817C24.4437 49.2873 18.7601 60.1735 13.3366 70.0441C12.6709 71.2558 12.5079 71.0619 12.298 71.3895C11.7235 72.2848 11.6677 72.9786 11.286 73.651C10.3823 75.244 9.51789 76.7927 8.65925 78.3334L5.83331 73.6235C7.68887 73.6578 9.53368 73.6905 11.4235 73.7361C15.2205 73.8276 13.4244 74.5583 14.7437 74.7363C17.3214 75.0849 15.1288 74.1321 16.142 73.9181C19.0971 73.9753 22.0784 74.0785 25.0388 74.183C24.3161 74.272 23.5932 74.3591 22.8626 74.4415C24.1528 74.4611 25.9995 74.6082 23.8388 74.8572C24.3164 74.9258 24.7622 75.006 25.253 75.073C25.3875 74.726 27.672 74.6981 27.8808 74.4923C28.0893 74.2866 26.8049 74.3339 26.8128 74.3159C26.8581 74.1795 28.3705 74.2149 29.8333 74.2821L27.5999 75.608C28.268 74.5066 28.9395 73.4506 29.0364 73.3009C29.5842 72.4555 29.5401 73.4346 29.925 72.6711C30.5872 71.3582 29.3499 71.7987 31.3241 70.6093C31.3713 69.7334 31.5767 69.7668 32.0796 68.8995C32.1456 68.7853 31.9044 68.7703 31.9272 68.7166C32.511 67.3071 32.3099 68.5257 32.3331 68.5293C32.7278 68.5877 33.3612 67.0789 33.557 66.795C33.9399 66.2388 34.3063 65.7055 34.6606 65.1866V66.4659C33.3388 63.3358 32.1784 60.7293 30.4202 57.3232C30.1948 56.8869 29.6907 56.0306 29.1932 55.1754H30.4735C30.024 56.0564 29.5719 56.9313 29.3165 57.3329C28.8128 58.1253 28.8165 57.5548 28.468 57.9232C28.6616 58.924 28.3654 59.6165 27.145 60.9607C27.2462 61.7642 26.9513 61.5071 26.4318 62.6574C25.999 63.6146 25.6235 65.4894 24.6463 66.2697C25.3181 65.1303 25.0483 65.1391 25.6376 63.7653C25.834 63.3082 28.2989 58.7684 27.69 58.874C27.3724 58.9293 26.756 60.5433 26.6835 60.5791C26.261 60.7875 26.4262 59.789 26.9343 59.1014C26.8812 59.3129 26.8081 59.5627 26.7475 59.7881C27.956 58.2803 26.1869 58.8056 27.8778 58.0809C28.0859 57.9908 28.1804 58.1212 28.4517 57.9335C28.4268 57.851 28.1208 58.0947 28.2456 57.8091C28.3731 57.5178 28.9145 57.128 28.7439 56.9328C28.4976 56.6458 27.9916 57.8646 27.9261 57.9414C27.9275 57.9433 27.9289 57.9453 27.9303 57.9472C27.3473 58.6238 28.2017 57.0127 28.214 56.9203C28.2906 56.3196 27.9575 56.576 28.203 55.7458C28.301 55.4146 28.6447 54.8014 28.9068 54.3208L29.8802 52.6232L30.7599 54.3208C30.8726 54.5276 30.9729 54.7083 31.0471 54.8233C31.2932 55.2028 31.1041 54.5068 31.281 54.7559C31.4578 55.0051 31.5271 55.3976 31.7342 55.6904C31.8233 55.8154 31.9834 55.7193 32.0245 55.7809C32.4665 56.4413 31.8772 56.1714 32.2416 56.7901C32.478 57.1907 33.5429 58.3874 33.1225 57.3915C33.403 57.8274 33.6686 58.2569 33.9407 58.6944C33.8341 58.383 33.7067 58.0706 33.6124 57.7615C33.9979 58.6538 34.4879 58.8854 34.7993 59.4066C35.1107 59.928 35.0348 60.5891 35.5185 61.0856C36.5499 62.146 34.6991 59.1367 34.5518 58.7181C34.4945 58.5549 35.0719 58.9866 35.1278 59.0711C35.3755 59.4468 35.441 60.0152 35.615 60.3141C36.2391 61.3832 36.8506 61.9128 37.4656 62.9207C37.7639 63.4098 38.0709 63.9164 38.3835 64.4352L39.1402 65.9099L38.3835 67.2173C36.7768 70.49 34.9084 74.1733 33.3928 77.0631C33.1197 77.5836 32.8416 77.9906 32.5884 78.329L31.6158 80.0096L29.8333 79.9645C29.243 79.8795 28.7966 79.7726 28.4244 79.7778C26.9366 79.7991 26.7543 80.0767 25.4567 80.0914C23.5252 80.1143 20.8042 79.872 19.192 79.8197C18.076 79.7838 17.0656 80.0524 16.7753 80.059C13.2529 80.1431 9.06463 80.1491 5.83331 80.1515L0.218727 80.0242L2.89926 75.2614C3.12001 74.8468 3.3313 74.45 3.53061 74.0754C4.26907 72.6874 4.88685 72.1705 5.0318 71.8799C5.65545 70.6308 5.25162 70.8395 5.80707 69.8534C6.10695 69.3206 6.37937 69.3363 6.42639 69.2687C6.83742 68.6715 6.61944 68.3927 6.87456 67.8918C8.3415 65.0112 9.99346 62.3638 11.5269 59.5545C11.6383 59.3508 11.7551 59.4364 11.8194 59.3003C12.0923 58.7138 11.7518 58.8725 12.055 58.2693C12.6846 57.0142 13.3958 55.7599 14.1213 54.4603C14.1932 54.3315 14.3869 54.3597 14.5457 54.0622C14.7046 53.7643 14.671 53.4561 14.9291 52.9929C15.6033 51.7825 16.431 50.6746 17.1314 49.3855C17.2471 49.1721 17.1928 48.8023 17.3663 48.4822C17.9104 47.4775 18.8843 46.0798 19.3514 45.2195C20.8914 42.3806 22.182 39.6922 23.6122 37.0071C23.9487 36.3764 24.4283 35.9142 24.6076 35.5883C25.0115 34.8535 24.5424 35.3202 24.9414 34.5703C25.6806 33.1819 26.4247 31.7945 27.1718 30.4068L30.0537 25.2589L32.5312 30.4773C34.5084 34.4707 36.4738 38.4852 38.4772 42.5043C38.8913 43.3349 39.307 44.1657 39.7247 44.9966C40.9629 47.4603 42.6437 50.3723 43.7858 52.7807C44.2074 53.671 44.1356 54.007 44.3588 54.5635H39.3078C39.3468 54.4993 39.3857 54.4294 39.425 54.3515C40.053 53.1026 39.8583 52.7218 40.4871 51.3876C40.9892 50.323 41.8999 49.2705 42.4284 48.166C42.957 47.0614 42.9109 46.4068 43.5041 45.131C43.8785 44.3263 44.47 43.329 44.9699 42.3945C45.1227 42.1089 45.2669 41.8292 45.3938 41.5626C47.1891 37.7899 48.9844 34.0429 50.8017 30.3104L53.9836 24.2502L56.8649 30.3104C60.2137 36.8351 63.4852 43.3878 66.6565 50.1037C68.4089 53.8148 70.4876 57.8649 72.0903 61.8043C72.2406 62.1744 71.6797 61.7738 72.3114 62.8856C72.651 63.4827 73.3279 64.2151 74.0495 65.6271C75.6909 68.8401 77.285 72.1797 78.8737 75.5561L80.861 79.7707L76.3333 79.6664C70.3158 79.5229 64.2191 79.3241 58.3015 79.3967C56.8166 79.415 55.3261 79.456 53.8333 79.511L52.1727 79.469L51.4763 78.1119C49.3385 74.5144 47.095 70.9535 44.9457 67.4013L44.089 65.7315L44.9457 64.2512C46.8172 60.4219 48.7348 56.6811 50.8411 53.1941L53.9848 47.7116L56.8255 53.1941C58.69 57.0022 60.2126 60.8333 61.1494 64.7216C61.2977 65.3379 60.4293 65.4335 60.0521 65.2215C60.0332 64.8442 60.0537 64.4747 60.0458 64.0733C58.9446 64.1631 59.2133 64.1067 58.4969 62.604C58.0563 61.6787 58.0686 62.6031 57.6997 62.1829C57.222 61.638 55.1943 58.9621 56.0871 59.2024C55.8868 59.0772 55.6983 58.9637 55.5027 58.842C54.7493 57.5892 53.9865 56.3703 53.2136 55.1643L54.4531 55.1643C54.0685 56.0055 53.6907 56.8475 53.3151 57.6933C53.1501 58.0659 53.3253 58.1828 53.1539 58.5671C52.6947 59.5999 52.1453 60.3191 51.6081 61.3484C51.3161 61.9075 51.4871 62.1004 51.078 62.8181C50.6691 63.5352 50.3904 63.3626 50.1635 64.5215C50.663 64.2076 49.9113 65.4587 49.2336 66.5901V65.0624C49.4819 65.5646 49.7191 66.0439 49.8919 66.3448C49.9756 66.4915 50.9628 67.5308 51.2781 68.1974C51.5953 68.8659 51.9253 69.9632 52.5898 70.902C52.9015 71.3422 53.3094 71.4899 53.6004 71.9893C53.805 72.3406 53.8145 72.8914 54.0515 73.3481C54.2885 73.8047 55.0055 74.6813 55.1061 74.8586C55.4708 75.4981 54.9243 74.8713 55.1574 75.3175C55.2627 75.5186 55.3693 75.7229 55.4769 75.9297L53.8333 74.954C56.0966 74.9983 58.6201 75.0672 60.7922 74.9576C61.0867 74.943 60.6792 74.7314 60.7183 74.7243C62.7178 74.4647 61.6506 74.7404 62.1905 74.9298C62.7135 75.113 66.541 75.0131 66.5692 74.6453C66.6868 75.1059 67.5376 74.7541 67.7586 74.7406C68.6186 74.6884 68.45 75.0868 69.2836 74.9636C69.5895 74.9187 68.9939 74.6494 69.3227 74.6573C70.1353 74.6769 70.8667 75.1096 71.9484 75.1529C72.2096 75.1635 72.2945 74.9707 72.7589 74.9773C73.2239 74.9839 75.1727 75.2197 74.2734 74.8132C75.2072 75.0706 75.5518 75.013 76.3333 74.9819L74.6837 77.651C74.5835 77.469 74.4711 77.2586 74.3437 76.9996C74.1905 76.687 74.2678 76.147 73.8502 75.5273C73.7089 75.3177 73.4444 75.4582 73.2735 75.1218C72.8819 74.3531 72.7956 73.4875 72.3169 72.5028C71.4224 70.6608 70.2528 68.8087 69.3676 66.8648C69.1271 66.3364 69.4612 66.3313 69.089 65.574C69.0336 65.4631 68.3462 64.6705 68.1073 64.138C67.9635 63.8176 67.314 62.1094 67.1631 61.7748C66.913 61.2218 66.6042 61.2551 66.5065 60.9326C66.2238 60.0001 66.9517 60.4976 65.9105 59.7262C66.0312 59.241 65.7001 58.6514 65.9612 58.279C65.3932 58.1234 65.542 57.4791 65.0697 56.8628C64.5972 56.2465 63.558 56.067 64.2927 55.4932C64.0341 55.2243 63.1859 53.9517 63.059 53.7289C62.6866 53.0718 63.0931 53.3195 62.8079 52.8256C62.758 52.7385 62.6504 52.9097 62.3779 52.3267C62.1994 51.944 60.8255 49.1726 60.7641 48.9968C60.0636 46.9909 61.431 49.9473 61.8021 50.2713C61.7941 50.3652 61.7857 50.4584 61.7806 50.557C62.1241 51.4264 62.2362 50.7775 62.1285 50.3594C62.0207 49.9413 61.5124 49.3135 61.4701 48.9423C61.4495 48.7571 61.9166 48.6447 62.1025 49.1429C61.9785 48.5724 62.4602 49.1954 62.4813 48.9346C62.5042 48.6482 61.408 46.3537 61.1713 46.4569C61.3756 46.8857 61.6479 47.4104 61.8532 47.8446C61.7331 48.6068 59.5107 47.5853 59.2754 45.7471C59.1037 44.4142 60.354 46.1279 58.6791 43.6087C58.8695 44.0297 59.0067 44.3977 59.1775 44.7813C58.8968 44.9716 58.9231 44.1976 58.6705 43.9316C58.5483 43.8042 58.8 44.8398 58.3258 44.0685C58.4089 43.1598 57.7094 42.8422 57.1226 41.6813C57.361 41.9663 57.5991 42.2519 57.8375 42.5369C57.1664 40.4151 59.5523 44.9298 57.8155 41.0198C58.0594 41.4729 58.2845 41.9324 58.5369 42.3842C58.5826 42.0812 59.2251 42.2083 59.2227 41.9587C59.2164 41.3041 58.6723 40.6031 58.374 39.95C58.2431 39.6644 58.4552 39.7761 58.4442 39.7521C58.2657 39.3606 58.1249 39.5372 57.9445 39.2055C57.7175 38.7881 57.2824 37.4725 57.1627 37.2837C56.8536 36.7952 56.9202 37.8327 56.8684 37.7967C56.5292 37.5562 56.3395 36.8136 56.1279 36.9634C57.0917 38.4966 59.2121 43.2438 56.7316 39.2303C56.9407 40.5742 56.2629 40.4948 55.3896 38.8487C54.6669 37.4873 55.3161 38.2744 55.1823 37.4444C55.1641 37.3376 54.3487 35.4379 54.1424 35.4228C54.5456 35.3137 54.5696 34.5508 55.149 34.7649C55.234 34.7962 55.5909 35.5647 55.7626 35.1484C55.8491 34.94 55.9917 34.3946 56.2165 34.3586C56.0035 34.2704 55.7701 34.1836 55.5502 34.0959C54.9431 32.9805 55.008 32.7464 54.9496 31.9997C54.8586 32.0807 54.7035 32.8751 54.4024 31.9371C54.3908 31.8975 54.4805 31.8123 54.4383 31.5238L53.8633 30.3144L53.2284 31.5238C53.1808 31.5717 53.1287 31.6318 53.0723 31.7075C52.4674 32.523 52.325 32.6852 52.2024 31.7658C51.5421 33.7508 50.8234 33.8903 50.0255 35.8655C50.8131 35.7873 50.9987 35.0454 51.753 33.2485C51.9332 33.2442 52.0918 33.2792 52.2746 33.2733C50.7944 35.4269 51.3992 34.2994 51.0326 35.7555C50.9429 36.1119 50.0114 37.7854 50.7001 37.4158C50.8624 37.3284 51.3831 36.2598 51.4717 36.4565C51.4884 36.4943 50.9145 37.8231 50.8189 37.9177C49.6269 39.1094 50.5724 36.3875 48.777 40.4129C48.7278 40.5239 48.8831 40.6492 48.8013 40.8734C48.6472 41.2948 48.4427 41.1989 48.3113 41.5783C48.1799 41.958 48.2046 42.5875 47.6857 42.9976C46.7388 43.7484 47.631 41.3067 48.3879 40.3989C48.2079 40.067 47.3196 41.4653 46.4003 43.1097C45.3352 45.0148 44.2287 47.2502 44.1339 47.5084C43.3621 49.6088 44.8885 46.2346 45.1395 46.1469C45.245 46.1111 46.116 46.5907 45.9582 45.4648C45.9112 45.1316 45.1682 46.0547 45.3829 45.3896C45.5979 44.7241 45.7371 45.1 45.7777 45.0643C45.9172 44.9418 46.149 44.2356 46.2288 44.1689C47.448 43.1382 48.2387 43.684 46.1121 44.7949C46.0174 45.6945 47.3397 44.182 47.0617 45.2201C46.7238 46.4818 45.9008 47.1146 45.8106 47.2494C44.7321 48.866 46.3181 47.1731 45.0758 49.1852C44.3841 50.3056 45.5597 47.233 44.2592 49.9309C43.171 52.1894 43.9824 51.0816 44.3691 51.4785C44.4594 51.5717 43.9795 52.8673 44.7677 51.1704C44.6693 51.0622 44.5532 50.8927 44.4939 50.7302C44.7881 50.3644 45.7404 49.9855 45.8706 49.7785C46.5043 48.765 46.1618 48.658 46.8487 48.2169C46.2164 48.461 46.8272 47.8545 46.8779 47.5376C47.0685 46.3623 46.284 47.6361 47.833 45.5586C47.493 45.7603 47.1707 45.9353 46.8361 46.128C46.9664 45.851 47.0966 45.5737 47.2268 45.2968C47.8524 45.0992 48.5255 43.6182 48.2914 45.1471C48.4817 44.8294 48.6421 44.5482 48.7756 44.2974C49.2821 43.3455 49.3996 42.8314 49.2774 42.4271C49.2478 42.3299 49.3417 42.0795 49.4754 41.7969C49.3568 41.8037 49.0382 41.7289 49.0253 41.6674C48.9151 41.1198 49.7513 40.7742 49.8497 41.0838C49.9572 40.8931 50.0459 40.744 50.0782 40.6918C50.2828 40.3611 50.1265 41.1318 50.3296 40.8825C50.3963 40.8001 50.8445 39.8042 50.9284 39.8225C51.4646 39.9436 50.3171 41.3775 52.2072 38.2909C51.8116 37.9957 51.1581 39.5416 50.8889 38.9261C50.5995 38.2652 51.6859 37.7553 51.1696 37.267C51.3038 37.2486 51.4023 37.2601 51.5457 37.2581C51.9331 35.8206 52.4484 36.0567 52.7596 35.714C53.365 35.0491 55.1116 31.4738 53.0749 34.4499C53.2648 33.9607 53.4831 33.4734 53.6768 32.9891C54.4447 33.2671 54.2783 33.3884 54.8214 32.3203L52.8452 32.3203C52.9784 32.5913 53.1451 32.9438 53.3426 33.4086C53.5585 33.9171 53.2393 34.2774 53.9556 34.5239C53.4573 34.6909 54.4679 36.0091 54.4795 36.1734C54.5487 37.2303 52.4163 34.2438 53.0314 33.4167C52.5125 33.0786 52.7708 32.8757 52.6033 32.4412H55.0633C55.0275 32.4983 54.9932 32.5655 54.9617 32.6463C54.6014 33.5695 54.6226 33.7333 53.7861 34.6249C53.7108 35.8764 55.9986 30.6843 55.0465 34.0492C54.6133 35.58 52.5935 40.1502 50.3318 45.0755C48.3072 49.4844 46.0887 54.1778 44.6408 57.23L41.9725 62.8423L39.0258 57.23C38.4923 56.2162 38.0567 55.3865 37.7564 54.8161C35.7614 51.0268 34.2402 48.1499 32.787 45.3494C31.3698 42.6183 30.0173 39.9599 28.353 36.5988C28.1754 36.2407 27.3606 34.6397 26.796 33.3449L32.8296 33.4243C32.1919 34.4822 31.6343 35.2485 31.6582 34.6397C31.6656 34.4523 32.6197 32.2036 31.2435 33.8348C31.6759 33.5844 31.2496 34.7477 31.2256 34.8515C30.6706 37.2318 31.4501 36.0983 29.7063 39.3817ZM20.0421 46.7181C22.44 42.4979 20.4269 45.4642 20.1432 44.1706C19.848 44.7189 19.554 45.2653 19.2588 45.8135C19.3833 45.6946 19.5067 45.5774 19.6312 45.4584C19.6315 45.4578 19.6319 45.4572 19.6322 45.4565C19.7691 45.8764 19.9051 46.2982 20.0421 46.7181ZM33.2032 56.3966C33.3932 56.5086 33.5823 56.6186 33.7776 56.7457C34.0538 57.3253 34.3293 57.9024 34.6055 58.482C34.5015 58.4516 34.3979 58.4239 34.2939 58.3935C33.9336 57.7262 33.5748 57.0608 33.2032 56.3966ZM48.5802 39.7364C49.2673 39.0651 48.7289 38.8875 49.4968 37.9233C49.0605 37.8703 48.6249 37.836 48.1887 37.7919C47.833 38.6402 47.8805 38.8972 47.3441 39.7437C47.5151 39.6994 47.6879 39.653 47.8583 39.6114C47.9071 39.4502 47.957 39.2776 48.0063 39.1226C48.4537 39.0602 47.7909 40.51 48.5796 39.7396C48.5798 39.7385 48.58 39.7374 48.5802 39.7364ZM52.5907 31.3428C52.6094 31.3138 52.632 31.2788 52.6578 31.2385L53.8916 28.8887L55.0088 31.2385C55.2298 31.8307 55.8384 33.4144 56.0907 33.5625C57.0108 34.1026 54.2407 29.3875 56.5014 32.7531C56.5661 32.7001 56.6458 32.6808 56.7181 32.6447C56.4404 32.0307 56.1605 31.4198 55.8767 30.8045L53.9346 26.7198L51.7899 30.8045C51.7612 30.8577 51.7325 30.911 51.7038 30.9643C52.0092 31.0727 52.2815 31.2384 52.5907 31.3428ZM28.2691 31.2162C28.2967 31.1711 28.3295 31.1129 28.3664 31.0439L29.9548 28.2066L31.3203 31.0828C31.7811 32.0067 33.362 34.5862 33.1835 33.4638C33.1265 33.1088 31.9413 31.9162 31.6904 31.3632C31.557 31.0693 31.8396 31.1949 31.7012 30.8923L29.9859 27.2794L27.9907 30.8435C27.9542 30.9065 27.9127 30.9977 27.8641 31.1294C27.9925 31.1591 28.127 31.2068 28.2693 31.214C28.2692 31.2147 28.2691 31.2155 28.2691 31.2162ZM29.0897 33.2483C29.3088 32.7626 29.5245 32.2695 29.7413 31.7772L29.8409 31.5993L29.9266 31.7796C30.0533 31.9916 30.1797 32.2037 30.305 32.4157C30.3189 32.1841 30.242 31.9211 30.1535 31.6661L29.8595 31.0468L29.5174 31.6578C29.2297 32.0612 28.9864 32.481 28.7018 32.3776C28.7714 32.1726 28.84 31.9698 28.9096 31.7648C29.0397 31.6891 29.1692 31.6149 29.2984 31.5409L29.8776 30.5063L30.3755 31.5551C30.3715 31.5963 30.3675 31.6374 30.3634 31.6786C30.8881 32.1655 30.8183 31.7466 31.3115 32.8954C31.5166 32.1927 31.7141 31.8414 31.2393 31.1232L29.9482 28.4038L28.4463 31.0865C28.3201 31.4124 28.2087 31.8637 28.0987 32.5045C27.9536 31.9696 26.6832 31.7227 26.9058 33.184C26.9463 33.4568 27.4787 32.6917 27.5067 32.6947C27.8603 32.722 27.8016 33.2727 28.1443 33.2823C28.2991 33.2871 28.5629 32.7879 28.7727 32.8041C28.8739 32.814 28.8579 33.414 29.0897 33.2483ZM26.9085 33.8372C26.8478 33.5328 26.0497 34.037 25.7979 34.7102C25.4049 35.7595 26.6212 34.4227 26.9085 33.8372ZM33.2008 56.3931C33.2016 56.3943 33.2024 56.3954 33.2032 56.3966C33.2025 56.3962 33.2018 56.3958 33.2011 56.3954C33.201 56.3946 33.2009 56.3939 33.2008 56.3931ZM51.2613 33.4923C51.3689 32.9031 51.7714 32.1526 51.5054 32.0899C51.6772 31.8631 51.8497 31.6331 52.0215 31.4064C51.9488 31.373 51.8748 31.3418 51.8028 31.3088C51.3819 32.0393 50.9619 32.7674 50.5403 33.4976C50.7788 33.4988 51.0146 33.5076 51.2613 33.4923ZM57.9775 37.0533C58.4265 38.0116 58.3536 37.0564 58.6137 37.186C58.8738 37.3155 59.1682 38.222 59.3428 38.0108C59.0731 37.4494 58.7914 36.8641 58.5174 36.296C58.3479 36.5667 58.1513 36.7947 57.9785 37.0552C57.9781 37.0546 57.9778 37.0539 57.9775 37.0533ZM10.4716 64.0571C10.8785 63.4608 10.9843 63.8492 11.3658 62.4468C11.3653 62.4478 11.3648 62.4487 11.3643 62.4496C10.5303 63.5328 9.5357 64.9694 9.02851 66.3853C9.71384 65.7193 9.83221 64.9958 10.4716 64.0571ZM46.7291 41.6167C46.7893 41.9856 47.5839 40.8051 47.5412 40.4357C47.4722 39.838 46.6384 41.0551 46.7291 41.6167ZM21.3693 76.8046C22.4609 76.131 20.3924 75.3749 18.2264 75.7015C18.039 75.73 19.4374 75.9443 19.0232 76.0757C18.9813 76.0887 18.2137 76.0726 18.0238 76.1663C17.8338 76.2602 18.0333 76.4782 17.7219 76.5696C17.1756 76.7295 15.9409 76.4333 15.532 76.6431C15.4782 76.6712 16.2439 76.9627 16.2919 76.9738C17.0781 77.1502 17.8358 76.7691 17.9573 76.7666C18.5826 76.7535 18.4881 77.0523 18.6464 77.1225C18.9446 77.2545 19.4696 77.1225 19.5065 77.1323C20.4556 77.3943 18.287 77.3193 17.9942 77.4271C17.2054 77.7178 17.9357 77.988 16.0439 78.1521C15.8643 78.1676 13.7138 78.15 16.4238 78.4845C11.1026 79.1818 19.0975 78.8812 19.9656 78.7276C20.3658 78.6565 19.7599 78.3717 20.0026 78.2436C20.5567 77.9505 21.5012 77.8988 21.4167 77.4856C21.2346 76.617 19.9941 77.1862 19.1393 77.04C19.229 76.8514 19.2633 76.6674 19.4295 76.4829C19.1735 76.7311 21.2901 76.8553 21.3693 76.8063C21.3693 76.8057 21.3693 76.8052 21.3693 76.8046ZM7.89859 77.7971C6.75691 77.5467 6.78289 78.0358 5.83331 77.8069L4.1775 77.7694L4.96802 76.3647C4.99848 76.3305 5.03136 76.295 5.06688 76.2583C5.07692 75.714 4.86313 75.871 4.6315 76.1853L3.53353 78.1362L5.83331 78.1883C6.2161 78.2443 6.74337 78.243 6.85378 78.2568C7.86686 78.3809 7.84356 78.9163 8.88008 78.7516C8.52392 78.4348 8.23364 78.1147 7.89859 77.7971ZM18.295 78.0231C17.4956 78.3007 18.9261 78.296 18.9841 78.3491C19.6158 78.9122 15.3323 78.8028 18.295 78.0231ZM32.3317 35.5616C32.4966 35.9333 32.6191 35.5839 32.8495 35.8691C33.0807 36.1546 33.4258 37.3533 33.56 37.2519C33.6941 37.1495 33.0734 34.9469 34.1656 36.9231C34.2146 36.8132 34.2882 36.8052 34.3469 36.7345C34.0718 36.1788 33.7956 35.6173 33.5205 35.0616C33.4332 35.4858 33.3372 35.9238 33.252 36.3322C32.9056 36.1159 33.0626 35.8186 33.0543 35.8021C33.0541 35.8022 33.0538 35.8024 33.0535 35.8025C32.7442 35.2317 31.9612 34.7272 32.3317 35.5616ZM15.6496 55.4488C16.1797 55.869 15.9746 54.6742 16.0868 54.2885C16.1993 53.903 16.6709 53.5423 16.3227 53.5866C15.8491 54.0547 15.5903 55.4022 15.6504 55.4492C15.6501 55.449 15.6499 55.4489 15.6496 55.4488ZM7.05947 72.4614C7.38842 71.5013 7.1609 71.5603 7.91188 70.5717C7.74759 70.5379 7.58021 70.5024 7.41809 70.4698C6.95705 71.3273 7.4013 71.4866 6.70558 72.3922C6.5913 72.5406 6.44826 72.0162 6.16187 72.8079C6.45166 72.6876 6.76227 72.5748 7.05947 72.4614ZM8.8699 67.7994C8.35021 68.826 9.06937 70.2436 9.54841 68.0979C9.61875 67.7795 9.26048 67.0272 8.8699 67.7994ZM26.4689 37.0056C27.4229 35.2966 26.1914 37.1594 25.7751 37.5148C27.7778 33.4197 25.5814 37.9943 24.7805 38.0823C24.6857 38.6627 24.5777 39.7858 25.2247 38.8192C25.4945 38.4158 25.2367 38.4781 25.2511 38.4529C25.7127 37.6914 25.948 37.9389 26.4689 37.0056ZM9.97555 77.7651C9.90167 77.7749 10.0173 77.9996 9.78242 78.0445C9.54732 78.0891 9.01513 77.9318 8.9624 78.0697C8.90988 78.2084 9.97735 78.316 10.3048 78.2149C10.632 78.1129 10.6431 77.6785 9.97555 77.7651ZM7.07832 73.6735C7.39574 72.7347 5.91294 73.7558 5.81628 73.9453C4.97534 75.614 6.87312 73.5012 7.07832 73.6735ZM25.571 41.6771C26.31 39.3978 24.8532 40.5765 23.7717 41.6743C23.7584 41.8884 23.7428 42.1069 23.7299 42.3182C23.6702 41.2816 23.9299 39.6593 22.719 42.9309C23.7216 41.3214 23.1042 42.7876 23.1253 42.8127C23.9034 43.4639 24.8153 40.7741 25.57 41.6789C25.5704 41.6783 25.5707 41.6777 25.571 41.6771ZM13.1554 78.0018C14.1821 77.9984 16.8512 77.8269 15.6059 77.3942C14.7881 77.5967 13.9732 77.7993 13.1554 78.0018ZM43.0506 55.218C43.6471 54.5782 43.9892 53.8845 44.4372 52.952C43.6986 53.624 43.9354 53.0581 43.9969 52.7378C44.0912 52.2524 43.5849 53.2892 43.5618 53.2813C43.2652 53.1094 43.5467 52.4276 42.8049 53.9294C42.8835 53.5057 42.9589 53.0865 43.0382 52.6632C42.4534 53.7982 42.1193 53.9673 41.5132 54.5697C42.3912 54.1941 41.7378 54.8014 41.5388 55.679H42.1278C42.0816 55.6247 42.0324 55.5716 41.9798 55.5209C41.8206 55.3674 41.7104 55.5888 41.6442 55.9208L41.8427 56.2989L42.0225 55.9208C42.4039 55.7382 42.8823 55.3973 43.052 55.2152C43.0515 55.2161 43.051 55.2171 43.0506 55.218ZM26.8363 39.5889C26.8446 39.3183 26.8059 39.0458 26.7953 38.7741C26.9042 38.5421 27.0148 38.3105 27.1237 38.0785C27.2322 38.1005 27.3426 38.1294 27.45 38.1449C27.636 37.8618 27.4438 37.9083 27.4787 37.8133C27.4792 37.8136 27.4797 37.8138 27.4802 37.8141C27.9838 36.4536 28.2803 35.9445 29.0997 35.1052C28.8129 34.9522 28.526 34.7992 28.2391 34.6462C28.1473 34.8841 28.0537 35.124 27.9612 35.3615C28.052 35.5625 28.1427 35.764 28.2335 35.9649C28.0107 36.178 27.7897 36.389 27.5669 36.6021C27.5119 36.8387 27.4375 37.1186 27.3959 37.3266C26.044 37.9302 27.8388 35.877 27.5171 35.6785C27.3106 35.5505 26.061 37.9159 26.0274 38.3346C26.0229 38.3951 26.8921 38.2034 26.1205 38.901C25.9994 39.0099 24.6823 38.3684 25.2317 39.8575C25.3093 40.0693 26.3589 40.0339 26.8363 39.5889ZM29.1591 33.7887C29.3242 32.0247 30.9208 37.4324 30.539 34.9453C31.2294 35.3641 31.1677 35.2532 31.2014 34.4666C31.205 34.3971 31.5234 34.7696 31.5188 34.7268C31.4193 34.0567 30.9725 33.4129 31.3127 33.2369C31.2166 33.0904 31.1271 32.952 31.031 32.8055C31.0326 33.6154 30.3 32.6925 29.8282 32.4299C29.614 32.31 29.7847 32.7465 29.6003 32.6477C29.5489 32.6197 29.414 32.2545 29.2972 32.0943L30.3621 32.1083C30.3421 32.168 30.3379 32.2142 30.3617 32.2342C30.4428 32.3 30.5633 32.3191 30.7083 32.2929L28.9464 32.2697C28.8345 32.5083 28.7957 32.8945 28.8739 33.3531C28.8737 33.3532 28.8734 33.3533 28.8732 33.3535C28.9678 33.5007 29.0638 33.6418 29.1591 33.7887ZM16.0107 59.2368C15.4335 59.219 14.8199 60.0545 15.5241 58.1962C15.3883 58.2343 15.2518 58.2753 15.1159 58.3134C14.9674 58.6109 14.8237 58.8992 14.6721 59.201C15.541 60.8127 13.152 61.6345 14.6639 61.0984C14.8285 61.0397 15.0836 60.2822 14.999 61.1192C14.9997 61.1184 15.0005 61.1176 15.0012 61.1168C15.4262 60.1118 15.3288 59.9047 16.0107 59.2368ZM19.1155 52.6481C19.334 49.9237 16.9492 55.4183 17.6736 54.6743C17.7389 54.6074 18.7427 52.228 19.1155 52.6481ZM10.4865 70.842C11.0319 69.8593 10.5484 69.517 10.3083 69.5174C10.0676 69.5176 9.89072 70.3052 9.81398 70.3781C9.56274 70.6149 9.82507 69.9683 9.49186 70.2721C9.38237 70.3731 8.27637 72.0016 8.25649 72.0927C8.14618 72.5982 8.91668 72.1841 8.89863 72.3359C8.8407 72.8312 8.3214 73.2688 8.48553 73.509C8.83443 74.0239 8.87802 72.7149 8.96316 72.5354C9.22198 71.9946 9.47063 72.1865 9.73648 71.8199C10.0021 71.4535 10.0463 71.1452 10.2518 70.8065C10.3201 70.6939 10.458 70.8914 10.4865 70.842ZM11.1401 66.9792C10.9803 68.2242 12.7521 65.9303 12.8197 65.5821C13.016 64.5564 11.2172 66.3834 11.1401 66.9792ZM28.8048 33.8977C28.5842 34.9968 29.9914 32.9129 30.2134 32.2209C30.0327 32.2749 28.8807 33.5196 28.8048 33.8977ZM25.2616 42.2536C25.6374 41.3356 24.3804 42.1484 24.0031 42.8802C24.1973 43.5307 24.3275 43.0855 24.5981 42.6198C24.8685 42.1547 24.9683 42.9697 25.2616 42.2536ZM10.5528 76.0676C10.3399 76.06 6.90848 76.4547 8.88008 76.6188C9.03048 76.631 11.4325 76.5615 11.6145 76.488C11.9809 76.3394 11.1016 76.0888 10.5528 76.0676ZM23.6566 46.762C23.5379 46.1067 23.7847 45.6558 23.1308 45.8513C23.1304 45.8519 23.1301 45.8525 23.1298 45.8531C23.6207 44.6169 24.5238 45.0321 24.6392 44.7707C25.0425 43.8562 23.975 44.3571 24.0646 43.6964C23.5728 45.0817 23.3488 44.4897 22.8019 45.451C22.6794 45.6668 22.4633 46.6764 22.5513 46.8878C22.6396 47.099 23.3469 46.9019 23.6566 46.762ZM15.4001 75.9646C14.2419 75.8064 13.1815 76.4758 14.788 76.582C15.5717 76.6343 16.1073 76.061 15.4001 75.9646ZM53.6048 33.6704C53.6828 33.4338 53.7577 33.1927 53.8283 32.9451C54.0574 33.3083 54.2874 33.6714 54.5172 34.0343C54.3165 33.757 54.1163 33.479 53.9151 33.199C54.2191 33.9438 54.0975 34.4147 53.6058 33.6723C53.6055 33.6716 53.6052 33.671 53.6048 33.6704ZM66.2563 59.2724C66.2656 59.669 67.05 60.0673 67.0464 59.9688C67.0165 59.2288 66.2432 58.7221 66.2563 59.2724ZM30.954 33.2463C31.6464 32.1036 30.4638 32.5126 30.0276 33.2067C30.4066 32.8418 30.5611 33.8947 30.954 33.2463ZM61.8021 50.2713C61.814 50.1314 61.8255 49.9908 61.831 49.838C61.9287 50.2609 61.9002 50.3569 61.8021 50.2713ZM10.0072 75.3161C9.80353 75.2508 8.29727 75.1968 8.09384 75.2776C7.67167 75.4475 8.84625 75.9173 9.53757 75.7728C9.61409 75.7573 10.2099 75.3814 10.004 75.3161C10.0051 75.3161 10.0062 75.3161 10.0072 75.3161ZM54.1203 35.4303C54.1266 35.4246 54.1341 35.4222 54.1424 35.4228C54.1349 35.4248 54.1281 35.4287 54.1203 35.4303ZM66.5576 74.6064C66.5658 74.6196 66.5702 74.6327 66.5692 74.6453C66.5661 74.6329 66.5597 74.62 66.5576 74.6064ZM10.8383 72.1862C11.7897 72.1255 11.953 70.9028 11.1696 71.5197C11.1269 71.5549 10.8969 72.0797 10.8383 72.1862ZM41.5697 24.6536C42.5267 22.6995 43.4955 20.5206 44.598 18.6295C44.7333 18.3973 44.9354 18.5188 44.9968 18.4654C45.0113 18.4529 45.0231 18.4397 45.0327 18.4259V21.2265C44.9769 21.0578 44.7197 21.0576 44.6751 20.9268C44.4368 20.2311 44.1676 19.6034 43.9274 18.9241C43.6798 18.2245 44.4892 18.2093 44.534 17.9008C44.6222 17.2976 43.9601 18.1042 43.6809 18.0241C43.4756 17.4858 43.3093 16.9224 43.146 16.362C43.2883 16.4476 43.4289 16.5341 43.566 16.624C43.4716 16.3914 43.4429 16.0052 43.8531 16.2687C43.873 16.1552 43.9061 16.0419 43.9234 15.9269C43.6014 16.0587 43.3782 15.6748 43.1761 15.7306C42.974 15.7864 43.1277 15.9881 43.1109 15.9948C42.8743 16.0946 42.7306 15.0238 42.7232 14.9451C42.7041 14.7369 43.1652 14.6973 43.0663 14.5614C42.8965 14.3276 42.1986 14.8889 43.0667 14.0233C42.66 14.0551 42.8296 13.9553 42.766 13.7697C42.7575 13.7454 42.5706 13.861 42.5605 13.8535C42.2836 13.663 42.7488 13.6832 42.7678 13.672C43.0909 13.4806 42.8007 13.2726 42.8031 13.1971C42.83 12.2503 42.8274 11.5678 42.5262 10.7336C42.4608 10.5534 42.0655 10.1026 42.0401 9.90936C42.015 9.71871 42.3 9.68524 42.3734 9.54222C41.7245 9.69618 41.5955 9.59813 41.8249 9.10072C41.3444 9.19852 41.6934 9.04235 41.4995 8.86634C41.3384 8.71968 40.6719 8.65697 41.005 8.2404C41.0802 8.48948 41.2764 8.3617 41.5311 8.55708C41.6157 8.62223 42.0727 9.51406 42.4723 9.23091C42.6806 9.08329 42.3248 8.88986 42.3606 8.85759C42.5697 8.66951 42.9506 8.68631 42.9196 8.88549C42.8524 8.87333 42.7807 8.85403 42.712 8.83912C42.574 9.32073 43.6246 8.51171 42.7327 9.27121C42.6234 9.36463 42.4873 9.41766 42.3803 9.53509C42.4404 9.51818 42.5451 9.38765 42.5964 9.42935C42.6484 9.47203 42.4424 9.70545 42.6677 9.61224C42.9957 9.47732 42.7572 9.31197 42.7671 9.28559C42.7651 9.28636 42.7631 9.28714 42.7611 9.28791C42.8534 9.05244 43.0307 9.35924 43.0682 9.35937C43.3142 9.35868 43.4326 9.21606 43.6689 9.28151C43.8035 9.31891 43.8555 9.55964 43.9248 9.62341C43.9947 9.6863 44.0834 9.48975 44.1419 9.52633C44.2003 9.56291 44.1194 9.68531 44.1876 9.72849C44.2172 9.74673 44.3834 9.66193 44.3957 9.67181C44.5285 9.77701 44.1363 9.86052 44.2198 9.97445C44.2742 10.0481 44.7332 10.157 44.7363 9.92219C44.8147 9.9951 44.883 10.0703 44.954 10.1464C44.9755 10.0653 44.9801 9.99023 45.011 9.90612C45.0155 10.1138 45.3391 10.047 45.413 10.1416C45.4868 10.2363 45.1913 10.5021 45.4164 10.5343C45.8957 10.6037 45.4253 10.0737 45.4508 9.96594C45.461 9.92382 45.7863 9.90331 45.8027 9.91699C45.8752 9.978 45.7292 10.166 45.7678 10.2217C45.9073 10.4203 46.2264 10.4251 46.3799 10.6041C46.9021 11.214 47.4752 12.0079 47.8608 12.6402C48.0042 12.8759 47.7932 13.1662 47.8564 13.2725C48.0045 13.5212 48.2686 13.4286 48.3944 13.6472C48.5824 13.9721 48.6017 14.5525 48.6948 14.8556C48.7595 15.0653 49.0874 15.1205 49.1185 15.1679C49.5546 15.8248 49.975 16.6791 50.2679 17.2576C50.4058 17.5297 50.2005 17.7943 50.2366 17.8466C50.3913 18.072 50.5897 17.8916 50.6645 18.0996C50.7052 18.2118 50.4935 18.3425 50.4919 18.361C50.4879 18.4225 50.5292 18.4432 50.585 18.4504L51.2154 20.2674L50.585 21.2021C50.6302 21.2818 50.7271 21.3709 50.7028 21.4343C50.4772 22.0224 50.0177 22.4679 49.7123 23.0092C49.69 23.0484 49.5636 22.9808 49.5571 23.0101C49.5325 23.1379 49.7605 23.1868 49.7166 23.3112C49.6262 23.5705 49.4678 23.8039 49.3131 24.0493C49.2978 24.0736 49.1273 24.0027 49.098 24.0612C49.0687 24.1198 49.2027 24.2423 49.148 24.3299C49.0052 24.559 48.6997 24.7027 48.5622 24.9521C48.5397 24.9935 48.7121 25.145 48.6784 25.2071C48.5727 25.402 48.2457 25.6054 48.1542 25.7719C47.8536 26.322 47.7081 26.8955 47.4457 27.424C47.3836 27.548 47.1447 27.566 47.1081 27.6283C47.0259 27.7691 47.2546 27.7462 47.1816 27.8939C46.584 29.1001 45.9006 30.2692 45.3054 31.4944C45.0714 31.9753 44.96 32.6476 44.6792 33.0851C44.646 33.1365 44.6015 33.1665 44.5533 33.1862L41.1466 38.5561L39.1134 33.1862C39.1468 33.0585 39.248 32.9509 39.2008 32.8527C39.0824 32.6087 38.7524 32.7187 38.5938 32.4783C38.4676 32.2861 38.6581 31.8984 38.5329 31.6955C38.4077 31.4925 38.06 31.5439 37.9022 31.3178C37.7725 31.1314 37.7678 30.783 37.6365 30.5752C36.4323 28.6708 35.3224 26.7577 34.5474 24.6234C34.274 23.8702 33.8362 23.1019 33.7619 22.2194C33.7552 22.1364 34.0965 22.0979 33.9251 21.9066C33.8327 21.804 33.5011 21.7621 33.3511 21.4933C33.2895 21.3827 33.2305 21.2702 33.1738 21.156L32.5646 19.3999L33.1738 18.4965C33.9461 16.9628 35.2095 15.5709 35.8857 13.9738C36.9728 11.4032 36.211 7.79488 40.2973 7.13187C40.4979 7.09943 41.192 7.51845 41.3655 7.68475C41.1892 7.67041 40.9876 7.63783 40.791 7.61674C41.6553 8.14615 41.427 8.01485 41.2017 8.26271C41.0626 8.41509 41.5198 8.4664 41.5821 8.61587C41.6624 8.8094 41.8206 9.60853 41.2778 9.19866C41.3637 9.28622 41.4465 9.36885 41.5306 9.4544C41.4127 9.91672 41.3599 10.3968 41.3275 10.8905C41.3223 10.9759 41.5084 11.073 41.5019 11.1608C41.486 11.3971 41.2851 11.4907 41.2033 11.7016C41.1589 11.8161 41.3682 11.9397 41.2826 12.0761C41.1971 12.2123 40.9059 12.0628 41.1264 12.4172C41.5574 12.4737 41.007 12.9081 40.9286 13.1213C40.9169 13.1521 41.1268 13.5574 41.025 13.6661C40.9237 13.7757 40.6155 13.8648 40.6361 14.1229C40.6459 14.2439 40.8747 14.4288 40.8392 14.5364C40.8142 14.612 40.5434 14.5825 40.4892 14.667C40.4351 14.7514 40.5261 15.0383 40.5115 15.0752C40.4601 15.2091 40.3699 14.9879 40.3181 15.0712C40.0708 15.4746 39.7398 15.9214 39.6401 16.3911C39.6276 16.4488 39.8522 16.4727 39.8551 16.4826C39.9138 16.9456 39.7599 16.6372 39.5436 16.6461C39.3344 16.655 39.0917 17.3637 39.4182 17.5331C38.9961 17.3475 39.2369 17.6525 39.2298 17.6969C39.2019 17.8694 38.8601 17.6619 38.8981 17.8617C38.9117 17.9349 39.2043 17.952 39.1687 18.0055C39.0807 18.1377 38.6302 18.0711 38.4976 18.2394C38.4655 18.28 38.6305 18.3809 38.5844 18.4586C38.5381 18.5363 38.1581 18.7689 38.5997 18.7947C38.2058 18.8541 38.3451 18.9753 38.2178 19.2098C38.1851 19.269 37.8684 19.2079 37.8903 19.3795C37.8978 19.4376 38.1662 19.5702 38.1357 19.6368C38.0666 19.7894 37.7189 19.7918 37.6129 19.9763C37.5054 20.1627 37.4577 20.3875 37.3963 20.6077V19.0447C37.5145 19.1985 37.6242 19.3582 37.6773 19.5441C37.7086 19.6543 37.4268 19.7638 37.4948 19.9128C37.5055 19.9343 37.8265 19.9942 37.8552 20.1064C37.8725 20.1738 37.8666 20.5711 37.8853 20.6413C37.9169 20.7571 38.1866 20.6457 38.1645 20.7288C38.1011 20.9688 37.6509 21.0268 38.2755 20.9651C38.0178 21.1763 38.1055 21.279 37.7664 21.4955C38.1927 21.3676 37.8601 21.6444 38.0576 21.711C38.2552 21.7776 39.069 21.5063 38.2678 21.947C38.398 21.9591 38.6992 22.1377 38.7338 22.1759C38.8343 22.2892 38.5732 22.3323 38.6531 22.4158C38.6669 22.4306 38.8124 22.3351 38.853 22.4543C38.8794 22.5327 39.1382 23.0741 39.1331 23.1167C39.0739 23.6034 38.8801 22.9941 38.6733 22.9987C38.7102 22.9628 38.7474 22.9269 38.7834 22.8903C38.7756 22.6923 38.4724 22.9589 38.4279 23.0726C38.3835 23.1864 38.6075 23.2455 38.5233 23.3637C38.4809 23.4228 38.0528 23.6134 38.0575 23.4964C37.9776 23.659 37.7744 23.593 37.6726 23.6925C37.5611 23.8016 37.7408 24.2631 37.9726 24.1501C37.9395 24.0637 37.8802 23.9652 37.8481 23.8771C38.1945 23.5677 39.7293 23.214 39.3341 23.791C39.0483 24.2091 38.5521 24.0035 39.1448 24.3583C39.1208 24.2701 39.1244 24.1837 39.1048 24.1025C39.4016 23.9444 39.13 24.2278 39.2561 24.2408C39.3175 24.2467 39.4403 23.96 39.5894 24.081C39.2267 24.4306 39.711 24.3179 39.829 24.541C39.7209 24.5166 39.6132 24.492 39.5052 24.4676C39.384 25.0049 38.8383 24.1706 39.0345 24.9994C38.976 24.9171 38.9353 24.8264 38.8693 24.7473C38.7332 24.8697 38.2353 25.0317 38.1569 25.1196C37.9511 25.3501 38.1814 25.4237 38.2211 25.5594C38.2388 25.6186 38.0969 25.6474 38.0984 25.6523C38.1219 25.7339 38.297 25.6257 38.3414 25.6854C38.3972 25.7604 38.3379 26.0875 38.3775 26.1159C38.4793 26.1898 38.7579 25.8427 38.7897 25.8388C38.9968 25.8148 38.9165 26.0175 39.1422 25.896C38.8281 25.6622 38.58 24.6597 39.3667 25.2855C39.6246 24.8756 40.1676 24.6853 40.3693 24.9884C40.5366 25.2389 40.2458 25.1687 40.0904 25.4203C40.0713 25.4524 40.1428 25.8643 40.311 25.8031C39.9375 25.9719 39.6715 26.2506 39.2545 26.3613C39.1933 26.3776 39.1417 26.2197 38.8635 26.4229C38.7237 26.5249 38.4283 26.7645 38.2281 26.8498C38.3783 26.8124 38.5461 26.7681 38.7023 26.7283C38.8519 26.9287 38.722 27.0328 38.5302 27.2792C38.6326 27.2211 39.0189 26.8889 38.969 27.125C38.9653 27.1377 38.8105 27.2245 38.7747 27.3497C38.7037 27.602 38.6727 27.6627 38.1404 27.7625C38.5857 27.9889 38.1053 28.3259 38.4413 28.6184C39.0034 28.2458 38.7904 28.1904 38.5063 27.9107C38.6414 27.8248 38.7789 27.7475 38.9153 27.6605C38.817 28.2709 38.7389 28.0326 39.1553 28.1424C39.2573 28.1692 39.3474 28.5391 39.6952 28.2268C39.777 28.1532 39.6629 27.9524 39.8243 27.9013C39.8551 27.8916 40.0529 28.1061 40.0253 28.1475C39.6871 28.6634 39.1068 28.3338 39.6626 29.0109C39.6783 29.0294 39.8563 28.9497 39.9011 28.9787C39.9851 29.0334 39.7836 29.1353 39.8647 29.1811C39.946 29.2269 40.2655 29.1868 40.0664 29.4163C39.7042 29.8349 39.2172 29.5182 39.3598 29.1973C38.7219 29.415 39.4218 30.8476 39.5171 30.9104C39.9327 31.1849 39.4831 30.6071 39.6323 30.4912C39.6955 30.4424 40.5876 30.0049 39.9297 30.1307C39.7348 30.1681 39.6101 30.4816 39.4559 30.4089C39.3017 30.336 39.5872 30.2527 39.6011 30.2349C39.6487 30.1738 39.4879 30.0947 39.5168 30.0596C39.9526 29.5235 40.8152 29.1214 39.7269 30.0873C40.0845 30.0922 40.3687 29.5284 40.6528 29.6147C40.9982 29.7195 40.674 30.0842 40.6697 30.1213C40.6209 30.5639 41.0196 29.8823 41.0349 30.3854C41.0435 30.6655 40.4709 30.2418 40.7694 30.742C41.0197 31.1605 41.1082 30.8227 41.5922 30.6202C41.7054 30.5729 41.9589 30.744 41.7485 30.4436C41.6219 30.4954 41.4526 30.5585 41.3298 30.5941C41.379 30.47 41.923 30.0321 41.9233 29.9792C41.9216 29.722 41.6097 29.8904 41.922 29.5821C41.5573 29.8731 41.7325 29.6086 41.6197 29.5986C41.2035 29.5602 41.2147 29.8778 41.4016 29.2312C41.2391 29.3845 41.0774 29.5306 40.9147 29.6817C40.8816 29.6319 40.8483 29.5822 40.8152 29.5324C41.197 29.2425 41.0021 28.9874 41.5541 29.0306C41.521 28.6633 41.367 28.585 41.0055 28.6817C40.9366 28.7002 40.8885 28.6665 40.8553 28.6153C40.7683 28.6717 40.49 28.8272 40.4508 28.8361C40.1054 28.9133 40.5768 28.5294 40.7996 28.4685C40.7904 28.4258 40.7867 28.39 40.7863 28.377C40.7842 28.2941 41.0332 28.3342 41.0688 28.2483C41.0802 28.2202 40.9457 28.0508 41.0184 28.0099C41.4844 27.7484 41.2957 28.2321 41.2603 27.4678C40.8182 27.6699 41.0591 27.9128 40.5602 28.0689C40.0243 28.2367 40.6077 27.7408 39.9815 28.0092C40.0749 27.9459 40.1553 27.8984 40.2635 27.83C39.8719 27.7094 40.3769 27.4527 40.4501 27.3195C40.5934 27.0601 40.2154 26.3862 40.0864 27.2255C39.9972 27.1568 39.9307 27.0743 39.8469 27.0035C40.745 26.5287 40.4109 26.7644 40.3324 26.2606C40.3153 26.1496 40.6992 25.9187 40.1778 26.0622C40.6496 25.8422 40.2269 25.6998 40.2702 25.6452C40.5529 25.2921 41.3787 25.6654 40.5961 26.1574C40.9696 26.1034 40.5458 26.3148 40.6612 26.4052C40.8279 26.5359 40.9223 26.5185 40.7113 26.878C41.2518 26.8579 40.5135 25.9979 41.3958 26.3019C42.1978 26.5783 43.9742 29.3371 44.6609 30.4124H39.0057C39.0506 30.2927 39.0885 30.192 39.1174 30.1142C39.6926 28.5678 39.9747 27.7445 40.66 26.4397C40.7272 26.3108 41.1756 25.3082 41.5826 25.7667C41.641 25.8325 41.6235 26.3514 42.204 26.1891C41.9313 26.1448 41.8846 25.8553 41.8687 25.825C41.5097 25.1334 41.2531 25.3016 41.5697 24.6536ZM47.0649 25.011C46.5279 25.7948 47.1773 25.3464 47.8582 25.9054C47.9144 25.7985 47.9703 25.6919 48.0266 25.585C47.9642 25.5892 47.9021 25.5932 47.8397 25.5975C47.8397 25.5976 47.8396 25.5977 47.8395 25.5979C47.5813 25.4024 47.3231 25.2065 47.0649 25.011ZM45.1534 9.53259C45.271 9.51485 45.3886 9.49663 45.5054 9.48272C45.5296 9.60965 45.5541 9.73586 45.5784 9.86279C45.5031 9.88384 45.4272 9.90574 45.3519 9.92679C45.2891 9.79375 45.2267 9.661 45.1534 9.53259ZM39.1898 29.1352C39.3922 28.8372 38.8976 29.1022 39.0216 28.7787C38.6641 28.9895 38.3162 29.1991 37.9631 29.4094C38.0975 29.5412 38.2564 29.507 38.2524 29.7252C38.3613 29.6456 38.4707 29.5651 38.5806 29.4856C38.5407 29.4695 38.4963 29.4534 38.4597 29.4368C38.7705 29.2259 38.9584 29.4775 39.1908 29.1354C39.1905 29.1353 39.1901 29.1353 39.1898 29.1352ZM38.2339 27.596C38.2397 27.4872 38.2532 27.0611 38.0769 27.092C37.4793 27.1968 38.2826 27.9784 37.4715 27.5119C37.4001 27.5516 37.327 27.5841 37.2548 27.6202C37.2929 27.7603 37.3343 27.8982 37.378 28.0366C37.6622 27.8859 37.9486 27.7484 38.2339 27.596ZM45.5746 28.0719C45.4694 28.182 45.4038 28.9248 45.8342 28.8872C45.9604 28.8759 45.6278 28.3633 45.7009 28.2683C45.7482 28.2067 45.9683 28.4122 45.9406 28.2302C45.8238 28.1792 45.6957 28.1198 45.5751 28.0726C45.575 28.0724 45.5748 28.0721 45.5746 28.0719ZM44.1936 27.0763C44.1724 27.2339 44.1625 27.3995 44.1436 27.5594C44.4873 27.6077 44.3956 27.3186 44.8154 27.5142C44.8283 27.567 44.8412 27.6192 44.854 27.672C44.7493 27.6551 44.6447 27.6377 44.5402 27.6204C44.707 27.8491 44.854 27.8346 44.6807 28.0186C45.3721 28.2007 45.7202 28.3443 45.2724 27.6569C45.577 27.8967 46.7165 28.3841 46.0285 27.7832C45.9009 27.6713 45.7225 27.7828 45.6982 27.773C45.3953 27.6524 45.2544 27.4706 44.9666 27.3598C44.8365 27.3096 44.7894 27.4086 44.6098 27.337C44.5223 27.3017 44.329 27.0886 44.1936 27.0763ZM45.8013 27.5448C45.9565 27.6745 46.4453 27.741 46.4225 27.575C46.3874 27.3166 45.8381 27.4219 45.8013 27.5448ZM45.1526 9.53205C45.1529 9.53223 45.1531 9.53241 45.1534 9.53259C45.153 9.53266 45.1525 9.53272 45.1521 9.5328C45.1523 9.53255 45.1525 9.5323 45.1526 9.53205ZM38.2486 28.1346C38.049 28.1096 37.997 27.951 37.7646 28.0809C37.787 28.009 37.8085 27.9369 37.831 27.865C37.7597 27.9012 37.6885 27.938 37.6179 27.9738C37.6464 28.1421 37.6745 28.31 37.7022 28.4787C37.8844 28.3647 38.068 28.2518 38.2486 28.1346ZM37.6198 26.4604C37.5521 26.2649 37.3053 26.5806 37.1289 26.6184C36.9525 26.6563 36.9978 26.4292 36.7832 26.5606C36.8285 26.673 36.876 26.7901 36.9227 26.9035C37.1522 26.7527 37.3906 26.6083 37.6196 26.4601C37.6196 26.4602 37.6197 26.4603 37.6198 26.4604ZM49.0377 21.7026C48.9053 21.7921 48.6837 21.6178 48.85 22.0082C48.8501 22.008 48.8502 22.0078 48.8503 22.0076C49.1695 21.8749 49.5004 21.6639 49.4338 21.3079C49.0943 21.3355 49.2452 21.5615 49.0377 21.7026ZM38.6787 29.935C38.9007 29.8897 38.9418 29.5632 38.7329 29.6001C38.3949 29.6598 38.3414 30.0035 38.6787 29.935ZM45.8092 15.8263C45.112 15.9381 44.6151 16.6351 45.0951 16.8649C45.1369 16.8846 45.2072 16.5462 45.3607 16.5593C45.3759 16.5608 45.4282 16.7011 45.5285 16.6922C45.6289 16.6831 45.8066 16.5511 45.9154 16.5642C46.1057 16.5875 45.9479 16.9341 46.1711 16.9113C46.2009 16.908 46.3952 16.6448 46.4009 16.6315C46.4905 16.4162 46.0839 16.4552 46.0711 16.4353C46.0052 16.3326 46.2806 16.2154 46.3297 16.1565C46.4219 16.0457 46.2583 16.0137 46.2638 16.0029C46.4159 15.7211 46.5369 16.1308 46.6587 16.1335C46.9871 16.1403 47.1655 15.8927 47.4764 16.1476C47.5058 16.1718 47.6767 16.5528 47.7407 15.933C48.826 16.5444 47.8635 15.2917 47.6509 15.2098C47.5526 15.1722 47.3504 15.4047 47.2148 15.4199C46.9045 15.4548 46.7764 15.314 46.4142 15.5135C45.6531 15.9335 46.2697 15.8942 46.2132 16.1079C46.0367 16.1767 45.8692 16.253 45.6897 16.3067C45.9339 16.2401 45.8614 15.8173 45.8107 15.8255C45.8102 15.8258 45.8097 15.826 45.8092 15.8263ZM47.8654 17.7196C47.7347 18.0442 48.2178 17.7843 48.0323 18.1145C48.5565 18.0618 48.3617 17.7462 48.3673 17.6953C48.3904 17.464 48.8713 17.2286 48.634 17.1224C48.3816 17.3259 48.1204 17.5194 47.8654 17.7196ZM47.1657 15.8147C47.4834 15.8293 47.3551 15.5832 47.3975 15.5494C47.8464 15.1879 48.1201 15.9801 47.1657 15.8147ZM44.1839 28.3864C44.1319 28.4485 44.392 28.5226 44.4312 28.6199C44.4709 28.7175 44.161 28.8286 44.3116 28.8972C44.4626 28.9659 45.0421 28.7682 44.9296 29.2012C45.0195 29.2296 45.0793 29.2651 45.1577 29.2963C45.2137 29.1898 45.2716 29.083 45.3276 28.9766C45.0586 28.9158 44.7763 28.8504 44.5165 28.7914C44.356 28.6356 44.6175 28.7239 44.6191 28.7207C44.6189 28.7206 44.6186 28.7205 44.6184 28.7203C44.6555 28.5982 44.3004 28.2468 44.1839 28.3864ZM47.7042 23.2116C47.1195 22.893 47.7012 23.3915 47.7409 23.4966C47.7803 23.6016 47.5131 23.5851 47.7868 23.678C48.0187 23.656 47.7695 23.2471 47.7035 23.2113C47.7037 23.2114 47.704 23.2115 47.7042 23.2116ZM48.4299 18.8456C48.6613 18.9472 48.8023 18.8423 48.732 19.1432C48.8718 19.063 49.0147 18.9813 49.1523 18.9022C49.0707 18.7318 48.659 18.9525 48.7292 18.6731C48.7409 18.6272 49.1088 18.529 48.9293 18.438C48.7722 18.5692 48.5959 18.7106 48.4299 18.8456ZM49.0785 20.8434C49.1563 20.6328 48.0712 19.8924 48.4125 20.5226C48.4637 20.6163 49.0202 21.0019 49.0785 20.8434ZM45.0751 26.5306C44.8718 26.8533 45.2525 26.5615 45.4756 26.5626C45.2235 27.4246 45.4713 26.4489 46.1057 26.6675C45.9846 26.4862 45.6874 26.1117 45.4833 26.2606C45.3983 26.3229 45.5908 26.3809 45.5875 26.3856C45.4666 26.5179 45.186 26.3543 45.0751 26.5306ZM47.6566 17.3736C47.6718 17.382 47.8627 17.2614 47.9233 17.2821C47.9836 17.303 47.8891 17.4656 48.017 17.4131C48.1456 17.3602 48.1493 17.1268 48.0304 17.1152C47.9108 17.1041 47.5213 17.2964 47.6566 17.3736ZM47.8128 18.9242C48.0423 19.0215 48.644 18.3739 48.6221 18.3387C48.4213 18.0339 48.0521 18.8166 47.8128 18.9242ZM44.2117 25.1133C44.3832 25.7106 45.1865 25.738 45.7061 25.6774C45.6435 25.6038 45.5812 25.5292 45.519 25.4564C45.9256 25.8519 46.2687 26.3604 46.1472 25.55C45.8693 25.8214 45.8768 25.4816 45.8506 25.4658C44.9806 24.9856 45.1499 25.6781 44.2119 25.1129C44.2118 25.113 44.2117 25.1132 44.2117 25.1133ZM47.5925 16.716C47.5004 16.5393 47.1155 16.153 46.8365 16.5625C47.0885 16.6139 47.3404 16.6647 47.5925 16.716ZM42.3745 31.0823C42.523 30.8261 42.4521 30.6938 42.3478 30.5216C42.1065 30.8442 42.0164 30.7565 41.9103 30.7415C41.7503 30.7182 41.8601 30.9135 41.8387 30.9249C41.5308 31.0743 41.4195 30.9704 41.5721 31.2573C41.4296 31.2388 41.2867 31.2216 41.1449 31.2027C41.2418 31.4311 41.0683 31.5831 40.8946 31.8456C41.4223 31.4112 41.139 31.7774 41.517 31.7921C41.7062 31.7992 42.2983 31.2129 42.3742 31.0817C42.3743 31.0819 42.3744 31.0821 42.3745 31.0823ZM43.8806 25.4765C43.9669 25.5722 44.0928 25.6834 44.1951 25.7855C44.1846 25.8357 44.1726 25.8854 44.1621 25.9356C44.0645 25.8936 43.9629 25.8486 43.8684 25.8094C43.8115 25.8541 43.9551 25.8973 43.9588 25.9209C43.9583 25.9207 43.9578 25.9204 43.9573 25.9202C44.0078 26.2572 43.937 26.3494 43.5459 26.3981C43.8367 26.5435 44.1275 26.6889 44.4183 26.8343C44.4125 26.7766 44.4077 26.7187 44.4026 26.6612C44.258 26.5598 44.1134 26.4581 43.9688 26.3567C44.0804 26.3489 44.1911 26.3414 44.3027 26.3337C44.2669 26.2649 44.2322 26.1864 44.1951 26.1238C45.1093 26.3274 44.3267 26.5122 44.6621 26.685C44.8776 26.7962 45.1002 26.3273 44.9839 26.1856C44.9668 26.165 44.3114 25.9627 44.7116 25.9506C44.7746 25.9488 46.0887 26.5942 45.1199 25.881C44.9826 25.7797 44.1235 25.4641 43.8806 25.4765ZM42.6157 26.9506C43.5838 27.1085 42.2165 27.6287 43.1136 27.5578C43.4392 27.8688 43.4452 27.8443 43.8465 27.8957C43.8824 27.9005 43.9469 28.0359 43.9638 28.0356C44.2081 28.0181 44.1755 27.8335 44.5185 28.0039C44.5153 27.9646 44.5133 27.928 44.5102 27.8887C44.1245 27.8532 44.0076 27.5446 43.7739 27.3311C43.6682 27.2342 43.5896 27.2961 43.4965 27.2125C43.4625 27.1818 43.5978 27.1081 43.4871 27.0469C43.2362 26.9095 42.8553 26.8078 42.6066 26.834C42.6064 26.8338 42.6061 26.8337 42.6059 26.8336C42.6076 26.8722 42.6132 26.9117 42.6157 26.9506ZM46.1001 21.7215C46.5853 21.9087 46.8068 21.7969 46.8623 22.2521C46.9619 22.2808 47.0611 22.3086 47.1607 22.3373C47.1816 22.2756 47.2015 22.2157 47.2235 22.1535C45.9472 21.2956 47.6471 21.7445 46.5769 21.4663C46.4605 21.4361 46.5096 21.6316 46.2916 21.3538C46.2912 21.3539 46.2909 21.3539 46.2905 21.354C46.2839 21.5864 46.4361 21.6921 46.1001 21.7215ZM45.7919 23.1451C46.5487 24.0672 46.636 22.816 46.2909 22.8598C46.2598 22.8636 46.246 23.4146 45.7919 23.1451ZM46.6707 20.3849C46.6733 20.3914 46.6763 20.3974 46.6798 20.403V19.2495C46.6074 19.4353 47.1001 19.6961 47.2929 19.7687C47.4863 19.8415 47.3758 19.6273 47.4036 19.6114V20.0411C47.4038 20.04 47.4042 20.039 47.4048 20.038C47.4405 19.9841 47.4905 19.9802 47.5438 19.971V19.6815C47.5769 19.7126 47.6145 19.7434 47.679 19.7491V19.9034C47.6857 19.896 47.6922 19.8877 47.6986 19.8785C47.7303 19.8321 47.7479 19.3988 47.7175 19.3946C47.5486 19.371 47.178 19.7142 47.116 19.7143C46.9129 19.7152 47.0838 19.493 46.8415 19.5849C46.3243 19.7806 46.9428 19.7263 46.9684 19.7565C47.0438 19.8488 46.7622 19.9782 46.7456 20.0838C46.7291 20.1892 46.8494 20.1926 46.8641 20.271C46.8689 20.2971 46.6675 20.3741 46.6707 20.3849ZM47.4766 20.4311C47.1805 20.0285 46.4998 20.308 46.5636 20.4134C46.7538 20.7248 47.6177 20.6236 47.4766 20.4311ZM44.2065 26.9294C44.0111 26.5989 43.5607 26.916 43.6148 27.0982C43.7461 27.1351 44.2737 27.0431 44.2065 26.9294ZM44.27 25.0005C44.2742 25.2167 45.0376 25.3146 45.0988 25.1666C44.7136 24.8693 44.7588 24.9904 44.6946 25.0751C44.6303 25.1595 44.2668 24.832 44.27 25.0005ZM46.0883 18.0325C46.1 18.0728 46.7507 18.4917 46.7264 18.0763C46.7243 18.0447 46.4537 17.659 46.3722 17.6603C46.2075 17.6632 46.0597 17.9278 46.0883 18.0325ZM44.0497 23.8638C44.3738 24.1392 44.3243 24.2259 44.7997 24.3595C44.7998 24.3594 44.7998 24.3592 44.7999 24.3591C44.8181 24.6549 43.9255 24.2213 43.9198 24.2803C43.8999 24.4865 44.6135 24.6385 44.7667 24.8506C44.6978 24.5009 45.0876 24.7862 45.2105 24.6079C45.2379 24.5678 45.0696 24.2684 44.9237 24.164C44.7777 24.0596 44.2585 23.9099 44.0497 23.8638ZM45.5757 17.2376C45.5346 17.5093 46.2254 17.3939 46.181 17.0677C46.1597 16.9083 45.6005 17.0718 45.5757 17.2376ZM40.1968 26.2522C40.0552 26.3614 39.9146 26.4711 39.7756 26.5819C39.7005 26.5267 39.6247 26.4719 39.5489 26.4171C39.6279 26.4509 39.7061 26.4851 39.7846 26.5197C39.7698 26.3531 40.0236 26.1467 40.1967 26.2519C40.1967 26.252 40.1968 26.2521 40.1968 26.2522ZM37.8391 21.2378C37.9592 21.0999 37.4297 21.2113 37.401 21.2451C37.1874 21.4984 37.6727 21.429 37.8391 21.2378ZM42.6469 26.4936C42.4657 26.6923 43.3064 26.9137 43.4295 26.798C43.2406 26.812 42.7498 26.3809 42.6469 26.4936ZM38.6733 22.9987C38.6182 23.0522 38.5633 23.1059 38.5094 23.1619C38.5638 23.0432 38.6186 22.9999 38.6733 22.9987ZM45.4634 18.4633C45.4227 18.5278 45.5051 18.8133 45.595 18.8124C45.7836 18.8097 46.1019 18.3958 45.9127 18.3405C45.8922 18.3342 45.5043 18.3989 45.4637 18.4638C45.4636 18.4636 45.4635 18.4635 45.4634 18.4633ZM40.3319 25.7933C40.3248 25.7974 40.3177 25.8006 40.311 25.8031C40.3179 25.8 40.3249 25.7964 40.3319 25.7933ZM39.454 17.5485C39.4415 17.544 39.4294 17.5389 39.4182 17.5331C39.4296 17.5381 39.4417 17.5428 39.454 17.5485ZM45.7388 20.6295C45.057 21.0791 45.543 21.0868 45.8224 20.7491C45.8369 20.7308 45.7479 20.6513 45.7388 20.6295Z" fill="#B74B3A"/>
</svg>
