<svg width="82" height="81" viewBox="0 0 82 81" fill="none" xmlns="http://www.w3.org/2000/svg">
<path d="M51.3111 65.3461C51.8876 64.9486 50.7067 66.6813 51.7841 65.6907C51.6737 65.9596 51.5633 66.2305 51.4529 66.4994C51.2646 66.4801 51.0757 66.4626 50.8874 66.4434C51.028 66.0781 51.1688 65.7127 51.3104 65.3457C51.3106 65.3459 51.3109 65.346 51.3111 65.3461ZM49.6453 63.834C49.9122 64.3846 49.4877 65.44 50.4756 64.5886C50.372 64.4216 50.2696 64.2526 50.166 64.0856C50.4853 63.7771 50.8058 63.4662 51.1244 63.1574C51.1402 62.9924 51.1558 62.8275 51.1722 62.6629C51.5258 62.6347 51.8794 62.6085 52.2336 62.5807C52.113 62.7111 51.9905 62.8433 51.8699 62.9737C51.7554 63.6872 51.5231 64.2509 51.1197 65.0842C51.2203 65.0466 51.3204 65.0085 51.4209 64.9709C51.0913 65.3256 50.7615 65.6801 50.4328 66.0331C50.5241 65.6206 50.6269 65.1597 50.711 64.7771C50.014 65.0826 49.7331 66.1388 49.5537 66.6704C49.5443 66.6982 49.5352 66.7246 49.5262 66.7496L49.5262 64.9029C49.931 65.4314 49.6888 65.4078 50.0242 65.8365C50.0796 65.9078 50.2368 65.8336 50.3237 65.9869C50.7616 66.761 51.5079 68.3212 50.6687 67.6284C50.203 66.6972 49.622 65.9528 49.1154 65.1269L49.1154 66.5255C49.2862 66.1706 49.475 65.8187 49.7039 65.4708C49.1109 65.5801 49.3332 64.8397 49.6453 63.834ZM65.5731 74.6985C65.1296 74.9259 64.2263 74.8341 63.6143 74.6763C63.6136 74.6763 63.6129 74.6763 63.6122 74.6763C63.4776 74.6415 63.1726 74.3393 63.6122 74.3516C64.329 74.3727 64.6755 74.8484 65.0517 74.5255C65.2201 74.5856 65.3968 74.6391 65.5731 74.6985ZM67.1308 74.6703C67.5704 74.7869 67.371 75.1454 66.8205 75.0484C66.8205 75.0487 66.8205 75.0489 66.8205 75.0492C66.5908 75.0087 67.0418 74.7253 66.2179 75.0129C66.0497 74.7892 65.884 74.5856 65.7177 74.3691C65.9194 74.3655 66.1034 74.3596 66.315 74.3567C66.1726 74.7245 66.6913 74.5546 67.1308 74.6703ZM51.2022 68.1837C51.5258 68.086 51.3853 67.8328 51.3508 67.29C51.5641 67.7037 51.7768 68.1179 51.9891 68.5299C51.7263 68.4139 51.4651 68.2996 51.2022 68.1837ZM52.9552 60.362C52.9556 60.3614 52.9559 60.3608 52.9563 60.3602C52.9835 60.2013 53.0108 60.042 53.0377 59.8852C53.185 59.8618 53.3313 59.839 53.4786 59.8156C53.6392 59.2896 53.8013 58.7611 53.9613 58.2348C54.2466 58.465 53.7321 59.2857 53.6983 59.8741C53.2236 60.5174 52.857 60.7523 52.564 60.6511C52.6939 60.5551 52.8244 60.4598 52.9552 60.362ZM36.9097 46.9671C36.7397 46.8506 36.5707 46.7362 36.4007 46.6198C36.467 46.8545 36.5422 47.0826 36.6029 47.3222C37.2741 47.6929 36.9568 47.9179 37.3508 48.6462C38.5592 50.8783 38.862 49.9744 39.0023 52.4658C38.2217 50.7995 38.1223 51.6396 37.3062 50.8077C37.4471 50.4804 38.4881 51.1886 38.2691 50.4655C37.4374 49.4468 36.6455 48.4632 35.8422 47.2731C35.8187 47.3313 35.795 47.3894 35.7715 47.4477C35.899 47.6363 36.0258 47.8232 36.1534 48.0119C35.9317 47.8504 35.7134 47.6933 35.4887 47.5289C35.8845 47.6808 35.3849 47.0391 35.7267 46.9875C35.8788 46.9646 36.218 47.189 36.4361 47.3124C36.2641 46.7985 36.0803 46.2751 35.9038 45.7568C36.1337 45.9561 36.3638 46.1551 36.5929 46.3526C36.6988 46.5564 36.803 46.759 36.9089 46.9627C36.9092 46.9642 36.9094 46.9656 36.9097 46.9671ZM28.7191 56.8835C29.3442 57.3185 29.9865 58.3784 29.9659 59.1318C29.5502 58.3818 29.1348 57.6335 28.7191 56.8835ZM52.3179 60.5758C52.4057 60.5358 52.4917 60.4976 52.5795 60.4576C52.5105 60.8079 52.4399 61.1596 52.371 61.5099C52.1928 61.4872 52.0139 61.4657 51.8355 61.4451C51.9957 61.1558 52.1577 60.865 52.3179 60.5758ZM56.3355 75.2171C56.0864 75.2273 56.0643 75.2218 55.754 75.1979C55.7544 75.198 55.7547 75.1982 55.7551 75.1983C55.6321 75.1894 54.6029 75.0917 54.7177 74.9629C55.2286 74.9608 55.7736 74.9629 56.2965 74.9629C56.3123 75.0476 56.3157 75.1317 56.3355 75.2171ZM53.6301 72.9363C53.63 72.9355 53.6299 72.9348 53.6298 72.934C53.5579 72.7614 53.5085 72.5877 53.423 72.4157C53.9318 72.9252 53.6649 73.1952 54.0558 73.6971C54.4473 74.1985 54.8092 74.443 54.6268 75.1491C54.4665 75.011 54.2707 74.8749 54.0967 74.7374C53.8449 73.8598 53.5654 73.7388 53.0508 73.2054C53.2444 73.1156 53.4365 73.0261 53.6301 72.9363ZM43.6527 55.4293C43.5085 55.1668 43.8096 55.105 43.821 55.0887C43.8211 55.0891 43.8212 55.0896 43.8213 55.09C44.2919 53.6388 43.8555 55.3266 44.5265 54.0704C44.4869 54.2873 44.4518 54.5028 44.4137 54.7183C44.1622 54.9556 43.8921 55.1949 43.6527 55.4293ZM62.9584 53.3698C62.9005 53.4142 62.8436 53.4612 62.7857 53.5057C62.418 52.733 62.0679 52.6642 61.9799 51.9133C62.3067 52.3985 62.633 52.8838 62.9592 53.3694C62.9589 53.3695 62.9587 53.3696 62.9584 53.3698ZM60.6477 75.7388C59.6991 75.8757 58.9974 75.936 58.0864 75.7187C58.0857 75.7184 58.085 75.7181 58.0843 75.7178C58.0317 75.7045 58.2858 75.5544 58.2172 75.5166C58.0292 75.5391 57.8352 75.5736 57.6452 75.6004C57.6195 75.4802 57.595 75.3601 57.5692 75.2406C58.1039 75.2747 58.6389 75.3087 59.1755 75.3427C59.0963 75.2725 59.0151 75.2028 58.9359 75.1325C59.3913 75.0963 59.8451 75.0602 60.3005 75.024C60.1421 75.221 59.9841 75.418 59.8277 75.6157C60.1009 75.657 60.3745 75.6968 60.6477 75.7388ZM57.2906 40.2793C57.288 40.4489 57.046 40.2584 57.0902 40.4975C57.1353 40.7363 57.4585 41.0564 57.2158 41.0648C57.0485 40.7967 56.8703 40.5164 56.6991 40.2435C56.8042 41.3445 57.587 42.104 57.1541 42.3381C56.8253 41.3954 56.4082 40.6937 55.8577 39.8973C56.2247 39.7581 56.9554 40.4647 57.0132 39.7608C57.1045 39.932 57.2023 40.111 57.2889 40.2778C57.2895 40.2783 57.2901 40.2788 57.2906 40.2793ZM60.7543 60.2616C61.0089 60.7905 61.792 61.8933 61.947 62.6525C61.985 62.8393 61.6382 63.72 61.5527 63.7632C61.2612 63.9019 60.8676 63.272 61.0635 64.0697C60.9336 63.8362 60.7989 63.6145 60.6668 63.3844C60.4994 63.5299 60.3324 63.6749 60.1647 63.8182C60.3479 64.086 60.5314 64.354 60.7152 64.6215C60.6599 64.6697 60.6043 64.718 60.549 64.7663C59.992 63.7481 60.077 64.4821 59.5623 64.0771C59.7133 64.6262 59.8669 65.1787 60.0169 65.7261C59.8783 65.4386 59.7085 65.1027 59.5904 64.8468C59.2499 64.9896 59.6481 65.5367 59.6434 65.6702C59.6158 66.4229 58.2075 63.4356 57.6091 63.4547C57.8091 63.9455 58.0229 64.4584 58.2293 64.9593C58.0974 64.8552 57.9646 64.7494 57.8327 64.6454C57.5713 63.3963 57.0299 62.1309 56.5497 60.7711C56.4748 60.6654 56.3993 60.5598 56.326 60.4555C56.1984 60.5679 56.0704 60.6783 55.9428 60.7907C55.8327 60.6297 55.7216 60.4665 55.6115 60.3055C56.365 60.5463 55.979 59.8542 55.8135 58.8549C56.2257 59.2097 56.4242 59.8166 56.7174 59.6073C55.6395 58.2057 55.0014 56.2239 53.9151 54.881C53.8951 54.8564 53.8745 54.8347 53.8531 54.8154L53.8323 54.7792L53.8135 54.8154C53.7556 55.1708 54.0683 55.4175 53.594 56.2048C53.5656 56.1509 53.488 56.102 53.4399 56.051C52.8126 57.6625 52.4303 58.6392 51.379 60.0961C51.5739 60.0851 51.7685 60.076 51.9634 60.065C52.072 59.6934 52.1798 59.3206 52.2875 58.9507C52.6511 58.8559 52.575 59.2477 53.113 58.2554C53.554 57.4424 53.1842 57.8678 53.2334 57.6082C53.2993 57.2561 53.6337 57.0981 53.7004 56.7172C53.7527 56.4232 53.4077 56.5839 53.8116 55.9628C53.9263 56.3638 54.0465 56.7745 54.1634 57.179C54.0193 57.3056 53.8749 57.4306 53.73 57.5569C53.7486 57.3594 53.7666 57.1652 53.7851 56.9678C53.6013 57.5984 53.4273 58.1941 53.2375 58.8462C52.9694 58.4541 52.7803 59.132 52.6459 59.4828C52.4368 60.0294 52.4191 59.4538 52.2797 59.8108C52.1409 60.1682 52.2301 60.684 51.84 61.254C51.851 60.8405 51.4628 61.1994 51.3566 61.0312C51.2504 60.8628 51.5647 60.2062 51.0638 60.7284C50.5474 61.9762 51.8263 61.0141 51.4861 61.8616C51.0778 62.8795 50.0063 62.5903 49.9582 62.1942C49.9202 61.8825 50.3734 61.1284 50.3371 60.8153C49.2951 62.0403 49.8572 62.3625 49.8396 62.6597C49.7762 63.7395 49.0097 62.5728 48.846 63.8032C48.6542 63.6738 48.4808 63.5591 48.2973 63.4342C48.2385 63.6298 48.224 63.773 48.1376 64.001C48.8726 63.5906 48.5765 64.0932 48.4339 64.3562C48.2095 64.7707 48.7502 64.2363 48.7401 64.3729C48.7116 64.7409 48.3964 65.1754 48.7264 64.9833C48.5754 65.0679 48.4184 65.1632 48.2662 65.2516C48.2091 65.4402 48.1994 65.7585 48.2291 66.0421V65.6104C48.6807 65.8387 49.1075 65.9039 48.7115 65.3472L48.7115 66.3053C48.7231 66.2764 48.7348 66.2454 48.7467 66.2122C48.7978 66.2659 48.8254 66.3195 48.8354 66.3728L48.8354 65.2796C49.0391 65.3627 49.0809 65.6882 49.1621 65.9281C49.2633 66.227 49.4602 66.1129 49.5542 66.373C49.9272 67.4078 49.2451 66.9698 48.8949 66.9646C49.7668 68.1245 49.2157 66.8239 50.3299 68.573C50.6438 68.6296 50.4188 67.6634 50.9259 68.2936C50.6171 68.629 50.6256 69.2921 51.0468 70.3638C51.187 70.4137 51.3279 70.4628 51.4682 70.5127C51.4171 71.2511 50.9007 71.1696 51.8873 71.9466C50.7923 71.8378 51.507 71.9334 51.6771 73.0182C51.7121 73.2382 51.3142 72.9027 51.3706 73.2058C51.3964 73.3431 51.6758 73.5581 51.7347 73.8956C51.7629 74.0607 51.8098 74.8788 52.2016 75.2494C52.4081 74.7081 53.2037 75.3843 53.1234 74.4761C53.7843 75.8752 54.4876 76.7231 53.1315 75.4911C53.2023 75.8992 53.2737 76.3073 53.3451 76.715C53.435 76.7914 53.525 76.8683 53.615 76.9453L53.6921 77.0785L53.8333 77.0749C53.9973 77.0125 54.1618 76.9503 54.3261 76.888C54.3677 77.25 54.3259 77.3516 55.4026 77.2879C54.9354 77.3733 54.4702 77.4602 54.0011 77.5464C53.9852 77.6195 53.9199 77.6954 53.9356 77.7664C54.5102 77.6273 56.1281 77.5675 56.5202 77.4712C56.9123 77.3748 56.1551 77.3484 56.268 77.255C57.2085 76.4844 57.1339 77.0527 57.8088 76.9205C58.2049 76.8422 57.2592 76.7573 57.4711 76.724C58.2568 76.6018 58.6213 77.0114 59.318 77.0166C59.0705 76.7841 58.825 76.548 58.5834 76.3134C59.3142 76.3257 60.1288 76.3278 60.8081 76.2532C61.0748 76.224 60.8733 76.0511 60.9168 76.0395C61.1329 75.9801 62.0121 75.886 62.1052 75.8853C62.8058 75.8839 62.8259 76.1234 63.5067 76.1365C63.2394 76.1568 62.9881 76.1751 62.7268 76.1946C62.608 76.5829 62.4868 76.9711 62.368 77.3601C63.0353 77.3883 63.7028 77.416 64.3721 77.4443C63.883 77.3146 63.3921 77.1856 62.903 77.0559C63.6675 76.7422 64.4319 76.4278 65.1963 76.1134C65.5944 76.3061 65.9908 76.4988 66.3889 76.6915C67.4699 76.6407 67.2522 75.8584 67.7651 76.5437C68.0838 76.4857 68.4025 76.4278 68.7212 76.3706C68.6757 76.4684 68.6306 76.5664 68.5851 76.6641C68.9693 76.604 69.3533 76.5443 69.7375 76.4834C69.3336 76.1372 68.9376 75.7728 68.5376 75.4367C69.2936 75.3615 69.3082 75.6552 69.4209 75.7285C69.72 75.9227 70.3136 75.6608 70.5512 75.8405C70.6315 75.9021 69.8906 76.0955 70.146 76.3185C70.1958 76.3617 71.1879 77.1815 71.8208 76.9922C71.8089 76.8437 71.76 76.6616 71.7343 76.5001C72.5856 76.4099 73.0197 77.1851 72.9068 77.4024C73.3603 77.2503 74.0232 77.2376 74.1162 76.9999C74.348 76.9941 74.5779 76.9886 74.8096 76.9829C74.5682 77.5615 75.5346 77.4557 75.598 76.9581C75.1999 76.9458 74.8014 76.9328 74.4033 76.9205C74.7043 76.3105 73.4947 75.9423 76.0117 76.5073C76.4929 76.8247 75.1562 76.4641 75.5484 76.7017C75.8154 76.756 76.0761 76.7711 76.3333 76.7829L76.2945 76.8456C76.1324 76.4807 75.9665 76.1268 75.9106 75.7146C75.7971 74.8705 76.4779 75.6385 75.3241 74.1165C76.3887 78.214 74.5382 73.8744 73.4242 72.257C73.9626 71.3899 73.4744 69.7977 72.2316 67.8905C72.1206 68.2095 72.5503 68.7902 72.6624 69.1925C72.7745 69.5947 72.4477 69.2623 72.575 69.7695C72.7024 70.2769 73.0502 71.316 73.1286 71.8549C72.8103 71.5245 71.5539 69.7357 72.541 70.8402C72.2782 69.7786 72.2745 69.2202 71.7232 68.0173C71.2085 67.8318 71.0114 67.9631 70.4252 66.815C71.2353 67.2623 70.9062 65.7891 71.535 65.8353C71.831 66.7094 71.1314 66.4879 71.1424 67.0735C71.1441 67.1332 71.6431 67.836 71.7232 68.0173C71.762 67.0369 71.7865 66.6923 72.5265 66.9136C72.2105 66.3918 72.1046 66.0219 71.8394 66.0925C71.887 65.927 71.9344 65.7609 71.9829 65.5972C71.8918 65.4215 71.8025 65.267 71.7107 65.0784C71.4772 65.5181 71.45 64.9057 71.1077 64.6319C70.765 64.3581 70.7176 64.9789 70.2248 64.0031C70.3029 64.3715 70.3791 64.7058 70.4564 65.0613C70.0478 64.4775 69.6377 63.8919 69.2291 63.308C69.229 63.8616 69.3797 64.9859 69.0751 65.1054C69.0399 64.7599 68.3491 63.8618 68.2867 63.7568C68.0461 63.3502 68.3448 63.488 68.3334 63.4538C68.0916 62.7468 67.7562 62.2326 67.909 61.8418C67.5345 61.407 67.4185 60.9958 67.1475 60.4716C66.9984 60.1831 66.822 60.3418 66.7758 60.1524C66.47 58.8928 67.2727 59.8372 65.6794 57.9089C65.6688 58.2441 65.6532 58.5774 65.6413 58.9132C65.4644 58.6939 65.2879 58.4761 65.1111 58.2568C65.0546 58.0791 64.9991 57.9028 64.9426 57.7251C65.2535 57.5741 65.5653 57.4235 65.8761 57.2725C65.8026 57.0834 65.7283 56.8938 65.6548 56.7047C65.8402 56.9995 66.026 57.295 66.2115 57.5898C66.28 57.5909 66.3476 57.5902 66.4162 57.5913C66.2701 57.0886 66.1256 56.5872 65.9802 56.0842C65.8683 56.1291 65.7557 56.1745 65.6438 56.2194C65.2744 55.1066 65.3531 55.0363 64.5637 54.1978C64.187 53.4363 63.4281 53.0422 63.0192 52.6975C63.0006 52.5098 62.9828 52.3214 62.9633 52.1319C62.8234 52.0757 62.6834 52.0182 62.5435 51.9619C62.5678 51.6996 62.5908 51.4345 62.6145 51.1725C62.2763 51.2021 62.1593 51.1884 62.4507 52.0189C61.9657 51.927 61.4332 50.4746 61.2712 49.8559C61.1484 49.3865 61.6769 49.7112 61.686 49.6403C61.7183 49.4024 61.264 48.7548 61.2105 48.5977C60.9833 47.9342 60.7508 47.5059 60.5349 46.912C60.4932 46.7962 60.526 46.3978 60.5189 46.369C60.4497 46.1512 60.2907 45.6076 60.2649 45.5496C58.9416 42.5565 59.6983 46.0834 58.4237 43.3222C58.3583 43.4567 58.2902 43.5844 58.2238 43.7171C58.1147 43.515 58.0047 43.3105 57.8956 43.1084C57.8541 42.8036 58.1731 43.0379 57.7843 42.5859C57.932 42.5541 58.0798 42.5224 58.2278 42.4927C58.0447 42.3031 57.8662 42.1213 57.6804 41.9263C57.954 41.3379 57.3975 39.9671 57.9776 39.7943C58.175 39.7354 58.8288 40.5776 58.7754 39.9865C58.6128 39.5659 58.532 39.946 58.4387 39.7879C57.768 38.6441 58.1061 38.561 57.7833 38.118C57.6151 38.1069 57.4424 38.0932 57.2719 38.081C57.219 37.8796 57.1657 37.6776 57.1119 37.4743C57.0032 37.4756 56.8934 37.475 56.7847 37.4763C56.8648 37.651 56.9556 37.8474 57.0286 38.008C56.5799 37.9576 55.4183 36.0149 56.0921 36.6403C56.3661 36.8952 56.6034 37.4943 56.8222 36.9313C56.4944 36.4199 56.129 35.8364 55.7871 35.2966C55.8644 35.2358 55.9425 35.1762 56.0198 35.1154C55.5809 34.377 55.5848 35.2462 55.3994 35.3371C55.3066 35.1644 55.2135 34.9896 55.1207 34.8169C55.167 34.7008 55.2191 34.5865 55.2611 34.4682C55.1247 34.5275 54.7667 34.5838 54.6201 34.004C54.5268 33.6308 55.1266 33.9922 54.7598 33.3749C54.5765 33.5264 54.4396 33.884 54.0162 33.204C54.1971 33.0249 54.3463 32.8279 54.5463 32.6593C54.2706 32.3278 54.1352 32.0344 54.013 31.7364L53.8244 31.3771L53.6536 31.7364C53.4286 32.1133 53.1821 32.4758 53.0211 33.1462C52.8437 33.8834 52.934 35.0599 51.8842 35.0686C51.6205 35.5409 51.9055 35.4916 51.8808 35.658C51.765 36.4437 51.1174 36.7474 51.0312 36.8615C50.4806 37.5888 50.4381 38.0171 49.9241 38.577C50.0967 38.619 50.2529 38.673 50.4181 38.7201C50.4855 38.0054 50.648 37.7077 51.1177 36.893C51.008 37.1901 50.899 37.4877 50.7893 37.7848C50.938 37.8016 51.0865 37.8188 51.2336 37.8371C52.037 34.9927 52.5162 35.9896 51.5988 38.2521C51.2724 38.3236 50.9431 38.4021 50.6169 38.4715C50.3406 39.9053 49.7387 40.3442 48.9543 41.7298C48.8614 41.8947 48.6874 42.5776 48.5617 42.8456C48.5648 42.8416 48.5679 42.8377 48.571 42.8337C48.7083 43.1082 48.9209 42.9357 49.1305 43.0073C49.0834 43.163 49.0361 43.3188 48.989 43.4746C48.6957 43.707 48.6204 43.5634 48.3759 44.0975C48.3622 44.1276 48.3479 44.1598 48.333 44.1943C48.4043 44.1904 48.4755 44.1867 48.5468 44.183C48.6668 44.1767 48.7868 44.1706 48.907 44.164C48.8802 44.2187 48.853 44.2714 48.8257 44.3224C48.5064 44.9179 48.159 45.282 47.9273 45.9065C47.925 45.7703 47.9218 45.6353 47.9194 45.4991C47.0759 46.8265 46.7566 45.2748 46.6639 46.5504C46.5539 46.5794 46.4439 46.6064 46.3338 46.6355C46.5329 46.1904 46.7326 45.7454 46.9308 45.3021C46.8271 45.2391 46.7241 45.1757 46.6195 45.1146C46.419 45.5966 46.2183 46.0815 46.0178 46.5635C46.1152 46.1872 46.2136 45.8087 46.3111 45.4324C45.9892 45.9466 45.6671 46.4611 45.3452 46.9753C46.0298 46.6006 45.7066 47.3686 46.1704 47.4257C45.3642 48.2183 44.5564 48.7535 44.0917 50.3745C43.9999 50.696 44.355 50.674 43.6029 51.3407C44.1418 51.3578 43.8248 52.5056 44.3085 52.5796C44.4336 52.2792 44.5715 51.9717 44.6877 51.6778C44.3829 51.9262 43.9589 51.7806 44.0844 51.2346C44.245 50.5377 44.9739 49.7686 44.5141 49.5851C44.6588 49.3476 44.7863 49.1231 44.9242 48.8911C44.9841 49.0449 45.0457 49.1971 45.1064 49.3491C45.2775 48.5781 45.5485 48.1755 45.9891 47.984C45.6444 48.8322 45.2999 49.6784 44.9545 50.5262C45.0334 50.4153 45.1132 50.3029 45.1915 50.1917C45.1643 50.9508 45.7501 50.4466 45.2338 51.6299C45.1084 51.5584 44.9822 51.4882 44.8562 51.4163C44.991 52.0085 44.4144 53.157 44.9943 52.9886C44.6989 53.2749 44.5865 53.3071 44.702 53.6106C43.9428 54.3757 43.2676 54.7734 42.9757 54.22C42.8789 54.5967 42.7821 54.9735 42.6862 55.3484C42.9089 55.214 43.1311 55.0791 43.3538 54.9447C43.1296 55.3787 42.9043 55.815 42.6802 56.2497L41.7913 57.9426L40.9864 56.2497C40.9109 56.0937 40.8354 55.938 40.7601 55.7828C40.9206 55.669 41.0816 55.9048 41.2232 56.1313L41.8031 57.3509L42.4434 56.1313C42.5507 55.8533 42.6632 55.6016 42.3988 55.6967C42.3313 55.7209 42.3011 55.9043 42.2647 56.0419L41.8119 56.9042L41.402 56.0419C41.3588 55.9873 41.3254 55.938 41.3239 55.9044C41.2967 55.1432 41.487 55.6725 41.6644 55.9107L41.8249 56.2485L42.0023 55.9107C42.0379 55.7902 42.0332 55.7028 41.9029 55.7343C41.8826 55.7685 41.8628 55.8008 41.8436 55.8314L41.8328 55.8519L41.823 55.8314C41.3577 54.6161 42.3095 55.3256 41.0063 53.7753C41.0887 53.6743 41.1714 53.5688 41.2548 53.4717C40.947 52.8401 40.7325 53.011 40.4171 52.4935C40.2197 52.1694 40.4288 51.5341 39.955 51.3039C39.8688 51.2638 39.668 52.1498 39.0303 50.8176C38.5353 49.7838 39.1126 50.0284 38.9645 49.4098C38.8162 48.7909 37.6774 47.7749 38.0627 47.1151C38.1321 47.4434 38.2762 47.8337 38.3751 48.1871C38.5521 48.2625 38.7261 48.335 38.9016 48.4089C38.3893 47.7439 38.178 46.8974 37.6643 46.5343C37.579 45.348 36.6523 44.4371 36.3423 44.964C36.5703 45.2546 36.5943 44.8025 36.6915 45.3157C36.6076 45.4152 36.5255 45.5169 36.4416 45.6164C36.072 44.8447 35.8033 44.3148 36.3037 44.5008C36.2521 44.3782 36.2011 44.2568 36.1495 44.1342C35.903 44.2309 35.6569 44.3304 35.4104 44.4271C35.3391 44.3331 35.2678 44.2388 35.1965 44.1446C35.1703 44.1101 35.1442 44.0756 35.118 44.0411C35.0911 43.8576 35.0645 43.6735 35.0373 43.488C35.5177 43.5157 35.7126 43.8746 35.3172 42.5622C35.1865 42.6231 35.0554 42.6822 34.9247 42.7431C34.5829 41.6497 34.882 41.4669 34.2354 40.2028C35.1702 40.9532 34.6431 41.883 35.5394 41.4304C35.6027 41.7044 35.6661 41.9807 35.7294 42.2546C35.8782 42.2267 36.0271 42.1983 36.1751 42.1687C35.4501 40.8905 33.5035 39.1386 33.6321 37.9759C33.5096 37.9043 33.3961 37.8278 33.2675 37.757C33.1799 36.7247 32.2244 36.7377 32.231 35.6428C32.2325 35.5295 33.0497 35.3565 32.4554 34.2327C32.3756 34.308 32.2249 34.4018 32.1178 34.4841C32.0524 34.2091 31.9903 33.9341 31.9271 33.6603C31.8182 33.6594 31.7082 33.6564 31.5986 33.6558C31.7748 34.0925 31.9499 34.5282 32.1261 34.9649C31.9219 34.631 31.7165 34.2948 31.5123 33.9609C31.598 34.4869 31.6992 34.693 31.3347 34.5323C31.1236 34.1441 30.9114 33.7557 30.7003 33.3675C30.6217 33.356 30.5426 33.345 30.464 33.3335C30.386 33.6116 30.3128 33.8897 30.2322 34.1691C29.9626 33.3732 29.6579 32.6828 29.4897 31.998L30.1723 32.007C29.996 32.2109 29.8089 32.398 29.6009 32.5639C29.4731 32.6663 29.5005 32.0777 29.2191 33.0899C29.0935 33.0408 28.9845 33.014 28.8669 32.9714C28.6071 34.2559 28.3142 34.5671 27.4591 35.5947C28.081 34.9658 27.58 35.5557 27.598 35.8099C27.6107 35.9844 27.8702 35.4685 27.9258 35.5721C27.9807 35.6754 27.9735 36.5218 28.3169 35.9781C28.348 34.2125 29.3971 34.2866 30.0071 32.3224C29.9522 32.6455 29.8964 32.9707 29.8415 33.2938C29.9723 33.1977 30.0902 33.112 30.2305 33.0074C29.5617 33.9275 29.9096 33.4921 29.801 33.9588C29.6923 34.426 29.3888 35.2187 29.1532 35.7327C29.079 35.8947 29.0082 35.6444 28.8046 35.9906C28.6658 36.2262 28.55 37.0109 28.191 37.0149C27.957 37.018 28.0235 35.6937 27.244 37.1581C26.9198 37.339 27.3491 36.6666 27.3358 36.6401C27.1929 36.4001 26.5544 37.2153 26.4937 37.7172C26.4896 37.7582 26.8291 37.5175 26.7031 37.909C26.4052 38.8387 25.9556 39.2276 25.4079 39.6403C25.6754 39.8593 25.6523 40.763 25.0683 41.5917C25.1297 41.6828 25.1929 41.7721 25.255 41.8635C25.2832 41.7016 25.312 41.5399 25.3402 41.3779C25.474 41.2563 25.598 41.1179 25.7396 41.0049C25.337 41.9368 25.682 42.283 25.6045 42.7915C25.3385 44.5313 24.722 43.0621 24.675 42.6977C24.8527 42.5478 25.0358 42.4089 25.2164 42.2628C25.101 42.2282 24.9847 42.1935 24.8696 42.1568C23.7032 44.3515 24.0151 42.13 23.2278 43.1398C23.5876 43.6998 23.2009 44.5437 22.3202 45.4116C22.2613 45.5283 22.2002 45.6444 22.1419 45.7614C22.2064 45.8204 22.3208 45.8811 22.3533 45.9387C21.7711 47.2398 20.8624 47.0423 20.7243 47.1212C20.1112 47.472 20.3509 48.1277 20.2719 48.2853C19.9384 48.9491 19.6331 49.0308 19.3879 49.7013C19.1247 50.4226 19.5257 50.0473 19.5569 50.326C19.5807 50.549 19.3182 51.0888 19.3168 51.3689C19.2689 51.2318 19.228 51.086 19.1796 50.9489C18.6803 51.5757 18.252 52.0772 17.7995 52.8502C18.0137 54.1091 16.4463 54.247 17.5536 54.4426C18.017 53.7291 18.3475 53.3682 18.8013 53.0962C18.5702 53.6035 18.338 54.1108 18.1069 54.6181C17.9269 54.7061 17.7718 54.754 17.576 54.8672C17.6002 55.3513 17.0522 56.1516 16.9386 56.5199C16.4068 58.2451 17.0398 57.9613 15.6482 59.0527C16.1356 57.9911 15.8286 57.8294 16.415 56.8315C16.079 56.9351 15.8477 57.4778 15.7646 57.0025C15.3027 58.0241 15.7068 57.8298 15.7097 58.3248C15.712 58.7517 15.3661 59.4243 15.6189 59.5108C15.4546 59.5108 15.3026 59.4975 15.1385 59.4973C14.7988 60.1375 14.4578 60.7769 14.1181 61.417C14.1299 61.0732 14.1414 60.7294 14.1538 60.3859C13.9935 60.565 13.8332 60.7445 13.6729 60.9236C13.2496 62.7179 11.0417 65.0238 12.3165 65.1472C11.9453 65.9233 11.7638 65.9483 11.3464 66.2553C11.4014 66.343 11.4438 66.4223 11.5078 66.5148C11.1639 66.9597 11.2611 67.4939 10.9536 67.8842C10.6468 68.2748 10.3086 68.232 10.7474 68.5468C10.4628 68.7541 10.2021 68.972 9.92798 69.1827C9.94588 69.4076 9.96263 69.6316 9.98083 69.8544C9.7848 70.0865 9.58869 70.3193 9.39266 70.5514C9.54342 70.8117 8.89661 71.7904 8.80573 72.3255C8.33268 72.6271 7.57375 72.2072 7.16975 73.2949C7.37352 73.3699 7.57653 73.4451 7.7803 73.5201C7.61675 73.7313 7.45306 73.9431 7.28858 74.1561C7.21919 74.137 7.15078 74.1161 7.08138 74.097C7.16391 73.9884 7.24549 73.8814 7.32865 73.7732C7.16884 73.8204 7.01063 73.8657 6.85175 73.9111C6.81789 74.3486 6.78381 74.7866 6.74902 75.2259C7.12284 74.8081 7.49684 74.3903 7.87066 73.9725C7.68847 74.6497 7.32569 74.9952 7.20142 75.6023C6.69618 75.9186 6.635 75.6696 6.44941 75.3328C6.38333 75.5152 6.31534 75.6991 6.24925 75.8815C6.02446 75.618 5.70215 75.8143 6.25344 74.836C6.136 74.8608 6.02161 74.889 5.90191 74.9104C5.82803 75.0797 5.70327 75.1485 5.63952 75.3434C5.46608 75.8749 5.76698 76.5137 5.95983 76.574C6.06113 76.605 6.14114 76.0324 6.2606 76.1208C6.5516 76.3369 5.82358 77.3599 6.98645 75.9445C6.91001 76.5561 6.70739 76.6112 6.36264 77.1085L5.83331 76.2263C5.85476 76.2288 5.87679 76.2312 5.89944 76.2335C5.87715 76.1817 5.85513 76.1301 5.83331 76.0785L6.49304 77.1781C6.56601 77.1847 6.6388 77.1915 6.71173 77.1986C6.69393 77.2212 6.67613 77.2437 6.65833 77.2662L5.83331 75.8912C6.10998 75.9411 6.38691 75.9909 6.66352 76.0408C6.23973 76.6544 8.48755 76.8849 6.46406 77.4216C7.06203 77.4491 7.65797 77.4768 8.25395 77.5058C8.13119 77.5688 8.00839 77.6312 7.88563 77.6942C7.61633 77.6609 7.34865 77.6281 7.07934 77.5955C7.39611 77.7106 7.71344 77.8251 8.03022 77.9403C8.77879 77.7975 9.07224 77.5781 9.41485 77.3071C8.54367 77.1094 8.8283 77.3795 8.14947 77.4331C8.17318 77.2616 8.14184 77.1037 8.20119 76.9235C8.55196 77.2789 9.69619 77.0203 9.96153 77.0029C10.7691 76.9501 10.1358 77.2993 10.676 77.3067C11.2167 77.3139 11.8543 77.1061 12.296 77.4524C12.2881 77.2583 12.2527 77.0575 12.2211 76.8807C13.0628 76.817 12.8948 77.0463 12.982 77.076C14.3722 77.5642 15.1266 77.152 16.7169 77.102C16.5149 77.0419 16.3108 76.9877 16.1069 76.9312C17.3066 76.5191 16.4984 76.6452 15.4568 76.5091C16.4332 76.5504 16.9923 76.1994 17.6815 76.0951C18.3706 75.9909 19.5524 76.1712 19.9843 76.3117C18.996 76.5377 17.9302 76.3887 16.833 76.451C16.9577 76.6487 17.0789 76.816 17.2076 77.0333C17.875 76.6183 18.2616 76.8958 18.4815 76.9508C19.1269 77.1123 19.1066 76.7561 19.4967 77.1392C19.4809 77.0074 19.4693 76.8966 19.4534 76.7735C20.7862 76.8286 22.2238 77.0616 23.0913 76.5749C23.1705 76.8914 23.2303 77.1964 23.3213 77.5194C23.8857 77.2812 24.369 77.5252 24.8442 77.4695C25.3175 77.4137 25.1374 77.1579 25.6938 77.0593C25.7968 77.0412 26.0112 77.2013 26.2647 77.0832C26.5207 76.9645 27.4647 76.0819 27.5776 76.853C28.0549 76.8566 28.5065 76.8848 28.9739 76.8978C28.5184 76.9413 28.0628 76.9834 27.6093 77.0269C27.9974 77.2137 28.3831 77.4001 28.7712 77.5869C28.8207 77.4203 28.8704 77.2507 28.9179 77.0862C29.2452 77.0228 29.5444 77.0058 29.8333 77.0106L29.9473 77.0077L29.9951 76.9145C30.308 76.3626 30.6889 75.9038 30.9973 75.246C31.0721 75.0861 30.5838 75.2934 31.032 74.647C31.4803 74.0006 32.2981 73.7854 32.7277 72.5017C32.7492 72.4367 32.5247 71.8648 33.0395 71.6018C33.1564 71.5419 33.0334 71.9955 33.238 71.8231C33.4427 71.6506 34.046 70.7113 34.2906 70.7455C34.213 70.7167 34.1053 70.7371 34.0161 70.7268C34.0728 70.5412 34.1303 70.3539 34.1886 70.167C34.3237 70.2203 34.4596 70.2726 34.5941 70.3256C34.8231 69.2053 34.6133 68.4474 35.5479 67.112C35.146 67.4116 34.7433 67.7109 34.3424 68.0088C34.4117 68.1888 34.4818 68.3694 34.5521 68.5476C34.1432 69.1749 33.7336 69.8041 33.3246 70.4314C33.4127 70.6193 33.5015 70.8051 33.5896 70.9931C33.4757 71.1565 33.3633 71.3185 33.2494 71.4819C33.1669 71.3806 33.0852 71.2791 33.0036 71.176C32.842 71.5344 32.6806 71.8935 32.5199 72.2501C32.2733 71.211 33.6352 70.3324 33.0616 70.1365C33.2273 70.0262 33.3937 69.916 33.5601 69.8061C33.3428 69.5996 33.5875 69.325 33.93 68.7925C33.7355 68.8511 33.5354 68.9238 33.3453 68.9713C33.8161 68.5287 34.3204 67.5633 34.6929 67.0423C34.8565 66.8135 34.9073 67.1589 34.9687 67.0978C35.2858 66.7858 35.3538 65.8958 35.4608 65.7602C35.4864 65.7278 35.5124 65.6963 35.5387 65.6656V65.9869C35.2616 65.0547 35.4959 64.1839 34.5993 63.458C35.0491 64.5188 34.7923 63.9483 34.7644 64.4282C34.7556 64.5785 35.319 65.9586 34.4955 64.2948C34.3995 64.0994 33.2091 60.9147 34.0618 61.7099C33.698 61.288 33.3747 60.9786 33.0263 60.6001C33.2931 59.065 32.6958 59.8717 32.4255 60.4229C32.3278 60.2484 32.2322 60.0838 32.1336 59.9029C32.8055 60.035 31.7665 58.0618 31.1708 57.5249C30.9718 57.3447 31.1632 58.0477 30.8126 57.5712C30.7114 57.3085 30.6017 57.0076 30.4967 56.7289C30.409 57.264 29.8943 56.5885 29.6023 56.7612C29.6105 56.1454 29.976 55.4784 30.4219 55.5712C30.1863 55.3451 29.9501 55.1179 29.7139 54.8913L29.9527 54.8913C29.9261 55.0278 29.8996 55.1641 29.8732 55.3003C29.9815 55.2093 30.09 55.1172 30.1984 55.0254H29.4682C29.4786 55.1047 29.489 55.184 29.4991 55.2631C29.4734 55.1934 29.4456 55.1236 29.416 55.0538L30.2506 55.0538C29.4522 56.2259 28.9942 57.9061 28.263 57.8349C28.1754 58.006 28.0863 58.1785 27.9988 58.3496C28.0759 58.4593 28.1542 58.5674 28.2313 58.6772C27.7235 59.3903 27.2161 60.1014 26.7083 60.8145C27.0134 60.0993 26.9513 59.8556 27.462 59.2097C27.1908 59.418 26.9162 59.6311 26.6478 59.8343C26.3896 61.0853 26.5246 61.3488 25.5464 62.9108C25.5021 62.9814 24.5623 64.0522 24.5128 64.0794C24.2865 64.204 24.2674 63.817 24.1592 63.8685C23.8573 64.0106 22.6392 65.2105 22.5889 65.1469C21.9765 64.3572 24.6027 59.5172 25.2746 58.1872C26.0482 56.6555 26.8323 55.1343 27.6248 53.6216L29.7215 49.5749L32.0419 53.6216C34.1116 57.269 36.1109 60.9316 38.0792 64.6012L38.7455 65.7525L38.0792 67.0513C36.0512 70.7081 34.0004 74.3425 31.9554 77.9837L31.3285 79.2056L29.8333 79.2435C24.609 79.1788 19.3797 79.1273 14.1218 79.1655C13.964 79.1673 14.0328 79.3024 13.9656 79.3082C13.5478 79.3422 13.1375 79.1315 12.983 79.1228C12.653 79.1049 12.8347 79.2996 12.5936 79.2997C10.2947 79.2977 8.1153 79.2001 5.83331 79.2112L1.91446 79.3L3.72894 75.7039C3.81804 75.5349 3.90681 75.3648 3.99519 75.1936C4.0697 75.0493 4.12909 75.2689 4.239 75.0043C4.29497 74.8673 4.30103 74.3483 4.4542 74.0534C4.98946 73.0236 5.51578 72.1995 6.08853 71.1179C6.40164 70.5263 6.89213 69.6497 7.24114 68.9877C7.39534 68.6953 7.46096 68.3399 7.61143 68.0501C7.82504 67.6388 7.97601 67.8265 8.02171 67.7701C8.22199 67.5223 8.0278 67.3696 8.17269 67.1103C8.44293 66.6282 8.6002 66.6784 8.91797 66.0533C9.14481 65.6064 9.57134 64.5343 9.8354 63.9591C10.6968 62.7441 11.5069 61.0663 12.1006 59.8208C12.452 59.0835 12.6882 59.1237 12.8441 58.8298C13.3919 57.7934 13.5543 56.8718 14.0641 55.8959C14.7409 54.6008 15.5197 53.5485 16.1981 52.3059C16.3081 52.1044 16.0995 52.0529 16.2007 51.8516C16.5758 51.1067 17.0441 50.1481 17.4198 49.5068C17.8381 48.7919 18.2486 48.6648 18.5754 47.9211C18.671 47.703 18.4698 47.5169 18.6271 47.1497C18.879 46.5637 19.4132 46.0587 19.645 45.6796C19.9618 45.1595 19.4746 45.499 19.8925 44.7925C19.9097 44.7635 20.1378 44.7462 20.2125 44.5865C20.4309 44.1216 20.2728 44.095 20.6388 43.4395C20.6744 43.3769 21.3051 42.5853 21.3523 42.4984C21.6288 41.986 22.2373 40.982 22.365 40.6595C22.8219 39.5071 22.1093 40.2262 23.1585 39.5984C23.2395 39.1187 23.3168 38.6415 23.4146 38.1394C23.3844 38.4932 24.1857 37.4194 24.218 37.3312C24.4877 36.6024 24.0555 36.8916 24.5506 36.0494C24.4438 37.4535 25.2078 34.9724 25.4625 34.4641C26.1382 33.1148 26.8351 31.8625 27.5407 30.6035L29.7923 26.166L32.1573 30.6642C32.6608 31.7261 33.1645 32.7952 33.7181 33.8987C34.1312 34.7217 34.7902 35.7719 35.2233 36.6446C35.3247 36.8478 35.1281 36.7543 35.2149 36.9343C35.3023 37.1136 35.338 36.8484 35.4326 37.0556C36.0192 38.3453 36.2613 39.4647 37.1589 40.4661C37.1413 40.5455 37.1041 40.5619 37.1004 40.6806C37.5144 41.1208 37.8607 41.9214 38.1373 42.6743C38.3679 43.3021 38.5501 43.8966 38.6825 44.2211C39.1384 45.3368 39.4679 45.5153 39.8196 46.3157C40.2841 47.3743 40.6837 49.1125 40.9575 48.1101C41.3311 48.8088 41.6775 49.4881 41.9776 50.2325C42.0109 50.3154 41.8259 50.3393 41.8386 50.3728C41.9169 50.586 42.0909 50.5812 42.1655 50.7143C42.3678 51.0754 41.8972 50.5564 42.208 51.06C42.3723 51.3255 42.5743 51.4219 42.963 52.1928C43.3691 52.9991 43.7795 53.8183 44.1928 54.6465H39.4739C41.4453 50.7118 43.5419 46.6011 45.5273 42.6732C45.5317 42.6645 45.5361 42.6558 45.5405 42.6471C45.7056 42.32 45.4454 42.4595 45.6606 42.0534C46.4081 40.6426 47.9424 38.2153 48.523 36.9667C49.1035 35.7182 48.7418 35.8845 49.0336 35.0675C49.0899 34.9096 49.1559 35.0951 49.2252 34.9615C49.6894 34.0622 50.4271 33.0821 50.8236 32.3637C51.086 31.8887 50.8668 31.8276 51.0207 31.4841C51.1568 31.1811 51.3736 30.912 51.5569 30.688L53.7205 26.1374L56.1097 30.688C56.1574 30.8816 56.1974 31.0495 56.2493 31.16C56.8496 32.4316 57.4445 33.2148 57.9487 34.4306C57.9697 34.3627 57.9952 34.312 58.0191 34.2514C58.7072 35.6454 59.3943 37.0376 60.0824 38.4315C60.0898 38.3459 60.0986 38.2623 60.1067 38.1763C60.9003 39.8187 60.3718 39.8502 61.2195 39.247C61.3112 39.3495 61.4117 39.4565 61.4981 39.5549C61.0015 39.7457 61.1483 40.9058 61.6556 42.2219C61.6926 42.3185 62.4634 42.7056 61.8842 42.9111C62.0983 43.0056 62.2383 43.0556 62.4238 43.1334C62.3914 43.4816 62.3628 43.8324 62.3311 44.1803C62.4274 44.3114 62.5239 44.445 62.6202 44.5761C62.7378 44.5439 62.8406 44.4721 62.9686 44.4657C63.3178 45.1235 63.8685 46.5555 64.1452 47.0749C64.8332 48.3651 65.7877 49.5514 65.9838 50.7244C66.2633 51.2037 66.2272 50.6069 66.5689 51.3568C66.5043 51.4932 66.4416 51.6224 66.3755 51.7639C67.1512 52.1285 66.9253 52.3987 67.2387 53.2733C67.4502 53.8649 67.7489 54.1723 67.992 54.7149C68.0534 54.8524 67.9046 54.903 67.9552 54.9929C68.1238 55.2942 68.7556 56.0785 68.8697 56.2937C69.9068 58.2416 70.7329 59.9475 71.6213 61.8523C71.7171 62.0569 71.7237 61.7263 71.8224 61.9382C71.9814 62.2791 71.6711 62.1869 71.7582 62.3869C72.0022 62.9441 72.227 62.8368 72.6177 63.589C73.9037 66.0656 75.1711 69.0188 76.4599 71.6335C76.5006 71.715 76.6287 71.6449 76.6743 71.7328C76.9693 72.3069 77.0851 72.9795 77.3491 73.5028C77.7642 74.3269 78.2449 74.875 78.6594 75.6632L80.5988 79.3286L76.3333 79.4268C76.2854 79.4278 76.237 79.4283 76.1879 79.4283C74.3105 79.4276 72.6331 79.3226 70.7021 79.3168C69.1218 79.3117 67.7492 79.3312 66.0163 79.3305C61.9862 79.3289 57.9122 79.4595 53.8333 79.5448L52.2893 79.5839L51.4467 78.128C49.6657 75.0193 47.9136 71.8905 46.3084 68.7072C46.2213 68.5338 46.3723 68.5414 46.3391 68.4921C46.0208 68.0251 45.844 68.0644 46.0681 67.7143C45.8746 67.431 45.6942 67.2674 45.5153 67.0906L44.8276 65.9023L45.5153 64.5619C45.5723 64.2914 45.6438 64.0139 45.8697 63.6211C46.0995 63.2212 46.3071 63.7266 46.4887 62.9369C46.6524 62.2237 46.076 62.7949 47.2878 61.0695C47.3201 61.0239 47.6778 60.9081 47.8273 60.4934C47.9784 60.0772 47.5732 60.4333 48.0288 59.4817C48.9012 57.6603 50.1894 55.5679 51.349 53.4711L53.7076 48.9192L56.3177 53.4711C56.5747 53.949 56.8356 54.4215 57.101 54.8816C57.1911 55.0377 58.1436 56.4952 58.3636 56.7655C58.7898 57.2882 58.8922 57.0746 59.3459 57.8081C59.6964 58.3749 59.7682 58.9611 60.1809 59.6271C60.2292 59.7045 60.4989 59.7313 60.7543 60.2616ZM35.2372 44.5927C35.1011 44.569 34.8152 44.5827 34.5376 44.4741C34.2663 44.3681 34.0029 44.1453 33.8947 43.6569C33.8738 43.5633 34.5959 43.764 34.4325 43.2394C34.6447 43.5678 34.8346 43.899 35.0261 44.2298C35.0961 44.3508 35.1663 44.4717 35.2379 44.5924C35.2377 44.5925 35.2374 44.5926 35.2372 44.5927ZM58.2658 66.4672C57.9496 65.8028 57.6319 65.1363 57.3157 64.4718C57.6443 64.8701 57.9731 65.2691 58.3014 65.6652C58.29 65.9331 58.2773 66.1993 58.2658 66.4672ZM61.0566 49.1774C61.0569 49.178 61.0572 49.1786 61.0576 49.1792C60.6188 48.5351 60.1797 47.8906 59.741 47.2464C59.846 47.2847 59.9514 47.323 60.0564 47.3613C60.4373 47.8526 60.8182 48.3444 61.1983 48.834C61.151 48.9484 61.1039 49.063 61.0566 49.1774ZM64.5127 54.2716C64.6516 54.7535 64.46 54.7144 64.4472 55.0242C64.4474 55.0241 64.4477 55.0239 64.4479 55.0238C64.4451 55.1053 64.5636 55.4189 64.6161 55.5368C64.681 55.4512 64.7386 55.3537 64.8011 55.2649C65.5243 56.1898 65.7892 58.5731 64.1877 56.1168C64.316 56.1013 64.4429 56.0844 64.5712 56.0689C63.8933 54.7893 63.4076 53.2278 64.5127 54.2716ZM29.718 34.3377C29.033 33.639 28.7209 33.2869 28.4263 32.5298L31.2214 32.5665C31.0752 32.7884 30.8926 33.0338 30.6594 33.3281C30.6594 33.0882 30.6594 32.8481 30.6594 32.6081C30.7481 32.5414 30.8364 32.4749 30.9248 32.4084L28.7269 32.3794C28.7314 32.5409 28.736 32.7022 28.7405 32.8642C28.7408 32.8649 28.7411 32.8655 28.7415 32.8661C28.8718 32.8563 29.0024 32.8465 29.1319 32.8349C29.3269 33.3352 29.5229 33.8375 29.718 34.3377ZM54.4876 76.0524C54.1431 75.2566 54.2425 75.7191 55.2263 75.5397C55.567 75.4774 55.235 75.3381 55.4469 75.315C56.5912 75.1883 56.6828 75.7215 56.4273 75.999C55.7797 76.0178 55.1254 76.035 54.4897 76.0524C54.489 76.0524 54.4883 76.0524 54.4876 76.0524ZM55.2031 58.6084C55.2035 58.609 55.2038 58.6096 55.2041 58.6102C55.0479 58.7292 54.7812 58.3493 54.8689 58.8941C54.68 58.5462 54.4918 58.198 54.302 57.8485C54.3737 57.9422 54.4459 58.0386 54.5177 58.1324C54.5268 58.01 54.5367 57.8871 54.5459 57.7647C54.2827 57.7481 54.334 57.5713 54.2004 57.1706C54.0461 57.3856 53.8915 57.6001 53.7373 57.8151C53.5682 57.357 53.3986 56.8972 53.2295 56.4391C53.2794 56.4051 53.3293 56.371 53.3792 56.337C53.2246 56.2139 53.0702 56.0927 52.9156 55.9696C52.9548 55.8918 52.9943 55.8159 53.0336 55.7381C52.9368 55.6324 52.8399 55.5267 52.7429 55.421H54.9237C54.9026 55.5014 54.8816 55.5819 54.8608 55.6623C54.6762 55.6379 54.8423 55.1767 54.4699 55.9516C54.4437 55.6782 54.4176 55.4054 54.3921 55.131H53.2745C53.3131 55.1511 53.3517 55.1712 53.3904 55.1913C53.995 56.3301 54.5991 57.4693 55.2031 58.6084ZM63.4381 75.8076C62.0182 75.8409 62.4181 75.715 62.7468 75.3209C62.9765 75.4832 63.2084 75.6453 63.4381 75.8076ZM49.9815 41.0234C50.0377 41.512 50.0907 42.001 50.134 42.4943C49.8926 43.3124 49.0788 43.8447 49.1896 43.1938C49.3237 42.4105 49.9094 41.8154 49.9815 41.0234ZM40.1266 54.1739C40.4746 55.1485 39.7567 54.4267 39.4865 54.3028C39.627 53.9147 39.4262 53.5721 39.1726 52.9871C39.4573 53.5131 40.0696 54.0124 40.1274 54.1735C40.1271 54.1736 40.1269 54.1737 40.1266 54.1739ZM55.9104 38.1494C56.1017 38.514 56.352 38.8468 56.4351 39.2169C56.1555 39.2325 56.0353 38.4692 55.9301 39.1106C55.8065 38.878 55.683 38.645 55.5596 38.4145C55.7751 38.4925 55.7807 38.2399 55.9101 38.1507C55.9102 38.1503 55.9103 38.1498 55.9104 38.1494ZM74.7656 76.6459C74.6763 75.7871 74.4914 75.7083 73.9388 75.0746C74.1091 74.8612 74.9143 75.5437 75.2679 76.0466C75.1001 76.2456 74.9324 76.4451 74.7656 76.6459ZM34.5556 65.9787C34.6702 65.9846 34.8185 66.1073 34.9763 66.2937V65.3588C34.8174 65.8796 34.4176 66.6118 34.1259 67.012C34.1254 66.9152 34.1244 66.8179 34.1232 66.7208C34.3515 66.2371 34.5805 65.7519 34.809 65.2675L34.809 66.3849C34.7245 66.2494 34.64 66.114 34.5556 65.9787ZM39.0563 52.7067C39.0957 52.8061 39.1347 52.8995 39.1726 52.9871C39.1222 52.8939 39.0812 52.7999 39.0563 52.7067ZM20.0694 49.5348C19.966 49.096 19.4042 49.9369 20.082 48.9137C20.0818 48.9135 20.0815 48.9134 20.0813 48.9133C20.5293 48.2364 20.6313 48.0887 21.0041 47.4391C21.2147 47.8568 20.6206 49.2612 21.6754 47.4514C21.6886 47.4273 21.462 47.3686 21.6468 47.0882C21.704 47.0016 22.0242 46.798 22.3086 46.3802C22.4004 46.2451 23.0255 45.1954 22.2459 46.6649C22.5044 46.7467 22.7005 46.9525 22.9305 47.0707C22.6913 47.679 21.9958 47.8737 21.6839 48.4858C21.2218 49.3953 21.4434 50.1017 20.74 49.9487C20.9934 49.1119 21.6828 47.8106 22.1407 47.8372C22.5356 47.1075 22.3467 46.7367 21.8829 47.2475C20.7235 49.877 21.0657 47.7033 20.1253 50.0455C20.1963 50.117 20.2392 50.2569 20.3265 50.2856C19.667 50.8019 20.1065 49.6915 20.0694 49.5348ZM23.5392 44.5941C23.4858 45.1268 23.4346 45.6587 23.3828 46.19C23.0901 46.0338 22.9553 45.6538 23.1576 44.8774C23.2847 44.7837 23.4127 44.6881 23.5392 44.5941ZM10.7098 76.2843C10.7811 76.104 10.9711 75.9387 11.1098 75.767C11.2603 75.9191 14.8252 76.065 13.0115 76.2143C12.7481 76.236 11.1415 75.917 10.7098 76.2843ZM71.5855 75.7764C72.0053 75.8974 72.4235 76.0185 72.8414 76.1395C72.1981 76.2163 71.5544 76.295 70.9111 76.3732C71.1365 76.1743 71.3601 75.9753 71.5855 75.7764ZM46.6419 46.9948C46.7272 46.8392 46.6857 47.477 46.9632 46.8345C46.8722 47.3713 46.7742 47.8677 46.68 48.3896C46.5068 48.4736 46.3334 48.5591 46.1602 48.643C46.1745 48.783 46.1873 48.9249 46.2015 49.0648C46.0805 48.9246 45.9595 48.7932 45.8377 48.6481C46.549 48.045 46.2652 47.6833 46.6419 46.9948ZM58.0147 39.4796C57.7513 39.7837 56.9983 38.7718 57.4915 39.891C57.1695 39.7929 56.8884 39.517 56.5492 38.8872C56.5814 38.7428 56.6131 38.5989 56.6453 38.4545C56.4147 38.5521 56.2494 38.4291 55.9104 38.1494C55.9105 38.149 55.9106 38.1485 55.9107 38.1481C55.4085 37.184 55.512 37.2049 55.7625 36.7874C56.0697 37.9202 56.4207 37.7832 56.9711 38.3849C57.3492 38.798 57.6015 39.4581 58.0147 39.4796ZM6.91153 76.2886C7.72518 75.975 6.99501 75.6824 8.43864 76.0156C8.34556 76.0953 8.25205 76.1743 8.15897 76.254C7.74317 76.2663 7.32734 76.2777 6.91153 76.2886ZM58.6714 43.6408C59.1443 43.3003 59.2021 42.4149 58.3067 42.7164C58.4702 43.4694 58.7812 42.9062 58.6714 43.6408ZM41.0888 54.0845C41.7069 55.3806 41.0049 55.4282 40.4506 55.0455C40.5155 54.9112 40.5806 54.7769 40.6457 54.6447C40.4853 54.4437 40.3248 54.2427 40.165 54.0414C40.4727 54.0558 40.7811 54.0701 41.0888 54.0845ZM70.5559 65.9968C69.6978 65.1992 70.8812 67.1583 70.3091 66.5875C69.852 66.1318 69.8616 65.2254 70.2299 65.3822C70.3312 65.5685 70.4412 65.7772 70.5549 65.9949C70.5553 65.9956 70.5556 65.9962 70.5559 65.9968ZM67.6114 60.3706C67.2994 60.728 67.2977 60.4385 67.756 61.1785C67.8868 61.3899 68.6191 63.2231 68.5751 62.3218C68.2607 61.6931 67.9343 61.026 67.6114 60.3706ZM33.0927 39.5281C33.2578 39.4309 34.3106 40.598 34.3036 40.8188C34.3039 40.8187 34.3041 40.8186 34.3044 40.8185C34.2832 41.4158 33.5322 40.0049 33.491 40.8004C33.1136 39.2731 32.1608 39.2362 33.1935 38.8394C33.6411 39.6264 33.2466 39.3451 33.0927 39.5281ZM26.8639 60.8862C26.8635 60.8868 26.8632 60.8874 26.8629 60.888C26.9195 60.803 27.5671 60.2015 27.6036 60.3375C27.0478 61.1825 26.9717 60.9364 26.7887 61.9055C26.6783 61.9038 26.574 61.8971 26.461 61.8986C26.5884 61.544 26.5842 61.3066 26.8639 60.8862ZM14.564 76.6697C14.1936 76.7197 13.5178 76.5126 13.0959 76.5249C14.4387 75.7294 16.0432 76.4712 14.564 76.6697ZM49.646 63.8308C49.6458 63.8319 49.6455 63.8329 49.6453 63.834C49.645 63.8335 49.6449 63.8329 49.6447 63.8325C49.6451 63.8319 49.6456 63.8314 49.646 63.8308ZM15.7891 59.5058C15.7211 59.5237 15.6688 59.5264 15.6295 59.5164C15.6262 59.5147 15.623 59.5129 15.6197 59.5112C15.6745 59.5112 15.7306 59.5099 15.7891 59.5058ZM31.6333 36.7382C31.5895 36.0547 32.9086 37.7453 33.1221 38.3984C32.992 38.4103 32.8901 38.453 32.7155 38.4165C32.752 37.7849 31.64 36.8521 31.6333 36.7382ZM54.0276 32.5309C53.3301 33.9109 53.304 31.9242 53.941 31.8801H53.7256C53.6998 31.9201 53.663 31.9565 53.6136 31.9881C53.6108 31.9889 53.5952 31.9772 53.5714 31.9572H54.0952C54.0871 32.102 54.0424 32.4988 54.0276 32.5309ZM37.5919 48.4089C38.0662 48.645 37.7614 47.8462 38.3205 49.0876C38.2821 49.1953 38.2435 49.3031 38.2051 49.4108C38.0008 49.0768 37.7961 48.7428 37.5919 48.4089ZM47.9239 41.6488C47.6575 42.3178 47.4102 42.9842 47.2566 43.5379C46.9624 44.598 47.0116 45.2445 47.9281 44.7022C47.9736 44.548 48.021 44.3923 48.0665 44.2381C47.9218 44.1554 47.9042 44.0419 47.9599 43.8895C48.0477 43.6494 48.3175 43.313 48.559 42.849C48.4613 42.6639 48.6382 42.2222 48.5486 42.078C48.3755 41.7991 47.956 42.1984 47.9239 41.6488ZM51.7225 73.3637C51.8028 73.3582 51.8832 73.3519 51.9629 73.3468C52.1938 73.5976 52.4247 73.8493 52.6556 74.1002C52.5067 74.1205 52.3578 74.1407 52.209 74.161C52.0468 73.8955 51.8853 73.6313 51.7231 73.3658C51.7229 73.3651 51.7227 73.3644 51.7225 73.3637ZM23.7001 42.3703C24.3214 42.9169 24.5029 42.2614 24.7774 40.8816C24.4187 41.3771 24.0588 41.8748 23.7001 42.3703ZM64.2575 51.4082C64.0723 51.5494 63.8874 51.6898 63.7031 51.8328C64.2361 52.3657 64.411 52.1298 64.5287 51.6879C64.438 51.5939 64.3482 51.5022 64.2575 51.4082ZM68.9501 60.5756C68.8601 60.289 68.7626 60.507 68.752 60.4776C68.5032 59.7628 68.5317 59.6304 67.9954 58.8689C67.9016 58.7896 67.8063 58.7132 67.7111 58.6346C67.4727 59.2298 67.8447 59.3895 67.9956 60.3213C68.0701 60.1025 68.145 59.8842 68.2202 59.6651C68.4131 60.1287 68.6055 60.5902 68.7984 61.0538C68.8704 61.0842 68.9419 61.115 69.0139 61.1455C68.9925 60.957 68.9758 60.7597 68.9501 60.5756ZM50.0737 69.9064C49.8569 69.4697 49.6398 69.0307 49.423 68.594C49.3108 68.6349 49.1983 68.6768 49.0861 68.7177C49.4149 69.1134 49.7448 69.5107 50.0737 69.9064ZM19.3168 51.3689C19.3356 51.4227 19.355 51.4758 19.3771 51.5255C19.3326 51.498 19.3164 51.4416 19.3168 51.3689ZM25.6798 61.7045C25.3427 62.15 25.0091 62.8748 24.7037 63.3985C24.9866 63.4985 25.6522 62.1072 26.0688 61.7184C26.0638 61.6166 25.8221 61.5161 25.6798 61.7045ZM41.7982 55.702C41.728 55.512 41.6584 55.3223 41.5873 55.1341C41.7512 54.8418 41.9163 54.5493 42.0811 54.2553C41.9774 54.1923 41.8726 54.1291 41.7688 54.0661C41.3487 55.1887 41.1635 55.1107 40.7767 55.2979H42.8899C42.91 55.1949 42.9247 55.0728 42.9206 54.9137C42.6709 55.1623 42.4205 55.4096 42.1702 55.6578H41.4964C41.597 55.6726 41.6975 55.6874 41.7982 55.702ZM52.3649 55.9431C51.9237 56.9229 51.876 57.3297 52.4838 56.9733C52.5918 56.6014 52.7007 56.2276 52.8087 55.8558C52.6605 55.8854 52.5121 55.9151 52.3649 55.9431ZM9.89316 68.4572C9.59091 69.3121 9.15412 69.0961 8.98174 69.9973C9.28181 69.6255 9.58274 69.2542 9.88188 68.8842C9.88526 68.7429 9.88977 68.5985 9.89316 68.4572ZM32.3624 33.0969C32.3448 32.6828 31.3081 32.4106 31.3644 31.1936C31.3193 31.1692 31.2756 31.147 31.2329 31.1265L29.8086 28.4176L28.4527 31.0899C28.4928 31.3252 28.5519 31.5162 28.5943 31.7448C28.3679 31.7676 28.1311 31.8046 27.9087 31.8229C27.9084 31.8235 27.9081 31.8241 27.9077 31.8247C27.5101 32.7058 28.0136 32.2656 28.1804 32.3792C28.249 32.4274 27.7895 32.9936 28.0545 32.8814C28.453 32.7114 28.9015 31.6531 29.2326 31.5059L29.8226 30.3431L30.4422 31.5218C30.4319 31.573 30.4076 31.6113 30.3651 31.6331C30.3603 31.6121 30.3548 31.5905 30.3487 31.5685L29.8242 30.571L29.3249 31.5551C28.9905 31.9677 28.6604 32.8099 29.0064 32.6762C29.2634 32.5772 29.3657 32.103 29.538 31.6687L29.828 31.0971L30.1327 31.6766C30.27 31.8881 30.386 32.1095 30.4069 32.3319C30.5678 31.2996 31.1869 32.956 30.8604 33.3429C31.6413 34.1061 31.3474 33.1927 30.8596 32.2542C31.4671 32.6723 30.8699 31.9084 31.0649 31.636C31.5226 32.1514 32.411 34.2615 32.3624 33.0969ZM51.6899 33.7939C51.3916 34.442 50.7111 35.3474 50.7618 35.9186C50.7914 36.2513 51.4122 35.3132 51.3139 36.125C51.6007 35.4916 51.5754 35.3017 51.3065 35.3001C51.3514 35.1455 51.3979 34.9895 51.4434 34.8352C51.5183 34.7908 51.5934 34.7443 51.6683 34.6999C51.6167 34.5811 51.5661 34.4622 51.5136 34.3452C51.6063 34.2035 51.6999 34.0601 51.7933 33.9187C51.7575 33.8787 51.7337 33.8291 51.6899 33.7939ZM22.2818 77.1674C22.0838 77.1703 21.8877 77.1732 21.6898 77.1768C21.7116 77.2356 21.7375 77.2967 21.7626 77.3571C21.7805 77.4048 21.7985 77.4525 21.8164 77.5002C21.7016 77.3298 20.7584 77.0465 20.3611 77.2285C20.1613 77.3198 20.6159 77.644 19.769 77.7006C20.3828 77.6839 20.9513 77.6397 21.5473 77.6122C21.4938 77.7085 21.4424 77.8059 21.389 77.9022C21.3893 77.9024 21.3897 77.9025 21.39 77.9027C21.588 77.9244 21.7883 77.9472 21.9863 77.9689C22.0853 77.7016 22.1828 77.4347 22.2818 77.1674ZM64.4025 50.6867C63.9314 50.1672 63.7425 50.0089 63.6116 50.4308C63.6118 50.4315 63.612 50.4322 63.6122 50.4329C63.8458 50.5972 64.0794 50.7617 64.313 50.9261C64.3431 50.8469 64.3734 50.7677 64.4025 50.6867ZM15.6889 56.0268C16.0379 57.8402 16.9314 54.6522 16.2927 55.0092C16.2636 55.0252 15.8654 55.9684 15.6889 56.0268ZM41.2903 53.6888C41.475 54.0371 41.6592 54.3865 41.8448 54.7366C41.9317 54.5913 42.0172 54.4443 42.1041 54.299C41.8331 54.0957 41.5612 53.8921 41.2903 53.6888ZM49.6684 59.7858C49.1899 59.9973 48.5787 60.8767 48.6338 61.4995C48.8003 61.279 48.9669 61.0584 49.1334 60.8379C48.9209 61.3106 48.7148 61.7801 48.4985 62.2552C48.8751 62.4922 48.9363 61.8421 49.4762 61.1079C49.5605 60.9946 50.4725 60.4738 50.2555 60.0038C50.2103 59.9084 49.704 60.7155 49.8025 60.0164C49.6469 60.2607 49.5313 60.4818 49.391 60.7164C49.2886 60.6831 49.1863 60.6496 49.083 60.6181C49.2783 60.3399 49.473 60.0639 49.6684 59.7858ZM49.8642 37.5228C49.4042 38.388 49.5088 38.5755 49.6981 38.8982C49.87 38.4749 50.0426 38.0517 50.2145 37.6284C50.0975 37.5942 49.9818 37.5574 49.8642 37.5228ZM47.8514 68.748C48.0632 69.2433 48.1773 68.9194 48.3232 69.0857C48.8741 69.7145 48.9805 70.2904 49.4668 70.9431C49.398 70.9198 49.334 70.8987 49.2674 70.8764C49.2677 70.877 49.2681 70.8776 49.2684 70.8782C50.9069 74.3314 50.4553 72.2945 49.2792 70.335C49.3369 70.2426 49.3957 70.152 49.4528 70.06C48.8178 69.2423 48.2264 68.4915 47.8514 68.748ZM21.6568 44.7527C21.5838 44.7632 21.425 44.2588 21.2539 44.9553C21.4812 45.7003 21.6646 44.7751 21.958 44.6754C21.9162 44.8663 21.871 45.0603 21.8301 45.2494C22.4968 44.3302 22.4585 44.1236 21.9101 44.2958C21.8725 44.3089 21.7296 44.7421 21.6568 44.7527ZM17.9381 51.1479C18.5819 51.6664 18.9278 50.2419 18.6811 50.1687C18.58 50.3369 18.6296 50.536 18.4782 50.6908C18.3257 50.8474 18.1331 50.8055 17.9381 51.1479ZM38.9723 47.4107C38.957 47.3719 39.0754 46.8455 38.855 47.0021C38.5204 47.7473 39.3503 48.4967 39.4658 48.2353C39.302 47.9321 39.1144 47.769 38.9731 47.4103C38.9728 47.4104 38.9726 47.4105 38.9723 47.4107ZM55.1803 54.2198C55.1823 54.2143 55.1697 54.1731 55.1468 54.1098L53.7668 51.7031L52.5198 54.1098C52.3498 54.3326 51.9544 54.9128 51.9926 55.0572C52.0654 55.2232 52.174 55.3451 52.2645 55.4892C52.368 55.1066 52.6942 54.5438 52.7542 54.2376L53.7787 52.2605L54.9124 54.2376C55.0226 54.3436 55.1156 54.3625 55.1793 54.2179C55.1796 54.2185 55.1799 54.2192 55.1803 54.2198ZM42.3656 13.0747C42.7022 13.1074 42.3361 13.3769 42.8779 13.3473C42.8814 13.4117 42.8855 13.4768 42.889 13.5412C42.7264 13.4758 42.5641 13.411 42.4016 13.3456C42.3893 13.2553 42.377 13.1649 42.3648 13.0743C42.3651 13.0744 42.3654 13.0745 42.3656 13.0747ZM40.4559 12.0049C40.8704 12.2893 40.8912 12.5447 41.4081 12.5385C41.2636 12.4452 41.1194 12.3515 40.975 12.2583C41.1303 12.244 41.2858 12.2293 41.4405 12.2148C41.3954 12.1592 41.3503 12.1036 41.3059 12.0484C41.5883 12.1475 41.8714 12.2473 42.1545 12.3468C42.1006 12.3572 42.0459 12.3677 41.9921 12.3782C42.1487 12.6042 42.1551 12.7389 42.1151 12.9194C42.185 12.9368 42.2543 12.9538 42.3242 12.9711C42.1766 12.9991 42.0288 13.0269 41.8813 13.0545C41.8116 12.9316 41.7342 12.7946 41.6691 12.6804C41.2004 12.5766 41.3401 12.8767 41.379 13.016C41.4323 13.2059 41.249 13.0773 41.2835 13.2157C41.2887 13.2376 41.443 13.317 41.4304 13.3489C41.3655 13.5093 41.1334 13.7678 40.8588 13.4115C41.0325 13.1808 40.8499 12.8189 41.0807 12.6229C40.6289 12.4794 40.552 12.2769 40.4559 12.0049ZM39.4571 17.3365C39.2921 17.1578 39.4526 17.0422 39.6469 17.0066C39.6469 17.0065 39.647 17.0063 39.6471 17.0062C39.6898 16.9984 39.9866 17.0807 39.9375 17.1514C39.8564 17.2663 39.4008 17.1137 39.6571 17.3234C39.5887 17.3257 39.5255 17.3325 39.4571 17.3365ZM39.3472 17.6194C39.2047 17.6435 38.9014 17.4486 39.0359 17.3964C39.0357 17.3963 39.0354 17.3962 39.0351 17.3961C39.0914 17.3743 39.3057 17.5793 39.1199 17.3078C39.3346 17.3786 39.5311 17.4409 39.7392 17.5089C39.7249 17.5455 39.7142 17.5801 39.6984 17.6181C39.3818 17.4289 39.4888 17.5949 39.3472 17.6194ZM40.9755 13.6309C41.2655 13.7909 41.2887 13.7397 41.5368 13.7569C41.4868 13.8327 41.436 13.9083 41.3861 13.9838C41.2491 13.866 41.1125 13.7488 40.9755 13.6309ZM41.9698 11.7571C41.9698 11.7569 41.9699 11.7568 41.9699 11.7567C41.9365 11.7069 41.903 11.657 41.87 11.6079C41.9835 11.6449 42.0965 11.6818 42.21 11.7188C42.1576 11.5758 42.1055 11.4323 42.0524 11.2889C42.3694 11.4616 42.233 11.6031 42.4123 11.8083C42.2464 11.8971 42.026 11.8697 41.7481 11.7419C41.8217 11.7469 41.896 11.7524 41.9698 11.7571ZM42.2215 30.0616C42.1478 29.9857 42.0737 29.9101 42 29.8341C41.9384 29.8553 41.8866 29.8809 41.8184 29.8992C42.1523 30.2032 41.8033 30.0415 41.7554 30.1971C41.6092 30.6742 42.2714 30.8593 41.1883 30.8146C41.3899 30.5165 40.9131 30.4314 40.6892 30.0789C40.9527 30.1609 41.4069 30.6263 41.5855 30.5541C41.439 30.2025 41.3059 29.8684 41.2629 29.5381C41.2172 29.5243 41.1713 29.5103 41.1256 29.4965C41.1326 29.5489 41.1399 29.6012 41.1469 29.6536C41.0553 29.555 40.9641 29.4578 40.8716 29.3578C41.1003 29.54 41.0265 29.3302 41.3113 29.4957C41.4381 29.5694 41.5891 29.7214 41.6961 29.82C41.8107 29.7609 41.9207 29.6965 42.0339 29.6355C42.1138 29.7364 42.1938 29.8373 42.2739 29.9379C42.2572 29.9793 42.2397 30.02 42.223 30.0615C42.2225 30.0615 42.222 30.0616 42.2215 30.0616ZM41.2747 11.099C41.6383 11.0649 41.7961 11.2545 41.5137 11.537C41.4342 11.3908 41.3542 11.2452 41.2747 11.099ZM41.5181 11.6381C41.5766 11.6506 41.6343 11.6633 41.6928 11.6758C41.7591 11.7828 41.8246 11.8899 41.8909 11.9969C41.7356 11.9334 41.5802 11.8702 41.4254 11.8074C41.456 11.751 41.4875 11.6945 41.5181 11.6381ZM39.7945 15.5018C39.8071 15.4541 39.8139 15.4527 39.8622 15.4095C39.862 15.4095 39.8619 15.4095 39.8617 15.4095C39.8804 15.3922 40.057 15.2573 40.1623 15.3348C40.1199 15.4244 40.0707 15.518 40.0253 15.6087C39.9482 15.5736 39.8727 15.5366 39.7945 15.5018ZM40.3836 14.4919C40.3839 14.4919 40.3842 14.4919 40.3845 14.492C40.4181 14.4684 40.469 14.4557 40.4922 14.4256C40.6135 14.6362 40.2788 14.4925 40.3163 14.6474C40.3545 14.8026 40.5004 14.9596 40.0086 14.8293C39.959 14.7615 39.882 14.6768 39.822 14.6025C40.0774 14.537 39.9306 14.4115 39.817 14.1997C40.0063 14.2974 40.1943 14.3943 40.3836 14.4919ZM42.9337 30.7853C42.6986 30.8659 42.8983 30.7248 42.8992 30.7201C42.8995 30.72 42.8998 30.72 42.9001 30.7199C42.5652 30.5602 43.039 30.693 42.9499 30.4288C43.0233 30.438 43.0995 30.4451 43.1734 30.4537C43.0954 30.5631 43.004 30.6814 42.9337 30.7853ZM38.7024 22.271C38.7653 22.2365 38.8282 22.2015 38.8911 22.167C38.9504 22.3229 39.2219 22.2345 39.0536 22.4728C38.9359 22.4059 38.8186 22.3387 38.7016 22.2714C38.7018 22.2713 38.7021 22.2711 38.7024 22.271ZM38.9539 16.0167C38.9137 15.7909 38.9206 15.6422 39.1941 15.5813C39.1944 15.5813 39.1947 15.5813 39.195 15.5813C39.2115 15.5782 39.3237 15.6894 39.3634 15.6944C39.3597 15.6517 39.3457 15.6026 39.3382 15.5577C39.4479 15.607 39.5574 15.6564 39.6665 15.7054C39.5897 15.7829 39.5128 15.8605 39.4358 15.9384C39.5056 15.9561 39.5749 15.9731 39.6446 15.9908C39.6375 16.086 39.6304 16.1809 39.6233 16.2761C39.4609 16.1605 39.2983 16.045 39.1351 15.9295C39.0745 15.9584 39.0152 15.9881 38.9539 16.0167ZM39.236 25.0932C39.2929 25.0321 39.4345 25.0217 39.4745 24.951C39.5137 24.8807 39.3457 24.8713 39.552 24.79C39.6059 24.8313 39.665 24.8735 39.7206 24.9152C39.9874 24.558 39.5757 24.5406 40.0143 24.3179C39.9862 24.5467 40.1098 24.6615 40.3147 24.7669C39.9621 24.9346 39.577 24.9192 39.3015 25.1879C39.2802 25.1565 39.2558 25.1245 39.2369 25.0931C39.2366 25.0932 39.2363 25.0932 39.236 25.0932ZM38.3413 7.04404C38.4187 6.95562 38.3927 6.65132 38.6604 6.62454C38.7264 6.61799 39.4285 6.83741 39.5139 6.88076C39.8007 7.02802 39.7756 7.17627 40.0324 7.13245C40.0112 7.17978 39.9995 7.23017 39.9817 7.27876C40.1796 7.36739 40.3769 7.4558 40.5739 7.54444C40.5728 7.47385 40.5715 7.40313 40.5697 7.33221C40.6352 7.36154 40.7009 7.39094 40.7664 7.42027C40.667 7.62227 40.9741 7.62721 41.1525 7.847C41.3172 7.80912 41.4817 7.77023 41.6462 7.73269C41.6043 7.78088 41.5611 7.84087 41.5199 7.88124C41.8451 8.05201 41.825 7.89645 41.8958 7.90694C42.2961 7.96661 41.8364 8.4518 42.2911 8.73764C42.3899 8.67282 42.4897 8.60286 42.5889 8.53565C42.6344 8.59194 42.6798 8.64858 42.7254 8.70487C42.2897 8.75198 42.054 8.9313 41.7251 9.07563C41.7276 9.10475 41.7304 9.13409 41.7323 9.16253C41.8839 9.23017 42.0348 9.29787 42.1863 9.36551C42.187 9.40793 42.1873 9.45071 42.188 9.49313C41.7491 9.14959 41.687 9.2904 41.306 9.30733C41.1785 9.1332 41.337 9.07632 41.0134 8.9239C41.108 9.34998 40.5827 9.53096 40.7132 9.96468C40.7453 10.0722 41.158 10.2783 41.0339 10.4313C40.9915 10.4028 40.9101 10.3608 40.8524 10.3273C40.9012 10.7236 40.9291 10.9632 40.573 11.1717C40.7302 11.228 40.8879 11.2849 41.0452 11.3412C41.0041 11.2387 40.9619 11.1354 40.9207 11.0332C41.188 11.111 41.263 11.231 41.3584 11.0339C41.4367 10.8724 41.2808 10.9139 41.23 10.834C41.1605 10.7254 41.3813 10.7709 41.3024 10.652C41.242 10.5604 41.0134 10.5126 41.1287 10.41C41.3647 10.5924 41.6087 10.7802 41.8478 10.9646C41.7732 10.9663 41.6978 10.9674 41.6225 10.9689C41.5684 10.9023 41.5148 10.8367 41.4607 10.7701C41.5307 10.9443 41.5967 11.1087 41.6693 11.2889C41.3096 11.0623 41.392 11.2522 41.4045 11.3391C41.424 11.4747 41.2067 11.2583 41.2171 11.346C41.2282 11.434 41.4836 11.6506 41.3618 11.7387C41.2253 11.5906 41.0308 11.602 40.8837 11.5075C40.7367 11.4129 40.7653 11.2696 40.535 11.3059C40.5475 11.6033 41.266 11.6466 41.2833 11.8519C41.3041 12.0985 40.3164 11.6609 40.1371 11.5008C39.996 11.3749 40.1051 11.2388 39.9648 11.1128C39.5347 11.2392 40.1129 11.5313 40.203 11.6347C40.5308 12.0108 39.4863 11.346 39.7842 11.7462C39.5801 11.6394 39.3963 11.5437 39.2007 11.4412C39.2209 11.4946 39.2593 11.5426 39.2682 11.5994C39.7313 11.6765 39.6636 11.7691 39.6382 11.8213C39.5986 11.9037 39.8576 11.8753 39.8973 11.9222C40.0033 12.0483 39.8957 12.1099 40.1009 12.1417C40.0059 12.126 39.9096 12.1122 39.8149 12.0975C39.8696 12.2443 40.6172 12.8988 40.5504 12.5983C40.8599 12.7779 40.6718 12.7703 40.5962 12.7999C40.5207 12.8296 40.7246 12.9303 40.6633 12.9589C40.4187 13.0724 40.1324 12.775 39.8745 12.6087C39.9379 12.9518 40.1841 12.77 40.1304 13.1919C40.3353 13.3377 40.6553 13.2904 40.7146 13.4927C40.3157 13.3251 39.9875 13.2881 39.7601 13.4222C39.8393 13.4858 39.9192 13.5498 39.9984 13.6134C39.5879 13.5434 39.245 13.3028 39.5867 13.7241C38.8273 13.21 39.3106 13.544 38.8898 13.5579C38.8049 13.5609 38.6783 13.3924 38.5673 13.4005C38.5172 13.4042 38.6166 13.5239 38.4901 13.531C38.4278 13.5342 38.0499 13.5059 38.1544 13.6694C38.581 13.8011 38.8316 14.1378 39.23 14.1557C39.0157 14.3836 39.111 14.6657 38.724 14.0968C38.5708 14.1052 38.418 14.114 38.2654 14.1227C38.3357 14.2171 38.405 14.3115 38.4744 14.406C38.147 14.2513 38.0598 14.1986 38.0233 14.4139C37.9874 14.2946 37.9501 14.1751 37.9137 14.0551C37.8497 14.0197 37.7874 13.9744 37.7226 13.9454C37.7971 14.1073 37.7103 14.4147 37.7625 14.5258C37.8146 14.637 37.9039 14.5174 37.9777 14.5787C38.5854 15.0866 38.0835 14.8194 38.1432 14.9957C38.1788 15.0994 38.3369 14.9733 38.3483 15.025C38.3894 15.2159 37.9914 15.096 37.9263 15.2145C38.1557 15.2756 38.3882 15.3385 38.619 15.4016C38.5446 15.5229 38.4721 15.6633 38.4799 15.8145C38.4828 15.8738 38.6549 15.9162 38.6615 15.9289C38.6959 15.9929 38.7038 16.1876 38.6964 16.204C38.6368 16.3262 38.4209 16.2226 38.3501 16.3349C38.3552 16.2794 38.3606 16.2276 38.3658 16.1736C38.0289 15.9793 37.6921 15.7847 37.3545 15.5901C37.2714 15.6932 37.1887 15.7967 37.1054 15.9002C37.2638 15.8733 37.4218 15.8458 37.5802 15.819C37.7944 16.0919 38.0093 16.3651 38.2242 16.6383C38.0173 16.6212 37.8106 16.6038 37.6037 16.5867C37.5554 16.797 38.2739 17.1091 37.6165 16.8916C37.6407 16.9728 37.6648 17.054 37.6884 17.1349C37.6049 17.0833 37.5211 17.0316 37.4377 16.98C37.4581 17.0736 37.4782 17.1669 37.4993 17.2608C37.844 17.3455 38.2043 17.4398 38.5396 17.5207C38.5413 17.6855 38.2773 17.5567 38.202 17.5434C38.0024 17.5085 38.1851 17.7286 38.0038 17.6895C37.9417 17.6758 37.833 17.4608 37.6114 17.4054C37.5684 17.3947 36.7491 17.2002 36.8635 17.3947C36.9973 17.459 37.1645 17.532 37.3112 17.5998C37.318 17.7878 36.587 17.5164 36.4024 17.3997C36.4992 17.5464 36.453 17.6671 36.6575 17.7895C36.6426 17.8323 36.6275 17.8746 36.6126 17.9174C36.116 17.6167 36.1268 17.8317 36.5664 18.0653C36.6119 18.0017 36.6581 17.9384 36.7036 17.8748C37.2231 18.1998 37.6574 18.1546 36.9336 18.3386C36.6081 18.2802 37.0465 18.2096 36.8 18.1713C36.6172 18.2277 36.6652 18.3904 36.4114 18.4039C36.0946 18.4203 35.9432 18.1296 36.0946 18.6124C37.2411 18.2876 36.5772 18.9769 36.6527 19.4364C35.9232 19.1743 35.5348 19.2712 35.4798 19.6495L35.3988 19.8829L35.4798 20.003C35.5146 20.0381 35.5567 20.0715 35.6056 20.1032C35.721 20.0155 35.7084 19.9559 35.6858 19.9L35.6521 19.8499L35.6858 19.7525C35.7076 19.7164 35.7251 19.6775 35.769 19.6629C35.8758 19.6274 35.9657 19.7686 36.1111 19.7305C36.2565 19.6924 36.488 19.5729 36.6857 19.5596C36.7702 19.6968 36.8722 20.2167 36.6484 19.7947C36.4188 19.853 36.2134 19.8547 36.0596 19.9394V19.7131C36.0513 19.7717 36.0541 19.8314 36.0729 19.8943C36.4449 19.7942 36.6525 19.6841 36.7741 19.9028C36.2389 20.0051 36.0399 20.4223 35.5273 20.6086C35.5609 20.3936 36.0762 20.2467 36.2558 20.0423C36.2737 20.0216 36.0817 19.9329 36.0729 19.8943C35.7244 20.255 35.5927 20.3853 35.0433 20.5453C35.1401 20.6288 35.1097 20.726 35.3549 20.6154C35.2616 20.6895 35.1683 20.7638 35.0749 20.8376C35.0946 20.8706 35.1197 20.8967 35.136 20.9341C35.4735 20.7026 35.2989 20.9114 35.4978 20.8983C35.6969 20.885 35.9368 20.6493 36.0356 20.837C36.0888 20.7313 36.1328 20.6371 36.1825 20.5358C36.337 20.6114 36.4922 20.6872 36.6467 20.7628C36.8253 20.5661 37.0613 20.2154 37.3554 20.0748C37.2735 20.1861 37.5634 20.2824 37.5819 20.2996C37.6526 20.3664 37.4465 20.4138 37.4451 20.4222C37.4199 20.5954 37.5355 20.6699 37.2813 20.858C37.4552 20.8917 37.42 21.0003 37.4783 21.0991C37.5103 21.1535 37.7095 21.0403 37.6871 21.0927C37.5376 21.4415 37.1687 21.3648 37.8835 21.536C38.0004 21.4136 38.121 21.2901 38.2392 21.167C38.3169 21.1879 38.3947 21.2084 38.4724 21.2292C38.4624 21.2741 38.4521 21.3189 38.4422 21.3638C38.1328 21.5176 37.8227 21.6716 37.5133 21.8255C37.514 21.869 37.5152 21.9123 37.5159 21.9558C37.4554 21.9109 37.3948 21.8658 37.3343 21.8209C37.2772 21.8426 37.2202 21.8647 37.1631 21.8864C37.1235 22.0178 37.083 22.1494 37.0428 22.2811C37.1512 22.2291 37.2603 22.1767 37.3687 22.1246C37.3196 22.4008 37.231 22.4511 37.6228 22.4945C37.6933 22.6435 38.2028 22.5388 38.4346 22.5294C38.3897 22.5901 38.3439 22.6512 38.2992 22.7122C38.3984 22.6871 38.4973 22.6624 38.5965 22.6373C38.4915 22.7383 38.3868 22.8398 38.2824 22.9405C38.5756 22.821 38.6694 22.7881 38.6927 22.5871C39.0699 22.4634 39.0483 22.8076 38.9847 22.9751C38.9364 23.1022 38.5977 23.1573 38.5673 23.1854C38.4634 23.2803 38.6357 23.3639 38.6299 23.4024C38.6066 23.5648 38.6635 23.642 38.6532 23.7833C38.6508 23.811 38.4948 23.9631 38.4915 23.971C38.4793 24.0261 38.4375 24.1679 38.4404 24.1802C38.5854 24.8166 39.0878 23.8079 39.2666 24.3777C39.3649 24.3088 39.4631 24.2415 39.5616 24.173C39.588 24.2096 39.6143 24.2468 39.6407 24.2834C39.5772 24.3782 39.3852 24.3979 39.5656 24.4331C39.4314 24.492 39.2972 24.5509 39.1635 24.6091C39.256 24.6175 39.3471 24.6245 39.44 24.6339C39.0209 24.931 39.0457 25.2385 38.5034 25.4869C38.3188 25.5715 38.042 25.4831 37.8962 25.6759C37.897 25.7728 38.0873 25.6118 38.1146 25.6379C38.3084 25.8279 37.998 25.9664 38.1259 26.0197C38.2634 25.9694 38.4039 25.9186 38.5429 25.8679C38.5224 25.9224 38.5019 25.977 38.4816 26.0318C38.5732 25.9963 38.665 25.9611 38.7566 25.9256C38.7458 25.8894 38.733 25.8489 38.7235 25.8154C39.0836 25.6887 39.4316 26.0042 39.0681 25.9993C38.9204 25.9971 38.9146 25.8608 38.5495 26.1313C38.6595 26.2073 38.7779 26.2967 38.8907 26.3782C38.8062 26.4247 38.7215 26.4711 38.637 26.5176C38.7672 26.6383 39.0441 26.3309 39.2289 26.2388C39.2511 26.2702 39.2728 26.3023 39.295 26.3337C39.2187 26.3899 39.1382 26.4473 39.0648 26.5028C39.1984 26.4378 39.5168 26.3024 39.4528 26.461C39.4107 26.5635 39.0242 26.6285 39.1328 26.7295C39.3355 26.6166 39.5655 26.4455 39.7015 26.5505C39.492 26.6724 39.3033 26.7905 39.0812 26.9149C39.3751 26.983 39.0802 27.2284 39.4228 27.3096C39.6398 27.3613 40.2705 27.2655 39.4755 27.7665C39.5003 27.8712 39.6937 27.7373 39.7544 27.7417C40.0415 27.7618 39.6936 28.0574 39.6825 28.0935C39.6107 28.3238 39.7829 28.325 39.659 28.5453C39.8105 28.461 39.9552 28.384 40.1034 28.303C39.8134 28.3029 39.7949 28.2386 39.7633 28.0508C39.8217 28.0899 39.8809 28.1286 39.9393 28.1677C40.0605 28.0959 40.1817 28.0242 40.3025 27.9531C39.5556 27.6969 40.3965 27.4233 40.7787 27.7601C40.5643 27.9128 40.3512 28.0665 40.136 28.2192C40.6105 28.2869 40.3619 28.5547 40.4266 28.8672C40.4346 28.9042 40.6283 28.9567 40.6606 29.0047C40.6611 29.0034 40.6615 29.0021 40.662 29.0008C40.8976 28.9229 40.9771 28.8291 41.1708 28.7258C41.2093 28.7413 41.2478 28.7569 41.2863 28.7724C41.1677 28.9094 41.0339 28.949 41.1307 29.0535C41.2714 28.9625 41.4123 28.8717 41.5531 28.7807C41.6253 28.9121 41.5072 29.0808 41.6396 29.1705C41.5727 29.1777 41.5059 29.1853 41.439 29.1925C41.4309 29.5359 40.4468 29.7579 40.9854 29.745C40.9155 29.7963 40.8447 29.8476 40.7748 29.8989C40.7137 29.8237 40.6532 29.7483 40.5924 29.6735C40.4833 29.7259 40.3747 29.7779 40.2659 29.8306C40.3434 29.9048 40.4222 29.9789 40.4998 30.053C40.3943 30.0234 40.2884 29.9933 40.1829 29.9636C40.1834 30.0944 40.184 30.2251 40.1845 30.3558C40.5267 30.0456 40.6474 30.1656 41.0278 29.9415C40.7927 30.291 40.4333 30.6528 40.8538 30.8021C40.9374 30.8316 41.1972 30.663 40.9432 30.9923C41.3616 30.7341 41.6684 30.8341 42.0719 30.5998C42.0237 30.5535 41.9818 30.5014 41.9299 30.4591C41.8165 30.5935 41.4242 30.8025 41.259 30.7671C41.0484 30.7216 41.2359 30.408 40.7983 30.6358C40.795 30.5773 40.7849 30.5265 40.779 30.471C40.8981 30.4355 41.0176 30.3993 41.1365 30.3634C40.8985 30.3163 40.9125 30.2049 41.1564 30.0031C41.2991 30.1297 41.441 30.2563 41.583 30.3833C41.5901 30.3506 41.5972 30.3175 41.6036 30.2851C41.9455 30.2641 42.1506 30.0069 42.3227 30.2004C42.1931 30.2635 42.0635 30.3269 41.9333 30.3903C42.3187 30.2994 42.4283 30.5233 42.7893 30.2539C42.7012 30.3821 42.631 30.4344 42.8638 30.3656C42.6514 30.6939 42.3274 30.9985 41.8409 31.1628C41.9471 31.1921 42.0534 31.2215 42.1594 31.2505C42.2647 31.1501 42.3694 31.0501 42.4748 30.9497C42.5244 31.0684 42.5745 31.1878 42.6246 31.3058C42.2621 31.5008 42.4025 31.1407 42.107 31.3721C42.0477 31.4185 42.22 31.4095 42.1909 31.4444C41.8741 31.8166 42.0305 31.4027 41.7474 31.6073C41.7701 31.82 41.4712 31.91 41.5033 31.9912L41.9166 32.6427L42.1633 31.9912C42.1826 31.9598 42.1652 31.8819 42.0884 31.713C42.1993 31.7569 42.3127 31.8011 42.4225 31.8453C42.4899 31.7266 42.245 31.6165 42.252 31.4891C42.2566 31.4093 42.7192 31.5377 42.4685 31.3217C42.422 31.2823 41.846 31.1467 41.9968 30.9018C42.1138 30.7118 42.4364 30.9765 42.6191 30.9335C42.8018 30.8905 42.4201 30.3921 43.0285 30.6057C42.9246 30.6241 42.8478 30.6754 42.7544 30.7069C42.8531 30.788 42.951 30.8679 43.0492 30.9483C42.9768 30.7335 43.2202 30.6705 43.0027 30.4414C43.5043 30.4539 43.2339 30.0521 42.7463 29.8804C42.7811 29.9763 43.0153 30.008 42.8442 30.0315C42.7328 29.9869 42.6217 29.9432 42.5103 29.8986C42.5975 29.7567 42.646 29.6521 42.9381 29.8827C42.9574 29.8636 42.9766 29.8447 42.9959 29.8255C42.7621 29.7035 42.5272 29.5815 42.2934 29.4594C42.2805 29.4186 42.268 29.3779 42.2552 29.3371C42.3223 29.3324 42.39 29.328 42.4579 29.3233C42.8103 29.5515 42.7872 29.6285 43.1131 29.4985C42.9845 29.4333 42.8565 29.3681 42.7279 29.3029C42.99 29.1887 43.3049 29.3397 43.4164 29.0876C43.7696 29.5004 42.9244 29.207 43.8228 29.6553C43.7401 29.6733 43.6564 29.6912 43.5738 29.7091C43.7004 29.7815 43.8272 29.8538 43.954 29.9258C44.0126 29.6369 43.3676 28.7857 44.0207 28.8992C43.9617 28.844 43.9118 28.7932 43.8478 28.735C44.2741 28.7393 43.5406 28.2825 44.0685 28.3347C44.1238 28.3404 44.8285 28.7385 44.9128 28.505C44.8161 28.4636 44.6565 28.3873 44.5357 28.3325C44.6173 28.3136 44.7013 28.2963 44.784 28.2784C44.7015 28.2264 44.6192 28.174 44.5361 28.1217C44.4617 28.1863 44.3868 28.2504 44.3124 28.3149C44.3164 28.2324 44.3207 28.1494 44.3247 28.0668C44.1387 28.0842 44.1173 28.1232 43.9166 27.9564C43.9413 27.8729 43.9652 27.789 43.9899 27.7056C43.9357 27.6685 43.8807 27.6312 43.8264 27.5942C43.6342 27.5445 43.4456 27.4971 43.2508 27.4461C43.4925 27.3174 43.587 27.1477 44.0051 27.1652C44.0758 27.1679 44.2558 27.3734 44.1408 27.0934C44.262 27.1506 44.3616 27.1944 44.4739 27.2467C44.2472 26.8611 44.3832 26.8396 44.7391 26.7336C44.4394 26.7676 44.6521 26.7099 44.5497 26.6119C44.479 26.5445 44.4413 26.6508 44.3595 26.5958C44.2784 26.541 43.9929 26.2356 43.895 26.3258C44.4772 26.9579 43.5809 26.6027 43.751 27.1258C43.6854 27.0255 43.6197 26.9248 43.554 26.8245C43.4785 26.8185 43.4101 26.8128 43.3297 26.8069C43.568 26.6817 43.4291 26.7311 43.3585 26.5954C43.2879 26.4596 43.2669 26.2664 43.2854 26.1532C43.2912 26.1176 43.4361 26.2307 43.4859 26.1686C43.52 26.1264 43.3459 25.8773 43.6425 25.9883C43.8357 26.0604 44.2365 26.521 44.3792 26.2325C44.586 26.2683 44.4612 26.3783 44.4814 26.3921C44.6827 26.5241 44.9319 26.4276 44.8095 26.2641C44.7987 26.2505 44.5998 26.2318 44.5696 26.1288C44.4967 25.8841 44.7359 25.8834 45.0484 25.9048C44.751 25.7415 44.459 25.4202 44.6584 25.3017C44.576 25.2493 44.4928 25.1971 44.4098 25.1444C44.4422 25.1945 44.4739 25.2442 44.5063 25.2943C44.4371 25.2966 44.3818 25.3081 44.3033 25.3049C44.3165 25.0921 43.9109 24.8583 43.8001 24.6977C43.4218 24.1484 44.4394 24.8755 44.6039 25.0227C44.5081 25.0216 44.4039 25.0147 44.3044 25.0114C44.412 25.06 44.5206 25.1091 44.6287 25.1584C44.8411 24.7256 45.3471 25.4356 45.6529 25.3148C45.1615 24.9987 45.1918 24.8129 45.6239 24.773C45.6326 24.749 45.6433 24.7259 45.6514 24.7016C45.5776 24.66 45.4617 24.6021 45.4149 24.571C45.4501 24.2802 46.2723 24.6364 46.3598 24.6509C46.748 24.7153 46.3231 24.4019 46.3344 24.3693C46.3827 24.2323 46.6079 24.2982 46.5805 24.1312C46.5506 23.9513 46.347 23.9623 46.2252 23.8512C46.1286 23.7627 46.1606 23.6486 46.0653 23.5472C46.1523 23.612 46.2365 23.6778 46.3238 23.7428C46.5224 23.6712 46.7052 23.6229 46.8146 23.4835C46.2033 22.9588 47.4568 23.3992 46.4704 22.9816C46.3314 23.0959 46.1813 23.1237 45.8984 23.0805C45.9155 22.9685 45.9335 22.8567 45.9507 22.7446C46.0697 22.7689 46.182 22.8001 46.3056 22.8202C46.1188 22.6366 46.298 22.5172 46.2655 22.4189C46.1128 21.9581 45.6851 21.8632 46.4643 21.9019C46.4254 22.1353 46.7358 22.2901 46.5927 22.4694C46.836 22.5369 46.841 22.412 47.0737 22.6108C47.1053 22.384 46.8368 22.3281 46.664 22.1473C46.515 21.9914 46.5705 21.8551 46.3309 21.7445C46.4673 21.796 46.598 21.8484 46.7343 21.8998C46.7958 21.7734 46.8586 21.6476 46.9202 21.5212C47.0288 21.6425 47.1377 21.7639 47.2456 21.8849C47.317 21.87 47.3882 21.8549 47.4596 21.8399C47.1931 21.3201 48.2316 21.1728 47.131 20.729C47.1719 20.563 47.3139 20.6107 47.5546 20.6297C47.4788 20.5806 47.4163 20.5385 47.3314 20.4849C47.4635 20.4308 47.1989 20.2061 47.3197 20.1605C47.4399 20.1145 47.7353 20.2359 47.2627 19.9841C47.4275 19.9978 47.5689 20.0002 47.7239 20.0094C47.6316 19.922 47.5405 19.8354 47.4487 19.7487C47.4978 19.735 47.5469 19.7213 47.5959 19.7075V19.9449C47.6086 19.9124 47.6212 19.8798 47.6339 19.8473C47.3916 19.934 47.3888 19.6821 47.1906 19.6695C47.3946 19.4615 48.1715 19.076 47.9327 18.946C47.7429 19.0473 47.5536 19.1483 47.3638 19.2497C47.3811 19.1839 47.3983 19.1181 47.4154 19.052C47.4768 19.0178 47.5384 18.9841 47.5999 18.9499C47.5921 18.983 47.5843 19.0157 47.5759 19.0491C47.672 18.9757 47.7679 18.9029 47.8642 18.8299C47.6719 18.8389 47.4795 18.8478 47.2871 18.8564C47.2151 19.0104 47.1431 19.1646 47.0711 19.3187C46.8706 19.2707 46.9702 19.1178 46.7612 19.0934C46.982 18.871 47.1516 18.8275 47.4581 18.7198C47.4168 18.6988 47.3762 18.677 47.3349 18.656C47.6342 18.5338 47.7778 18.3916 47.8519 18.598C47.9274 18.5435 47.999 18.4906 48.0779 18.4349C48.049 18.4094 48.1081 18.3539 48.0589 18.3347C47.9243 18.2826 47.3813 18.4626 47.2071 18.5579C47.1158 18.6079 47.3408 18.6131 47.2074 18.6751C46.8821 18.8261 46.918 18.5381 46.7519 19.0107C46.496 19.0093 46.6384 18.9092 46.6403 18.7657C46.538 18.828 46.4361 18.8898 46.3336 18.9518C46.3564 18.8743 46.3789 18.7968 46.4017 18.7193C46.9873 18.5184 46.9984 18.0254 47.654 18.1364C47.6268 18.0203 47.5998 17.9046 47.574 17.7882C47.6411 17.7813 47.7075 17.7747 47.7745 17.7678C47.7681 17.8295 47.762 17.8906 47.7562 17.9519C47.8317 17.8454 47.9066 17.7392 47.9821 17.6327C47.7895 17.5667 47.5677 17.6139 47.2957 17.6756C47.1944 17.9152 47.4113 17.745 47.5182 17.8388C47.3626 17.9114 47.2242 17.9874 47.0578 18.0578C47.3453 17.838 47.0147 17.7551 46.9762 17.7168C46.8589 17.6003 47.2262 17.554 47.1859 17.457C47.1454 17.36 46.9042 17.3423 47.1756 17.1108C47.0027 17.199 46.8262 17.2949 46.6709 17.3794C46.5408 17.2619 46.7605 17.1885 46.7795 17.1601C47.0956 16.7005 46.6614 16.754 46.4788 16.5004C46.4425 16.5624 46.4117 16.622 46.3789 16.6827C45.9062 16.6588 46.0892 16.7426 46.0577 16.9843C46.0099 16.7964 45.6475 16.8563 45.4944 16.7834C45.3415 16.7104 45.4002 16.4248 45.4884 16.287C45.7763 16.3574 45.7355 16.609 45.8864 16.7715C46.0524 16.6614 46.1915 16.5655 46.3747 16.4461C45.9456 16.5159 46.1603 16.3247 46.1904 16.2619C46.2789 16.0777 45.962 16.2405 46.2709 16.0015C46.1544 16.0632 46.0563 16.1148 45.9475 16.1726C45.8812 15.9167 45.9648 15.5631 45.4543 15.6302C45.7305 15.4749 45.9981 15.3282 46.2792 15.1679C46.0171 15.1765 46.1934 14.9836 46.1024 14.926C46.0114 14.8689 45.7982 15.0145 45.6618 14.962C45.6367 14.9523 45.7613 14.8435 45.6337 14.8523C45.5053 14.861 44.634 15.0919 45.3138 14.7275C45.2757 14.6431 45.2617 14.5521 45.2328 14.4652C45.3112 14.5248 45.3884 14.585 45.4666 14.6442C45.6001 14.4933 45.7333 14.3431 45.8668 14.1922C45.7134 14.2581 45.5574 14.3253 45.4062 14.3906C45.1341 14.2999 45.3119 14.0464 45.1627 13.8921C45.1377 13.8664 44.8791 14.0859 44.8864 13.9126C44.8937 13.7393 45.3932 13.3636 45.0652 13.2386C45.0484 13.2325 44.5929 13.3746 44.8431 13.146C44.8998 13.0941 45.0372 13.1245 45.1024 13.0379C45.1676 12.9512 45.1424 12.7223 45.3415 12.6038C45.2694 12.6425 45.1995 12.6925 45.128 12.7355C45.0765 12.7201 45.0248 12.7042 44.9738 12.6881C45.1012 12.6205 45.2287 12.5526 45.3554 12.4854C44.9606 12.4457 44.4222 12.5924 44.4436 12.2304C44.2959 12.4031 44.1474 12.5761 43.9995 12.7484C44.1419 12.7043 44.2851 12.6598 44.4273 12.6153C44.4396 12.771 44.4524 12.927 44.4647 13.0827C44.625 13.0292 44.7848 12.9755 44.9451 12.922C44.9428 12.966 44.941 13.0095 44.9388 13.0535C44.8263 13.099 44.7143 13.1442 44.6016 13.1894C44.6622 13.2441 44.7234 13.2987 44.7838 13.353C44.0762 13.5346 44.6457 12.9411 44.1203 13.2261C44.188 13.1541 44.2561 13.0817 44.3244 13.0094C44.0586 13.1255 44.1021 13.0261 44.0882 12.8961C43.973 12.985 43.861 13.0757 43.7436 13.1632C43.8704 12.9666 43.7584 12.7864 43.7726 12.6414C43.7788 12.5778 43.9909 12.5322 44.0057 12.5068C44.0841 12.3752 43.6858 12.3979 43.697 12.3554C43.7629 12.1017 44.3268 11.6762 43.821 11.6882C43.8194 11.9377 43.8079 11.8081 43.6159 11.9926C43.5557 12.0505 43.5354 12.3819 43.4406 12.027C43.43 11.9851 43.5673 11.1865 43.9922 11.214C43.84 11.172 43.6816 11.1587 43.5269 11.1278C44.288 10.4826 43.5102 10.9631 43.0926 11.2488C43.0733 11.2151 43.0522 11.1844 43.0343 11.1486C43.5434 10.989 43.3792 10.5875 43.0758 10.5752C42.9747 10.5707 42.8854 10.7691 42.7633 10.703C42.7721 10.6381 42.7874 10.5617 42.7987 10.4921C42.5378 10.7153 42.3501 10.6271 42.0479 10.7808C42.2716 10.5526 42.8086 10.195 43.1446 10.091C42.9805 10.0769 42.8163 10.0623 42.6514 10.0485C42.5974 10.1202 42.5442 10.192 42.4901 10.2637C42.5549 9.91695 41.9597 9.81028 42.5704 9.43923C42.5492 9.40817 42.5284 9.37645 42.5072 9.34539C42.3945 9.38886 42.2817 9.43278 42.169 9.47626C42.1869 9.27881 42.2056 9.08138 42.2234 8.88393C42.3573 8.98484 42.5264 8.94025 42.4725 9.14323C42.5691 9.02711 42.6658 8.90964 42.7629 8.79455C42.3239 8.74907 42.0905 8.8296 42.0301 8.46084C42.0274 8.44414 42.1861 8.06332 42.2092 8.04146C42.3147 7.94148 42.5241 7.90847 42.5785 7.86022C42.7314 7.72536 43.032 7.22013 43.1015 7.19226C43.9552 6.85215 44.4437 7.80212 44.6151 8.03946C46.3918 10.5012 47.1181 13.4145 48.5496 16.0279C48.5648 16.0545 48.6797 15.9821 48.6907 15.9912C48.7573 16.0485 48.6045 16.2139 48.6101 16.2445C48.6227 16.3098 48.7811 16.1912 48.8021 16.233C49.0163 16.6662 49.1179 17.1253 49.364 17.543C49.38 17.5702 49.2263 17.6111 49.2757 17.6483C49.302 17.6671 49.5556 17.6402 49.5877 17.6962C49.6994 17.8921 49.7154 18.0954 49.8248 18.3062C49.8847 18.4211 49.9535 18.6039 50.0215 18.7321L50.5228 19.4754L50.0215 20.9204C50.0214 20.9206 50.0213 20.9209 50.0212 20.9212C49.9939 20.9792 50.0618 21.0878 50.0367 21.1461C50.001 21.2288 49.8111 21.1133 49.7926 21.1195C49.7116 21.1469 49.9254 21.2632 49.8945 21.3121C49.8362 21.4028 49.6884 21.3354 49.6398 21.4631C49.6054 21.5546 49.6206 21.8109 49.5995 21.9374C49.3029 22.1095 49.2083 22.4659 49.1444 22.7329C49.1067 22.891 48.8968 22.8024 48.8686 22.8605C48.7708 23.0658 48.9533 23.35 48.8663 23.5453C48.7505 23.8043 48.4664 23.9431 48.3312 24.1825C48.3094 24.2214 48.5003 24.3054 48.4855 24.3469C48.4307 24.5003 48.3721 24.7022 48.2811 24.8178C48.1801 24.9468 47.8832 24.8646 47.868 25.0326C47.8638 25.082 48.0948 25.2126 48.0908 25.2969C48.0835 25.4311 47.8139 25.4475 47.7521 25.5128C47.6683 25.6027 47.9557 25.6318 47.8522 25.7578C47.8479 25.763 47.6645 25.6979 47.6575 25.7326C47.6363 25.8332 47.7767 25.8924 47.6987 26.0161C47.6906 26.0277 47.4397 26.1181 47.4305 26.135C47.3774 26.2347 47.2181 26.4093 47.2232 26.4866C47.2407 26.7625 47.5846 26.7241 46.93 26.624C47.0279 26.773 47.1281 26.9223 47.2198 27.0742C47.123 26.9551 46.8277 27.0946 46.8312 27.1166C46.8584 27.2972 47.1176 27.3273 46.9966 27.4785C46.6017 27.0015 46.822 27.6644 46.7857 27.7695C46.6111 28.2758 46.2688 28.6442 46.0334 29.123C45.9549 29.2835 45.9549 29.5511 45.8678 29.7189C45.848 29.7582 45.7429 29.6685 45.723 29.7018C45.7039 29.7356 45.8577 29.7645 45.8309 29.8004C45.6614 30.0227 45.3111 30.0882 45.5161 30.472C45.4647 30.46 45.4286 30.4415 45.3691 30.4345C45.5615 30.7609 45.0016 30.9243 44.8825 31.0314C44.6966 31.1991 44.8622 31.3485 44.7477 31.4806C44.5957 31.655 44.0697 31.7679 44.7569 31.9436C44.7076 32.0908 44.6468 32.2257 44.5198 32.3357C44.5055 32.3479 44.3532 32.2584 44.3469 32.263C44.3047 32.2908 44.4394 32.3741 44.4327 32.4038C44.4142 32.4843 44.3038 32.2828 44.2999 32.4086C44.2982 32.4752 44.4059 32.5674 44.3336 32.7185C44.2877 32.8138 44.2408 32.9097 44.1929 33.006L42.4291 37.6645L39.4737 33.006C39.0608 32.1856 38.6618 31.2945 38.266 30.4565C38.2355 30.3923 38.1041 30.5104 38.0739 30.4258C37.9692 30.132 37.9778 29.508 37.8234 29.2867C37.6691 29.0654 37.4731 29.2307 37.3051 29.1279C37.2725 29.1081 37.4114 29.0683 37.4003 29.0412C37.3241 28.8598 37.4176 28.5514 37.3763 28.3942C37.3492 28.2902 37.1532 28.3976 37.1063 28.3395C37.0369 28.2526 37.1887 28.0516 37.1693 27.9965C37.0758 27.7383 36.8293 27.6519 36.7984 27.3827C36.7588 27.4136 36.7211 27.4398 36.6815 27.469C36.5538 27.1958 36.4263 26.9228 36.2985 26.6496C36.2647 26.6824 36.2303 26.7149 36.1959 26.748C36.0597 26.4206 36.5132 26.239 35.6076 26.7265C35.5637 26.7197 35.514 26.7141 35.4732 26.707C35.9513 26.4791 36.2022 26.1144 36.201 25.8105C36.2011 25.7881 35.6793 25.8991 36.2315 25.6394C36.0823 25.6749 35.981 25.7022 35.8505 25.7344C35.9899 25.6003 36.1271 25.4665 36.2658 25.3327C36.2273 25.3172 36.1894 25.3008 36.1509 25.2853C36.0419 25.3346 35.9325 25.3933 35.8231 25.4369C35.7423 25.3158 35.742 24.9847 35.6774 24.8894C35.5162 24.653 35.0981 24.5394 35.3118 24.186C35.2319 24.1059 35.0698 24.3062 35.0249 24.15C35.123 24.0808 35.2173 24.0147 35.3183 23.9431C34.7853 24.0637 35.0618 23.8949 35.081 23.6853C35.0943 23.5433 34.9428 23.5305 34.9139 23.4161C34.9067 23.387 35.0479 23.3211 35.0344 23.3055C34.9901 23.2528 34.713 23.178 34.6867 23.1383C34.4448 22.7808 34.3019 22.4413 34.1708 22.0511C34.1564 22.0094 34.0443 22.1289 34.0298 22.0854C34.0064 22.0156 34.2369 21.9484 34.2283 21.9054C34.2034 21.7861 33.9802 21.8967 33.895 21.7555C33.7543 21.5221 33.6563 21.2446 33.5635 20.9611L33.0435 20.1901L33.5635 18.6913C33.7333 18.4488 33.9108 18.2069 34.0442 17.9587C34.0521 17.9429 33.9211 17.8785 33.9284 17.8607C33.978 17.7455 34.2111 17.7204 34.26 17.6178C34.3418 17.4477 34.2218 17.2293 34.3058 17.0629C34.4693 16.7375 34.7087 16.4934 34.8814 16.161C35.023 15.8891 35.1247 15.6422 35.2757 15.3419C35.9349 14.0299 36.1906 12.4827 37.072 11.2706C37.0947 11.2399 37.2031 11.3112 37.2033 11.2985C37.2022 11.176 37.0509 11.0894 37.3942 11.2177C37.3921 11.0613 37.1669 10.8996 37.2594 10.7582C37.3086 10.6828 37.6582 10.9323 37.5302 10.6991C37.4144 10.4884 37.139 10.5193 37.5333 10.2621C37.5439 10.2554 37.7989 10.3237 37.7765 10.218C37.7549 10.1122 37.5453 10.1173 37.5868 9.90958C37.6847 9.42212 38.1563 8.97889 38.3442 8.44922C38.3559 8.41601 38.3829 8.05305 38.3556 7.9651C38.3023 7.79466 38.1184 7.73275 38.151 7.56228C38.1763 7.43062 38.4186 7.43272 38.4476 7.27755C38.4508 7.25938 38.2637 7.13277 38.3413 7.04404ZM42.0824 29.3693C41.9 29.2428 41.2022 28.8304 41.5074 28.7701C41.5362 28.7643 41.99 29.1001 42.1162 29.0456C42.1227 29.1639 42.0948 29.2621 42.0832 29.3697C42.0829 29.3695 42.0827 29.3694 42.0824 29.3693ZM43.3223 8.61149C43.2223 8.72083 43.1224 8.83077 43.0224 8.9401C42.9789 8.80841 42.9356 8.67666 42.8913 8.54498C43.035 8.567 43.1787 8.58947 43.3223 8.61149ZM38.9459 23.1469C38.9458 23.1468 38.9458 23.1467 38.9457 23.1465C39.106 23.2339 39.2666 23.3212 39.4269 23.4086C39.3511 23.4289 39.2751 23.4492 39.1994 23.4695C39.0383 23.4178 38.8773 23.3659 38.7164 23.3145C38.7929 23.2587 38.8694 23.2028 38.9459 23.1469ZM37.6894 22.4518C37.7282 22.3254 37.8764 22.2775 37.987 22.1634C37.9867 22.1635 37.9865 22.1636 37.9862 22.1637C38.0149 22.1339 38.0166 22.0607 38.0106 22.0357C37.9285 22.0871 37.8488 22.1403 37.7677 22.192C37.4593 22.0967 38.0055 21.3355 38.5569 21.6916C38.4443 21.7385 38.3324 21.7854 38.2198 21.8323C38.3758 22.0682 38.2798 22.4663 37.6894 22.4518ZM42.7789 27.193C42.5297 26.8004 42.489 26.694 42.8633 26.5561C42.9459 26.6433 43.0286 26.7306 43.1112 26.8178C42.9867 26.8092 42.8631 26.8007 42.7386 26.7922C42.7385 26.7923 42.7384 26.7924 42.7384 26.7925C42.8423 26.8552 42.9464 26.918 43.0505 26.9804C42.96 27.0511 42.8693 27.1222 42.7789 27.193ZM39.2078 14.8077C39.9495 15.1038 39.5271 14.9142 39.6023 15.1651C39.6284 15.2521 39.7818 15.2568 39.7841 15.3039C39.7981 15.5591 39.3133 15.3365 39.0873 15.1681C39.1266 15.0473 39.168 14.9261 39.2076 14.8081C39.2077 14.8079 39.2077 14.8078 39.2078 14.8077ZM41.6356 9.58245C41.6356 9.58233 41.6357 9.5822 41.6358 9.58208C41.8119 9.66374 41.8186 9.76712 42.0282 9.7591C41.9933 9.82745 41.9575 9.89543 41.9224 9.96412C41.9163 9.93579 41.9113 9.90741 41.9052 9.87908C41.8367 9.86714 41.7673 9.85487 41.6988 9.84293C41.8861 9.9671 41.7588 9.93177 41.656 9.97054C41.8791 10.0572 42.1024 10.144 42.3255 10.2307C42.2201 10.2828 42.1143 10.335 42.0089 10.3871C41.9547 10.3613 41.9004 10.3354 41.8461 10.3096C41.899 10.3755 41.9528 10.4415 42.0056 10.5074C41.9372 10.484 41.8695 10.4605 41.8011 10.437C41.8306 10.4994 41.86 10.5619 41.8902 10.6246C41.729 10.5585 41.7039 10.4409 41.6689 10.6096C41.5324 10.4842 41.3963 10.3592 41.2599 10.2335C41.3847 10.0163 41.5101 9.79933 41.6356 9.58245ZM38.6503 16.4701C38.7437 16.2088 38.8216 16.3345 39.1455 16.5678C38.9805 16.5351 38.8153 16.5028 38.6503 16.4701ZM40.8711 28.4083C41.1472 28.3596 41.4211 28.3123 41.6897 28.2695C41.8967 28.3482 41.5314 28.713 41.3049 28.6892C41.0329 28.6603 41.1945 28.4072 40.8711 28.4083ZM41.2284 31.275C41.0278 31.3975 40.826 31.087 40.6796 30.9636C40.9719 31.0481 40.9827 30.9675 41.069 30.8726C41.0345 30.985 41.2621 31.255 41.2292 31.2754C41.2289 31.2753 41.2287 31.2752 41.2284 31.275ZM39.707 25.4047C39.6641 25.3369 39.5614 25.2994 39.6111 25.1947C39.8506 25.099 39.7053 25.3314 40.0004 25.0696C40.0291 25.1124 40.0576 25.1553 40.0868 25.1974C39.9312 25.2392 39.845 25.3307 39.7077 25.4041C39.7075 25.4043 39.7072 25.4045 39.707 25.4047ZM37.7278 18.9925C37.3855 18.9966 37.4887 19.0814 37.6066 19.3169C37.3751 19.226 37.0881 18.8721 37.0592 18.7257C37.2819 18.8148 37.5048 18.9038 37.7278 18.9925ZM42.8972 12.6255C43.1965 12.5179 43.3575 12.7479 43.3357 12.913C43.2865 12.9192 43.2366 12.9257 43.1868 12.9323C43.0903 12.8302 42.9936 12.7276 42.8972 12.6255ZM41.1144 30.8296C41.0969 30.844 41.0819 30.8584 41.069 30.8726C41.0751 30.8527 41.0888 30.8373 41.1144 30.8296ZM46.0723 23.9784C46.3092 24.1703 46.4859 24.0405 46.2756 24.2003C46.2759 24.2004 46.2762 24.2005 46.2764 24.2007C46.1376 24.3065 46.1038 24.3283 46.0181 24.4478C45.6994 24.23 45.7089 23.9054 45.4567 24.2332C45.454 24.2379 45.6623 24.3301 45.6055 24.3742C45.5878 24.3878 45.3921 24.3616 45.2999 24.4245C45.2703 24.4449 45.1129 24.6309 45.254 24.3406C45.0112 24.23 44.7776 24.0938 44.546 23.9788C44.5351 23.8326 45.0453 23.9794 45.0934 23.8545C45.1638 23.6685 44.7366 23.3424 45.3731 23.6181C45.4509 23.843 45.3268 24.1003 44.9376 23.9474C44.8611 24.0891 45.1456 24.283 45.3547 24.2424C45.4115 23.6493 45.876 24.3324 45.85 23.7753C45.7664 23.7271 45.6827 23.6628 45.6003 23.625C45.9699 23.6437 45.9875 23.9099 46.0723 23.9784ZM44.8937 24.6887C44.7545 24.5118 44.6138 24.3344 44.4739 24.1575C44.7706 24.3058 45.0133 24.4862 45.1128 24.7051C45.0396 24.6994 44.9662 24.6941 44.8937 24.6887ZM46.2685 17.9084C46.101 17.9767 45.9367 18.0176 45.7711 18.0703C45.8941 17.9762 45.7154 17.2924 46.0062 17.5403C46.0485 17.5763 45.9025 17.9977 46.2685 17.9084ZM37.9714 17.8976C37.8268 17.9163 37.6821 17.9347 37.5377 17.9531C37.5248 17.8072 37.5102 17.6603 37.4961 17.5137C37.6544 17.6417 37.8131 17.7695 37.9714 17.8976ZM41.1808 29.7357C41.1715 29.7019 41.4445 29.6931 41.3489 29.5894C41.536 29.6088 41.6984 29.6334 41.8761 29.6549C41.7843 29.7339 41.6931 29.8129 41.6014 29.8918C41.6791 29.8787 41.7566 29.8663 41.8343 29.8532C41.6752 29.9173 41.5203 29.9809 41.3583 30.0456C41.6118 29.7329 41.223 29.8847 41.1808 29.7357ZM38.3708 25.6107C38.6898 25.4177 38.9951 25.5344 38.9423 25.2958C39.1808 25.2269 39.3276 25.2343 39.4091 25.3486C39.3355 25.4102 39.2626 25.4716 39.189 25.5332C39.4138 25.4242 39.5129 25.4146 39.707 25.4047C39.7068 25.4049 39.7066 25.4051 39.7063 25.4053C39.8168 25.5857 39.7367 25.6117 39.392 25.8407C39.4995 25.5374 39.1609 25.6993 38.8933 25.663C38.7093 25.6382 38.7105 25.4851 38.3708 25.6107ZM46.6018 18.5654C46.2507 18.5645 46.0524 18.8221 46.2252 18.4226C46.3045 18.4031 46.3833 18.384 46.4627 18.3645C46.5098 18.4311 46.5561 18.4982 46.6018 18.5654ZM39.1616 24.3444C38.6552 24.6178 38.3212 24.9509 39.1695 24.5551C39.2751 24.3404 38.8327 24.6407 39.1616 24.3444ZM42.0035 31.7386C41.965 31.8 41.899 31.8229 41.8183 31.8187L41.8483 31.8187C41.9688 31.6743 42.2542 31.5536 42.4926 31.4966H41.174C41.1308 31.4608 41.0918 31.4249 41.0588 31.3907C41.1723 31.4277 41.286 31.4648 41.3987 31.5019C41.3726 31.4343 41.3464 31.3666 41.3209 31.2993C41.5482 31.4456 41.7762 31.5923 42.0035 31.7386ZM36.4007 20.2356C36.8633 20.2422 36.5023 19.9279 36.7982 19.9462C37.0346 19.9607 36.7344 20.2857 36.4759 20.3488C36.4511 20.3153 36.4261 20.2766 36.4009 20.2359C36.4008 20.2358 36.4008 20.2357 36.4007 20.2356ZM37.0566 21.2846C37.4335 21.0571 37.3416 21.1593 37.1958 21.0442C37.1542 21.0113 37.131 20.5963 36.8773 20.9022C36.9383 21.0242 36.9971 21.1559 37.0566 21.2846ZM42.8689 28.5721C43.0409 28.6553 43.2849 29.1058 43.1742 29.0926C43.1744 29.0927 43.1747 29.0928 43.1749 29.0929C42.8735 29.056 42.9757 28.7606 42.5644 28.7053C43.0066 28.5935 42.2989 28.1401 43.2745 28.6511C43.2393 28.8296 43.0734 28.6538 42.8689 28.5721ZM42.0716 8.96237C42.0715 8.96225 42.0715 8.96213 42.0714 8.962C42.0722 8.98367 41.894 9.25453 41.7983 9.2803C41.7854 9.06817 41.9661 9.01676 41.6133 8.98964C41.6963 8.93701 41.7772 8.88698 41.8605 8.83334C41.9446 8.87202 42.0675 8.85533 42.0716 8.96237ZM46.2788 17.0673C46.3557 17.1092 46.229 17.3191 46.2767 17.3868C45.4487 17.5096 45.973 16.8994 46.2788 17.0673ZM40.4554 12.004C40.4555 12.0043 40.4557 12.0046 40.4559 12.0049C40.4555 12.0047 40.4552 12.0044 40.4548 12.0041C40.455 12.0041 40.4552 12.004 40.4554 12.004ZM46.1913 21.6931C46.2417 21.7079 46.2841 21.7233 46.3202 21.7392C46.3235 21.7408 46.3268 21.7425 46.3301 21.7442C46.2846 21.727 46.2385 21.7099 46.1913 21.6931ZM43.0904 28.0001C43.3835 28.0098 43.5802 28.564 43.4307 28.6367C43.326 28.5741 43.228 28.5235 43.1127 28.4418C43.442 28.4875 43.0411 27.9982 43.0904 28.0001ZM39.8951 26.8565C40.0327 27.148 38.9038 27.2435 39.6471 26.8526C39.662 26.8459 39.8901 26.8497 39.8951 26.8565ZM42.0522 30.3228C42.3005 30.5388 42.45 30.429 42.2827 30.6404C42.2021 30.6172 42.1212 30.594 42.0405 30.5708C42.0445 30.4882 42.0482 30.4054 42.0522 30.3228ZM39.6036 29.3629C39.9437 29.6464 40.3973 29.8534 41.065 29.2241C41.0261 29.2093 40.9877 29.1936 40.9487 29.1788C40.5633 29.3664 40.7219 29.1604 40.6602 29.0058C40.4974 29.0608 40.4211 28.9961 40.284 29.0454C40.019 29.1406 39.8905 29.323 39.6036 29.3629ZM38.7493 13.5581C38.8118 13.5966 38.8748 13.6352 38.9366 13.6735C38.9818 13.7678 39.0265 13.8621 39.0717 13.9564C38.9508 13.8843 38.8298 13.8123 38.7089 13.7402C38.7222 13.6795 38.7354 13.619 38.7487 13.5583C38.7489 13.5582 38.7491 13.5581 38.7493 13.5581ZM45.5258 25.4468C44.822 25.0536 44.897 25.2352 45.1444 25.6509C45.2714 25.583 45.3987 25.5146 45.5258 25.4468ZM36.9803 23.3865C37.1812 23.2767 37.3815 23.1672 37.5822 23.057C37.307 23.0396 37.0841 23.1798 36.843 23.3746C36.8888 23.3788 36.9345 23.3824 36.9803 23.3865ZM35.9998 21.6434C35.9828 21.7162 36.1349 21.6073 36.1343 21.6143C36.1126 21.788 36.046 21.8442 36.2503 21.9418C36.3035 21.9397 36.3587 21.9361 36.4132 21.9333C36.8051 21.6451 36.5446 21.7083 36.7184 21.426C36.5854 21.5277 36.4521 21.6294 36.3185 21.7314C36.3061 21.629 36.2935 21.5271 36.2812 21.4246C36.2306 21.437 36.1805 21.4492 36.13 21.4615C36.0872 21.5216 36.0376 21.5862 35.9998 21.6434ZM39.2672 12.9876C39.3263 12.9114 39.3863 12.8353 39.4454 12.7592C39.3413 12.7033 39.2365 12.6472 39.1324 12.5913C39.1774 12.7232 39.2222 12.8556 39.2672 12.9876ZM46.0653 23.5472C46.0312 23.5217 45.9968 23.4964 45.9613 23.4714C46.0078 23.4953 46.0406 23.5209 46.0653 23.5472ZM42.5394 8.4497C42.5653 8.31692 42.4478 8.20305 42.4107 8.09015C42.1499 8.23088 42.3568 8.46149 42.2431 8.63563C42.2981 8.62693 42.5286 8.50576 42.5394 8.4497ZM41.6523 31.6587C41.5081 31.7008 41.3646 31.7425 41.2205 31.7849C41.2058 31.7197 41.1917 31.654 41.1768 31.5884C41.0677 31.6408 40.9577 31.6937 40.8486 31.7461C41.1179 31.9331 40.7762 32.0298 40.5321 32.3111C40.9052 32.0936 41.2786 31.8765 41.6523 31.6587ZM39.9256 9.95496C39.9059 10.1775 40.0097 10.3118 40.3867 10.3693C40.345 10.2664 40.3034 10.1632 40.2617 10.0603C40.1497 10.0253 40.0375 9.99029 39.9256 9.95496ZM48.0026 20.284C47.9602 20.0735 48.3734 20.2721 48.2407 20.0299L48.334 19.7609L48.2407 19.6225C48.2333 19.6215 48.2255 19.6206 48.2171 19.6198C48.2152 19.6256 48.2133 19.6314 48.2114 19.6372L48.298 19.7656L48.2114 20.0153C48.0961 20.0545 47.98 20.0934 47.8649 20.1323C47.9108 20.1826 47.9567 20.2337 48.0026 20.284ZM45.3844 28.5115C45.5687 28.5216 44.9097 28.0388 45.5337 28.1202C45.397 27.9968 45.2592 27.8935 45.1226 27.7779C45.3027 27.8405 45.4865 27.9012 45.6648 27.9641C45.6648 27.964 45.6649 27.9639 45.6649 27.9638C45.6916 27.7679 45.4252 27.7703 45.2476 27.6768C45.1741 27.6378 45.3606 27.5758 45.1793 27.5337C44.8678 27.4617 44.9024 27.792 44.5632 27.6232C44.7179 27.5906 44.7113 27.3726 44.4598 27.3104C44.1838 27.242 44.5187 27.6118 44.2613 27.6119C44.8768 27.735 44.5569 27.9564 44.1236 27.7831C44.3535 28.1219 44.5661 28.0225 44.6429 27.8316C44.9057 28.103 44.8159 27.852 45.0945 27.9573C45.1967 28.1528 44.8652 28.4825 45.3844 28.5115ZM38.7188 27.9164C38.8013 28.0298 38.7157 28.3142 39.0271 28.2644C39.2085 28.2354 39.233 27.9809 39.5459 27.9915C39.4617 27.8829 39.3518 27.9035 39.1463 28.032C39.1067 28.0174 39.0675 28.0023 39.0285 27.9874C39.0643 27.9537 39.0993 27.9199 39.135 27.8861C39.039 27.9161 38.9437 27.9456 38.8479 27.9759C38.8508 27.9379 38.8536 27.8997 38.8571 27.8614C38.8108 27.8803 38.769 27.8939 38.7188 27.9164ZM46.0545 15.5057C46.0743 15.5387 46.0938 15.5715 46.1143 15.6042C46.1649 15.5742 46.2174 15.5423 46.2692 15.5109C46.3103 15.4865 46.3514 15.4621 46.3925 15.4376C46.25 15.5337 46.0785 15.8241 46.2758 15.8116C46.3748 15.8054 46.6253 15.5816 46.7494 15.7032C46.6812 15.6042 46.5923 15.5253 46.516 15.4342C46.6068 15.4004 46.6984 15.3658 46.7892 15.332C46.7893 15.3318 46.7894 15.3317 46.7895 15.3316C46.7917 15.2875 46.7947 15.2426 46.797 15.1985C46.5493 15.3009 46.3022 15.4033 46.0545 15.5057ZM36.626 23.6896C36.8537 23.7222 36.9611 23.7175 37.2069 23.5255C37.207 23.5253 37.207 23.5251 37.2071 23.5249C37.0641 23.5419 36.9212 23.5587 36.7782 23.5757C36.7275 23.6135 36.6766 23.6514 36.626 23.6896ZM47.4725 22.9892C46.5584 22.2207 46.9146 23.1001 47.3218 23.1702C47.3404 23.1735 47.3461 22.9552 47.4725 22.9892ZM42.3459 31.8525C42.3228 31.9175 42.299 31.9823 42.2757 32.0474L41.945 32.9208L41.3909 32.0474C41.3865 32.0406 41.382 32.0339 41.3775 32.0271C41.3232 32.0632 41.2691 32.0993 41.215 32.1354L41.9894 33.3562L42.4517 32.1354C42.5257 32.1615 42.5998 32.1876 42.6739 32.2138C42.5648 32.0936 42.455 31.9728 42.3459 31.8525ZM39.0494 10.5285C38.7283 10.4579 38.5327 10.591 38.7976 10.8363C38.8576 10.8071 38.9176 10.7778 38.9776 10.7485C38.9684 10.856 38.9633 10.9642 38.9518 11.0714C39.3466 11.2748 39.1683 11.0555 39.3561 10.9535C39.3859 10.9381 39.9565 11.0295 39.6117 10.7902C39.5407 10.7412 39.4062 10.8802 39.2415 10.6545C39.1989 10.6959 39.1812 10.7411 39.1478 10.7837C39.0514 10.7398 38.955 10.6959 38.8585 10.6523C38.9221 10.6109 38.9859 10.57 39.0494 10.5285ZM39.11 28.6212C39.173 28.8021 39.3422 28.7438 39.6404 28.6389C39.5691 28.5757 39.4983 28.5123 39.4271 28.4492C39.3217 28.5066 39.216 28.5635 39.11 28.6212ZM38.1989 12.0021C38.1065 12.0722 38.3548 12.1465 38.3795 12.2056C38.4719 12.4288 38.2605 12.4438 38.2929 12.6348C38.2535 12.6035 38.2166 12.5743 38.1783 12.544C38.1782 12.5442 38.1781 12.5443 38.1781 12.5444C37.6546 13.1103 38.3463 13.0214 38.4601 12.5831C38.5496 12.6163 38.6391 12.6499 38.728 12.6827C38.6682 12.4312 38.6072 12.1963 38.1989 12.0021ZM46.4015 25.2201C46.4584 25.2391 46.7639 25.4722 46.6661 25.2726C46.2209 24.9306 46.3873 25.2096 46.178 25.154C46.1471 25.0977 46.1177 25.0413 46.0866 24.9853C45.8497 25.1109 45.9527 25.198 46.3485 25.307C46.3753 25.314 46.3447 25.2012 46.4015 25.2201ZM47.2858 24.059C46.5728 23.669 46.7763 24.0786 47.0063 24.1825C47.0323 24.1529 46.9225 24.065 46.9949 24.0562C47.0676 24.0469 47.2419 24.1225 47.2858 24.059ZM43.5798 31.0269C43.5866 31.0213 43.9282 31.1014 43.6856 30.9891C43.0751 30.796 43.3488 31.1587 43.5616 31.2256C43.5818 31.161 43.5168 31.0787 43.5806 31.0272C43.5803 31.0271 43.58 31.027 43.5798 31.0269ZM39.4387 9.32195C39.4167 9.31525 39.2036 9.43476 39.3058 9.51507C39.4245 9.59844 39.5572 9.67673 39.6828 9.75756C39.6095 9.59635 39.8041 9.44155 39.4385 9.32231C39.4386 9.32219 39.4386 9.32207 39.4387 9.32195Z" fill="#B74B3A"/>
</svg>
